<svg width="390" height="212" viewBox="0 0 390 212" fill="none" xmlns="http://www.w3.org/2000/svg">
<g clip-path="url(#clip0_4912_134697)">
<rect width="390" height="212" fill="white"/>
<path d="M346.686 140.392L353.614 133.33L359.802 138.975L352.874 146.037L346.686 140.392Z" fill="#FFCF66"/>
<path d="M386.695 182.628L384.485 176.622L392.313 173.641L394.523 179.647L386.695 182.628Z" fill="#66FFF0"/>
<path d="M405.469 210.215L392.175 215.508" stroke="#FF7A66" stroke-width="4" stroke-linecap="round"/>
<path d="M345.814 9.80025C347.507 6.77064 346.668 5.30783 343.297 5.41183C339.926 5.51582 339.087 4.05301 340.78 1.0234C342.473 -2.0062 341.599 -3.28931 338.16 -2.82593C334.857 -3.08133 334.018 -4.54414 335.643 -7.21435" stroke="#66DEFF" stroke-width="3" stroke-linecap="round"/>
<path d="M359.503 28.88L341.691 34.4315" stroke="#C9FF66" stroke-width="3" stroke-linecap="round"/>
<path d="M342.61 220.608C346.05 220.145 346.965 218.271 345.355 214.986C343.677 212.06 344.523 210.545 347.894 210.441C351.334 209.978 352.248 208.104 350.639 204.819C348.96 201.893 349.807 200.378 353.178 200.274" stroke="#66FF75" stroke-width="4" stroke-linecap="round"/>
<path d="M388.21 87.959C389.888 90.8847 391.215 90.7643 392.189 87.5981C393.163 84.4319 394.309 84.2774 395.628 87.1347C397.666 90.1287 398.992 90.0084 399.607 86.7738C400.94 83.6759 402.267 83.5556 403.585 86.4129" stroke="#FF6678" stroke-width="4" stroke-linecap="round"/>
<path d="M341.517 117.625C344.957 117.162 346.085 115.142 344.903 111.566C343.293 108.281 344.242 106.227 347.75 105.404C351.189 104.941 352.318 102.921 351.136 99.3452C349.526 96.0602 350.475 94.0063 353.983 93.1835" stroke="#B8FF66" stroke-width="3" stroke-linecap="round"/>
<path d="M341.803 63.2203C340.11 66.2499 340.846 68.2518 344.013 69.226C347.538 70.2685 348.6 72.5184 347.198 75.9757C345.146 78.937 345.882 80.9389 349.408 81.9814C352.934 83.0239 353.67 85.0258 351.618 87.9871" stroke="#66FF8C" stroke-width="3" stroke-linecap="round"/>
<path d="M317.271 215.793L319.682 208.99L326.485 211.4L324.075 218.203L317.271 215.793Z" fill="#FF66AB"/>
<path d="M375.411 15.706L369.249 12.8592L372.635 6.79994L378.257 9.54433L375.411 15.706Z" fill="#66E8FF"/>
<path d="M320.622 115.888L322.568 105.645L329.037 106.875L327.091 117.118L320.622 115.888Z" fill="#FF66A8"/>
<path d="M327.372 187.869L330.593 184.506L335.006 185.509L332.716 181.167L335.376 177.268L330.451 177.923L327.088 174.703L326.634 179.103L322.293 181.393L326.729 183.492L327.372 187.869Z" fill="#66F0FF"/>
<path d="M314.037 147.592L316.781 141.969L321.865 144.611L319.12 150.234L314.037 147.592Z" fill="#FFB566"/>
<path d="M385.414 127.645L362.924 116.667" stroke="#FF9E66" stroke-width="3" stroke-linecap="round"/>
<path d="M377.045 62.9367L370.273 75.0551" stroke="#FF7366" stroke-width="3" stroke-linecap="round"/>
<path d="M326.502 55.5631L334.174 47.5257L340.26 53.7095L332.588 61.7469L326.502 55.5631Z" fill="#FFFF66"/>
<path d="M343.538 -4.73639L348.74 -4.53683L350.802 0.578232L353.416 -4.18383L358.311 -5.03798L354.449 -8.48556L355.175 -13.841L350.74 -11.4063L346.132 -13.4933L346.986 -8.5982L343.538 -4.73639Z" fill="#FF667A"/>
<path d="M382.308 126.277L380.494 124.625L380.711 121.835L378.53 123.501L376.039 122.227L377.027 124.787L374.846 126.452L377.636 126.669L378.624 129.229L379.898 126.737L382.308 126.277Z" fill="#9CFF66"/>
<path d="M387.386 52.6137L377.759 47.4323L380.4 42.3488L390.028 47.5302L387.386 52.6137Z" fill="#F766FF"/>
<path d="M375.842 162.988C377.071 163.874 378.786 163.595 379.672 162.365C380.557 161.135 380.278 159.421 379.049 158.535C377.819 157.65 376.104 157.929 375.219 159.158C374.333 160.388 374.612 162.102 375.842 162.988Z" fill="#FF66BF"/>
<path d="M333.056 144.504C336.495 144.041 337.41 142.167 335.8 138.882C334.122 135.956 334.968 134.441 338.34 134.337C341.779 133.874 342.694 132 341.084 128.715C339.406 125.789 340.252 124.274 343.623 124.17" stroke="#FFED66" stroke-width="3" stroke-linecap="round"/>
<path d="M369.731 63.2214L370.119 69.9979L359.261 71.2855L358.873 64.5091L369.731 63.2214Z" fill="#FF66F2"/>
<path d="M391.251 220.359L380.621 211.636" stroke="#6682FF" stroke-width="4" stroke-linecap="round"/>
<path d="M362.888 90.408L343.124 94.4714" stroke="#F066FF" stroke-width="3" stroke-linecap="round"/>
<path d="M329.431 208.267C326.738 210.712 325.547 213.785 326.769 215.131C327.991 216.477 331.165 215.587 333.857 213.142C336.55 210.698 337.742 207.625 336.519 206.278C335.297 204.932 332.123 205.823 329.431 208.267Z" fill="#99FF66"/>
<path d="M7.07898 117.444L10.1257 113.259L15.0521 113.607L12.5864 109.582L14.5771 104.772L9.53458 106.066L5.89667 103.058L5.54803 107.984L0.975365 110.411L5.7855 112.402L7.07898 117.444Z" fill="#A8FF66"/>
<path d="M4.05174 73.5887L2.01397 76.6542L-1.32093 76.7948L0.58812 79.2425L-0.427797 82.9874L3.04177 81.7576L6.10734 83.7953L5.96673 80.4604L9.02636 78.0741L5.28154 77.0582L4.05174 73.5887Z" fill="#66EBFF"/>
<path d="M62.4173 7.89832C61.6842 4.60618 59.7365 3.98295 56.574 6.02863C53.9064 7.92346 52.2061 7.22481 51.4731 3.93267C50.74 0.64054 48.7923 0.0173108 45.6298 2.06299C42.9622 3.95782 41.2619 3.25917 40.5288 -0.0329673" stroke="#66E6FF" stroke-width="3" stroke-linecap="round"/>
<path d="M77.8261 29.1636L80.9859 20.8989L88.7664 23.8007L85.6065 32.0654L77.8261 29.1636Z" fill="#66FF7D"/>
<path d="M28.7703 122.406L44.6488 115.943" stroke="#667AFF" stroke-width="4" stroke-linecap="round"/>
<path d="M38.4092 96.1432C41.659 97.0456 42.5839 96.0876 41.184 93.2692C39.956 90.1279 40.795 89.3313 43.7007 90.8794C46.9505 91.7819 47.8754 90.8239 46.4755 88.0054C45.2475 84.8642 46.1725 83.9062 49.2502 85.1314" stroke="#75FF66" stroke-width="4" stroke-linecap="round"/>
<path d="M16.1102 26.545C14.8271 24.4879 12.7447 23.4703 11.459 24.2722C10.1733 25.0741 10.1711 27.3918 11.4542 29.449C12.7372 31.5062 14.8196 32.5238 16.1054 31.7218C17.3911 30.9199 17.3932 28.6022 16.1102 26.545Z" fill="#CCFF66"/>
<path d="M70.0955 71.6782L67.801 65.4816L73.2553 63.4135L75.5497 69.61L70.0955 71.6782Z" fill="#7A66FF"/>
<path d="M41.6787 40.9929L45.291 34.2128L50.1339 36.793L46.5216 43.5731L41.6787 40.9929Z" fill="#B366FF"/>
<path d="M30.3184 52.9736L26.0629 65.6288" stroke="#6694FF" stroke-width="3" stroke-linecap="round"/>
<path d="M29.6083 143.66C26.4599 146.029 24.7937 149.127 25.8868 150.58C26.9799 152.033 30.4184 151.291 33.5668 148.923C36.7153 146.554 38.3814 143.456 37.2883 142.003C36.1952 140.55 32.7568 141.292 29.6083 143.66Z" fill="#FFB566"/>
<path d="M10.6947 18.1031C10.428 21.122 11.9249 23.7206 14.0381 23.9072C16.1513 24.0939 18.0806 21.798 18.3472 18.7791C18.6139 15.7603 17.117 13.1617 15.0038 12.975C12.8906 12.7883 10.9613 15.0843 10.6947 18.1031Z" fill="#FF6966"/>
<path d="M114.513 -3.51775L117.196 6.61668L107.32 8.81585L105.379 -1.54484L114.513 -3.51775Z" fill="#FFF566"/>
<path d="M6.12729 171.899L22.5218 164.468" stroke="#6BFF66" stroke-width="4" stroke-linecap="round"/>
<path d="M29.0332 -11.1317L40.4657 2.42055" stroke="#66FFA1" stroke-width="3" stroke-linecap="round"/>
<path d="M102.849 8.69902C102.535 5.07586 100.322 2.30836 97.9067 2.51764C95.4912 2.72693 93.7876 5.83374 94.1015 9.4569C94.4154 13.0801 96.628 15.8476 99.0435 15.6383C101.459 15.429 103.163 12.3222 102.849 8.69902Z" fill="#66FFF2"/>
<path d="M13.6076 148.526L7.43886 140.266L16.831 137.808L13.6076 148.526Z" fill="#FFFA66"/>
<path d="M26.5023 146.548L24.12 143.115L25.228 139.277L21.6205 140.903L18.6559 138.399L18.7693 142.355L15.3357 144.737L19.1738 145.845L20.0435 149.626L22.5469 146.662L26.5023 146.548Z" fill="#FF8266"/>
<path d="M22.6673 45.1656C26.0891 45.7451 27.5195 44.2274 26.9584 40.6124C26.2254 37.3203 27.4838 36.1254 30.7335 37.0278C34.1554 37.6074 35.5857 36.0897 35.0247 32.4747C34.2916 29.1826 35.55 27.9877 38.7998 28.8901" stroke="#66FFD9" stroke-width="4" stroke-linecap="round"/>
<path d="M13.0582 27.6101C12.3252 24.3179 10.6248 23.6193 7.95727 25.5141C5.11767 27.7318 3.33134 27.1946 2.59829 23.9025C2.36011 20.4595 0.821221 19.8468 -2.01838 22.0645C-4.85797 24.2822 -6.6443 23.745 -7.37736 20.4529" stroke="#6691FF" stroke-width="4" stroke-linecap="round"/>
<path d="M25.0852 16.4815C22.9781 18.6598 22.6827 21.7921 24.4253 23.4778C26.1679 25.1635 29.2887 24.7641 31.3958 22.5858C33.5028 20.4076 33.7983 17.2752 32.0556 15.5896C30.313 13.9039 27.1922 14.3033 25.0852 16.4815Z" fill="#9966FF"/>
</g>
<defs>
<clipPath id="clip0_4912_134697">
<rect width="390" height="212" fill="white"/>
</clipPath>
</defs>
</svg>
