<svg width="179" height="133" viewBox="0 0 179 133" fill="none" xmlns="http://www.w3.org/2000/svg">
<g clip-path="url(#clip0_1267_34596)">
<path d="M145.013 107.389C145.013 107.389 126.278 98.7301 132.86 92.7259C139.441 86.7216 145.013 107.389 145.013 107.389Z" fill="#E5E7EB"/>
<path d="M144.687 109.409C144.687 109.409 136.075 81.0042 148.756 82.3626C161.436 83.7211 144.687 109.409 144.687 109.409Z" fill="#E5E7EB"/>
<path d="M138.407 106.89L138.769 111.641L138.774 111.723C138.774 112.465 138.811 113.207 138.886 113.945C139.377 118.791 141.485 121 143.949 121C146.413 121 148.429 118.791 148.92 113.945C148.995 113.207 149.032 112.465 149.032 111.723L149.035 111.657L149.036 111.641L149.399 106.89H138.407Z" fill="#E5E7EB"/>
<path d="M149.037 111.641L149.036 111.657L149.033 111.723C149.033 112.465 148.996 113.207 148.921 113.945H138.887C138.812 113.207 138.775 112.465 138.775 111.723L138.77 111.641H149.037Z" fill="white"/>
<path d="M39.1476 111.523C39.1476 111.523 32.1813 108.303 34.6286 106.071C37.0758 103.838 39.1476 111.523 39.1476 111.523Z" fill="#E5E7EB"/>
<path d="M34.5352 111.183L34.7866 114.489L34.7906 114.546C34.7904 115.062 34.8164 115.578 34.8685 116.091C35.2097 119.464 36.6766 121 38.391 121C40.1054 121 41.5084 119.464 41.8497 116.091C41.9018 115.578 41.9277 115.062 41.9275 114.546L41.9295 114.5L41.9305 114.489L42.183 111.183L34.5352 111.183Z" fill="#E5E7EB"/>
<path d="M112.313 63.3015C112.575 63.1203 112.78 62.8691 112.907 62.5766C113.033 62.284 113.075 61.9617 113.028 61.6463C112.981 61.3309 112.848 61.035 112.642 60.7922C112.436 60.5493 112.166 60.3692 111.864 60.2723L107.963 59.0234L105.82 60.888L110.551 63.4054C110.826 63.5517 111.136 63.6194 111.447 63.6011C111.758 63.5828 112.057 63.4791 112.313 63.3015Z" fill="#FFB9B9"/>
<path d="M105.755 62.1055L108.326 59.1123L98.7514 48.5923L94.343 38.3316C94.0526 37.6555 93.5355 37.1029 92.8815 36.7696C92.2275 36.4363 91.478 36.3434 90.7629 36.507C90.2952 36.614 89.8582 36.8272 89.4854 37.1302C89.1126 37.4332 88.8139 37.8179 88.6122 38.2548C88.4106 38.6917 88.3113 39.1692 88.3221 39.6506C88.3329 40.132 88.4534 40.6046 88.6744 41.0319L94.4281 52.1581L105.755 62.1055Z" fill="#E5E7EB"/>
<path d="M111.897 101.755L111.404 100.987H110.494V100.652H111.586L112.177 101.573L111.897 101.755Z" fill="#3F3D56"/>
<path d="M109.855 100.987H107.937V100.652H109.855V100.987ZM107.298 100.987H105.38V100.652H107.298V100.987ZM104.74 100.987H102.822V100.652H104.74L104.74 100.987ZM102.183 100.987H100.265V100.652H102.183V100.987ZM99.6259 100.987H97.708V100.652H99.6259V100.987ZM97.0686 100.987L95.2917 100.985L95.1301 100.964L95.1741 100.632L95.3248 100.652H97.0686V100.987ZM94.4964 100.879L92.5951 100.626L92.6391 100.294L94.5404 100.547L94.4964 100.879ZM91.9614 100.541L90.0602 100.288L90.1042 99.9556L92.0054 100.209L91.9614 100.541ZM89.4265 100.203L87.5252 99.9495L87.5692 99.6175L89.4705 99.871L89.4265 100.203ZM86.8915 99.865L84.9902 99.6113L85.0342 99.2793L86.9354 99.533L86.8915 99.865Z" fill="#3F3D56"/>
<path d="M83.5239 100.238L83.1904 100.228L83.2243 99.0381L84.4 99.195L84.356 99.5269L83.5472 99.4193L83.5239 100.238Z" fill="#3F3D56"/>
<path d="M83.269 109.205L82.9355 109.195L82.9993 106.954L83.3328 106.963L83.269 109.205ZM83.3541 106.216L83.0206 106.206L83.0844 103.965L83.4178 103.974L83.3541 106.216ZM83.4391 103.227L83.1056 103.217L83.1694 100.976L83.5029 100.985L83.4391 103.227Z" fill="#3F3D56"/>
<path d="M82.8809 111.133L82.9147 109.942L83.2482 109.952L83.2248 110.77L84.0377 110.707L84.0638 111.041L82.8809 111.133Z" fill="#3F3D56"/>
<path d="M84.7017 110.991L84.6758 110.657L86.5912 110.508L86.6171 110.842L84.7017 110.991ZM87.2555 110.792L87.2296 110.458L89.145 110.308L89.1709 110.642L87.2555 110.792ZM89.8093 110.593L89.7834 110.259L91.6989 110.109L91.7246 110.443L89.8093 110.593ZM92.3631 110.393L92.3373 110.06L94.2527 109.91L94.2784 110.244L92.3631 110.393ZM94.9168 110.194L94.8911 109.86L96.8066 109.711L96.8323 110.045L94.9168 110.194ZM97.4707 109.995L97.445 109.661L99.3603 109.512L99.386 109.846L97.4707 109.995ZM100.024 109.796L99.9987 109.462L101.914 109.312L101.94 109.646L100.024 109.796ZM102.578 109.597L102.553 109.263L104.468 109.113L104.494 109.447L102.578 109.597ZM105.132 109.397L105.106 109.063L107.022 108.914L107.048 109.248L105.132 109.397ZM107.686 109.198L107.66 108.864L109.576 108.715L109.601 109.049L107.686 109.198ZM110.24 108.999L110.214 108.665L112.13 108.516L112.155 108.85L110.24 108.999ZM112.794 108.8L112.768 108.466L114.683 108.316L114.709 108.65L112.794 108.8Z" fill="#3F3D56"/>
<path d="M115.348 108.601L115.322 108.267L116.042 108.211L115.651 107.602L115.931 107.42L116.625 108.501L115.348 108.601Z" fill="#3F3D56"/>
<path d="M115.234 106.952L113.983 105.003L114.263 104.822L115.514 106.771L115.234 106.952ZM113.566 104.354L112.314 102.405L112.595 102.223L113.846 104.172L113.566 104.354Z" fill="#3F3D56"/>
<path d="M109.076 115.809C115.341 115.809 120.42 110.71 120.42 104.42C120.42 98.1309 115.341 93.0322 109.076 93.0322C102.811 93.0322 97.7324 98.1309 97.7324 104.42C97.7324 110.71 102.811 115.809 109.076 115.809Z" fill="#14B8A6"/>
<path d="M118.418 117.651L101.819 88.0918L98.1494 91.7762L114.498 117.567L118.418 117.651Z" fill="#3F3D56"/>
<path d="M68.123 116.897L105.407 78.9639L108.493 85.0766L73.1276 118.571L68.123 116.897Z" fill="#3F3D56"/>
<path d="M83.3027 112.877C87.4486 112.877 90.8095 109.503 90.8095 105.341C90.8095 101.179 87.4486 97.8047 83.3027 97.8047C79.1568 97.8047 75.7959 101.179 75.7959 105.341C75.7959 109.503 79.1568 112.877 83.3027 112.877Z" fill="#3F3D56"/>
<path d="M73.2938 107.519C73.2495 107.519 73.2071 107.536 73.1759 107.568C73.1446 107.599 73.127 107.642 73.127 107.686V109.026C73.127 109.07 73.1446 109.113 73.1759 109.144C73.2071 109.176 73.2495 109.193 73.2938 109.193H77.4642C77.5085 109.193 77.5509 109.176 77.5821 109.144C77.6134 109.113 77.631 109.07 77.631 109.026V107.686C77.631 107.642 77.6134 107.599 77.5821 107.568C77.5509 107.536 77.5085 107.519 77.4642 107.519H73.2938Z" fill="#14B8A6"/>
<path d="M82.8856 88.8452C82.8413 88.8453 82.7989 88.8629 82.7677 88.8943C82.7364 88.9257 82.7188 88.9683 82.7188 89.0127V90.3525C82.7188 90.3969 82.7364 90.4395 82.7677 90.4709C82.7989 90.5023 82.8413 90.5199 82.8856 90.5199H87.056C87.1002 90.5199 87.1426 90.5023 87.1739 90.4709C87.2052 90.4395 87.2228 90.3969 87.2228 90.3525V89.0127C87.2228 88.9683 87.2052 88.9257 87.1739 88.8943C87.1426 88.8629 87.1002 88.8453 87.056 88.8452H82.8856Z" fill="#14B8A6"/>
<path d="M103.154 86.0819H98.8164V82.7324L100.485 82.0625L103.154 84.0722V86.0819Z" fill="#3F3D56"/>
<path d="M99.3665 81.2139L98.9141 81.4287L99.7701 83.2454L100.222 83.0306L99.3665 81.2139Z" fill="#3F3D56"/>
<path d="M99.8452 79.0405C99.8133 79.0405 99.7821 79.0498 99.7554 79.0672L96.8089 80.9697C96.7717 80.9937 96.7456 81.0316 96.7362 81.075C96.7268 81.1184 96.735 81.1637 96.7589 81.2011L97.4807 82.3279C97.5047 82.3653 97.5424 82.3915 97.5856 82.401C97.6288 82.4104 97.674 82.4022 97.7112 82.3782L100.658 80.4758C100.695 80.4517 100.721 80.4139 100.73 80.3705C100.74 80.3271 100.732 80.2817 100.708 80.2443L99.9859 79.1175C99.9741 79.099 99.9587 79.083 99.9407 79.0704C99.9227 79.0579 99.9024 79.0491 99.881 79.0445C99.8692 79.0419 99.8572 79.0405 99.8452 79.0405Z" fill="#14B8A6"/>
<path d="M106.49 85.7471L103.07 69.0835L107.074 68.4136L109.804 81.8375C109.921 82.3241 109.922 82.8317 109.807 83.3188C109.691 83.8058 109.462 84.2585 109.139 84.6398C108.816 85.0212 108.407 85.3203 107.947 85.5127C107.487 85.7052 106.987 85.7855 106.49 85.7471Z" fill="#3F3D56"/>
<path d="M119.091 65.7998L115.13 65.5158C115.077 65.512 115.026 65.4956 114.981 65.4679C114.935 65.4402 114.897 65.4021 114.869 65.3566C114.842 65.3112 114.825 65.2598 114.821 65.2066C114.817 65.1535 114.826 65.1002 114.847 65.0511L120.6 51.4144C120.621 51.3631 120.655 51.318 120.699 51.2832C120.742 51.2484 120.794 51.2251 120.848 51.2153L124.755 50.515C124.813 50.5045 124.873 50.5099 124.929 50.5305C124.984 50.5511 125.034 50.5862 125.071 50.6322C125.109 50.6782 125.134 50.7335 125.143 50.7923C125.152 50.8511 125.146 50.9113 125.124 50.9668L119.425 65.5878C119.399 65.6543 119.353 65.7108 119.293 65.7489C119.232 65.7871 119.162 65.8049 119.091 65.7998Z" fill="#3F3D56"/>
<path d="M115.665 64.478L118.835 64.8129L124.006 51.75L120.67 52.2524L115.665 64.478Z" fill="#14B8A6"/>
<path d="M81.1349 100.317L76.9644 104.504L70.959 78.2104L74.2953 78.7129L81.1349 100.317Z" fill="#3F3D56"/>
<path d="M76.2737 78.6729L75.5533 78.456C74.138 79.0824 72.598 79.3734 71.0527 79.3063C70.7189 79.2924 70.4036 79.149 70.173 78.9063C69.9424 78.6637 69.8146 78.3406 69.8164 78.0053C69.8164 77.6599 69.9531 77.3287 70.1963 77.0845C70.4396 76.8403 70.7695 76.7031 71.1135 76.7031H77.4054C77.5757 76.7031 77.7391 76.7711 77.8595 76.892C77.98 77.0129 78.0476 77.1769 78.0476 77.3479C78.0476 77.5635 77.9974 77.7762 77.901 77.9689C77.8045 78.1616 77.6646 78.329 77.4922 78.4578C77.3199 78.5865 77.1199 78.673 76.9083 78.7104C76.6968 78.7477 76.4794 78.7349 76.2737 78.6729Z" fill="#3F3D56"/>
<path d="M116.127 62.23C115.966 62.2297 115.809 62.2828 115.681 62.3809L110.56 66.3127L104.827 67.0634C103.84 67.1927 103.156 68.2706 103.07 69.2507L109.819 68.3099C110.756 68.2192 111.642 67.8374 112.353 67.2178L116.607 63.5241C116.721 63.4258 116.802 63.2951 116.839 63.1494C116.876 63.0037 116.868 62.8501 116.816 62.7092C116.763 62.5683 116.669 62.4468 116.546 62.3611C116.423 62.2755 116.277 62.2297 116.127 62.23Z" fill="#3F3D56"/>
<path d="M113.625 59.7178C113.464 59.7175 113.307 59.7706 113.179 59.8687L108.058 63.8005L102.325 64.5512C101.338 64.6805 100.654 65.7584 100.568 66.7385L107.317 65.7977C108.254 65.707 109.14 65.3252 109.851 64.7056L114.106 61.0118C114.219 60.9136 114.3 60.7829 114.337 60.6372C114.374 60.4915 114.366 60.3379 114.314 60.197C114.261 60.0561 114.167 59.9346 114.044 59.8489C113.921 59.7633 113.775 59.7175 113.625 59.7178Z" fill="#3F3D56"/>
<path d="M116.749 69.837C115.557 69.8345 114.381 69.5511 113.318 69.0096C112.254 68.4681 111.332 67.6836 110.625 66.7191L111.297 66.2239C111.837 66.9637 112.52 67.5859 113.306 68.0532C114.092 68.5204 114.964 68.8228 115.869 68.9423C116.774 69.0617 117.695 68.9956 118.574 68.748C119.453 68.5004 120.273 68.0764 120.985 67.5017C121.696 66.9269 122.284 66.2134 122.713 65.4041C123.142 64.5948 123.404 63.7065 123.481 62.7931C123.559 61.8796 123.451 60.9598 123.164 60.0893C122.878 59.2188 122.419 58.4156 121.814 57.7283L122.44 57.1738C123.406 58.2735 124.037 59.6299 124.255 61.0802C124.473 62.5306 124.269 64.0133 123.668 65.3503C123.067 66.6874 122.095 67.8219 120.868 68.6178C119.64 69.4136 118.21 69.837 116.749 69.837Z" fill="#3F3D56"/>
<path d="M122.589 116.813H63.5352V121H122.589V116.813Z" fill="#3F3D56"/>
<path d="M108.117 67.6094C108.412 67.491 108.668 67.2919 108.856 67.0349C109.044 66.7778 109.156 66.473 109.18 66.1551C109.204 65.8371 109.139 65.5187 108.992 65.236C108.845 64.9533 108.623 64.7176 108.349 64.5556L104.823 62.4678L102.32 63.8076L106.376 67.3175C106.612 67.5215 106.899 67.6566 107.206 67.7081C107.513 67.7596 107.828 67.7254 108.117 67.6094Z" fill="#FFB9B9"/>
<path d="M80.4669 82.3976L82.8023 83.7374L97.2233 73.081C97.7521 72.7182 98.2005 72.2495 98.5403 71.7044C98.8801 71.1594 99.104 70.5496 99.1979 69.9135C99.3151 69.1093 99.2217 68.2883 98.9269 67.5314C98.632 66.7744 98.1458 66.1076 97.5162 65.5966C94.3315 62.9998 90.3955 60.6444 86.2221 58.3652L80.0498 61.3798C82.5935 66.616 85.4172 70.9332 89.5584 70.9257L80.4669 82.3976Z" fill="#14B8A6"/>
<path d="M79.4481 85.8086C81.3858 87.7794 83.9374 89.1895 86.7874 90.327C87.0022 90.4124 87.2381 90.4289 87.4627 90.3741C87.6872 90.3194 87.8893 90.1961 88.0411 90.0212C88.2255 89.809 88.3236 89.5349 88.3159 89.2534C88.3082 88.9719 88.1953 88.7036 87.9996 88.5019L86.1521 86.5979L85.0359 82.6068C82.639 83.7963 81.0674 83.53 80.7575 81.0381L79.2467 83.1065C78.9547 83.5074 78.8146 83.9996 78.8515 84.4948C78.8884 84.99 79.1 85.4559 79.4481 85.8086Z" fill="#2F2E41"/>
<path d="M72.9608 103.499L76.4639 103.666L84.4712 62.3003L70.7087 57.8623C69.3347 63.0197 71.3748 71.4616 74.9626 81.3923L72.9608 103.499Z" fill="#14B8A6"/>
<path d="M99.9015 35.2534C102.942 35.2534 105.406 32.7791 105.406 29.7268C105.406 26.6745 102.942 24.2002 99.9015 24.2002C96.8612 24.2002 94.3965 26.6745 94.3965 29.7268C94.3965 32.7791 96.8612 35.2534 99.9015 35.2534Z" fill="#FFB9B9"/>
<path d="M89.8086 36.51L93.3118 39.0221L98.6499 33.6629L95.9809 30.3135L89.8086 36.51Z" fill="#FFB9B9"/>
<path d="M70.124 58.2814C74.4443 61.8158 79.1621 64.1391 84.9708 63.1381C86.7261 60.3208 88.0221 54.3861 90.2256 51.8336C95.0375 46.2596 97.424 41.2912 95.8974 36.761C94.4133 35.787 94.4786 35.7886 93.3951 32.5742C84.908 34.1506 76.6915 43.769 70.124 58.2814Z" fill="#E5E7EB"/>
<path d="M72.9043 106.946C75.3978 108.13 78.2764 108.575 81.3422 108.662C81.5731 108.668 81.8004 108.603 81.9926 108.474C82.1847 108.345 82.3324 108.16 82.4153 107.943C82.516 107.68 82.5145 107.389 82.4111 107.127C82.3076 106.865 82.1099 106.652 81.8571 106.53L79.4711 105.378L77.0588 102.014C75.2138 103.956 73.6466 104.248 72.504 102.014L71.7917 104.477C71.6544 104.954 71.691 105.465 71.8949 105.917C72.0988 106.37 72.4567 106.734 72.9043 106.946Z" fill="#2F2E41"/>
<path d="M101.986 64.9802L105.156 62.6356L98.1493 50.2426L96.1225 39.2549C95.9889 38.531 95.6071 37.8768 95.0432 37.4059C94.4794 36.9351 93.7691 36.6772 93.0357 36.6772C92.5561 36.6772 92.0828 36.7876 91.6522 36.9998C91.2217 37.212 90.8453 37.5205 90.5519 37.9015C90.2586 38.2825 90.0561 38.7259 89.9601 39.1977C89.864 39.6694 89.8769 40.157 89.9978 40.623L93.1447 52.7547L101.986 64.9802Z" fill="#E5E7EB"/>
<path d="M86.0557 90.3525H84.2207V100.401H86.0557V90.3525Z" fill="#3F3D56"/>
<path d="M104.259 28.1242C104.474 28.3835 104.751 28.5849 105.063 28.7103C105.376 28.8356 105.714 28.8809 106.048 28.8421C106.711 28.7384 107.301 28.1709 107.343 27.4989C107.38 26.9187 107.04 26.3865 106.684 25.9283C105.897 24.9179 104.963 24.0326 103.913 23.3024C103.412 22.9544 102.86 22.634 102.252 22.5965C101.951 22.5779 101.65 22.63 101.349 22.617C100.795 22.5931 100.276 22.3526 99.7362 22.2281C99.1818 22.1041 98.6073 22.1011 98.0515 22.2193C97.4958 22.3375 96.9719 22.5742 96.5152 22.9133C96.2106 23.1469 95.9352 23.4165 95.6947 23.7161C95.0298 24.5326 94.5838 25.5062 94.3993 26.5445C94.109 28.1902 94.4713 29.9951 93.6836 31.4675C94.6079 31.3809 95.349 30.6733 96.2271 30.3709C96.8786 30.1488 97.586 30.1551 98.2335 30.3888C98.4003 30.4747 98.5883 30.51 98.7748 30.4905C98.9288 30.4359 99.0634 30.3371 99.1619 30.2063L100.841 28.3721C101.183 27.9988 101.571 27.6011 102.073 27.5494C102.373 27.539 102.672 27.5984 102.945 27.723C103.618 27.9785 104.269 28.2892 104.892 28.6518" fill="#2F2E41"/>
<path d="M101.069 66.4038L100.568 66.7387L103.905 70.0882L105.907 68.246L102.57 65.5664L101.069 66.4038Z" fill="#3F3D56"/>
<path d="M66.3141 12H25V54.915H66.3141V12Z" fill="#E5E7EB"/>
<path d="M64.1085 14.291H27.2051V52.624H64.1085V14.291Z" fill="white"/>
<path d="M34.3848 53.2939H35.6991L35.6908 52.7627L35.6683 51.5843L35.4599 39.4681L35.4571 39.4115L35.3501 33.2207L35.0884 18.1714H35.0293L34.7506 33.3309L34.6408 39.4144L34.638 39.471L34.3848 53.2939Z" fill="#E5E7EB"/>
<path d="M38.8951 51.0699L38.4062 50.1377L34.8984 51.9917L35.3873 52.9239L38.8951 51.0699Z" fill="#E5E7EB"/>
<path d="M46.5197 13.1475H44.8516V53.676H46.5197V13.1475Z" fill="#E5E7EB"/>
<path d="M66.3141 32.5742H25V34.249H66.3141V32.5742Z" fill="#E5E7EB"/>
</g>
<defs>
<clipPath id="clip0_1267_34596">
<rect width="128.5" height="109" fill="white" transform="translate(25 12)"/>
</clipPath>
</defs>
</svg>
