<svg width="121" height="30" viewBox="0 0 121 30" fill="none" xmlns="http://www.w3.org/2000/svg">
<path d="M12 6H6V18L12 12V6Z" fill="#6B7280"/>
<path d="M20 18L14 24V6H20V18Z" fill="#6B7280"/>
<path d="M12 18L6 24L6 18H12Z" fill="#6B7280"/>
<path d="M32 21V9H34.8648V13.8479H39.5354V9H42.3944V21H39.5354V16.1464H34.8648V21H32Z" fill="#6B7280"/>
<path d="M46.6142 21H43.5352L47.5344 9H51.3484L55.3476 21H52.2686L49.4848 12.1027H49.3922L46.6142 21Z" fill="#6B7280"/>
<path d="M66.5702 9V21H64.1395L59.4226 14.0989H59.3474V21H56.4825V9H58.948L63.6128 15.8897H63.7112V9H66.5702Z" fill="#6B7280"/>
<path d="M78.9895 13.3916H76.0957C76.0571 13.0989 75.978 12.8346 75.8584 12.5989C75.7388 12.3631 75.5806 12.1616 75.3838 11.9943C75.1871 11.827 74.9536 11.6996 74.6836 11.6122C74.4173 11.5209 74.1222 11.4753 73.7981 11.4753C73.2232 11.4753 72.7274 11.6141 72.3107 11.8916C71.8978 12.1692 71.5795 12.5703 71.3557 13.0951C71.1358 13.6198 71.0258 14.2548 71.0258 15C71.0258 15.7757 71.1377 16.4259 71.3615 16.9506C71.5891 17.4715 71.9075 17.865 72.3164 18.1312C72.7293 18.3935 73.2174 18.5247 73.7807 18.5247C74.0971 18.5247 74.3845 18.4848 74.643 18.4049C74.9054 18.3251 75.135 18.2091 75.3318 18.057C75.5324 17.9011 75.6964 17.7129 75.8237 17.4924C75.9549 17.2681 76.0456 17.0152 76.0957 16.7338L78.9895 16.751C78.9393 17.2681 78.7869 17.7776 78.5323 18.2795C78.2815 18.7814 77.9362 19.2395 77.4963 19.654C77.0564 20.0646 76.5201 20.3916 75.8874 20.635C75.2585 20.8783 74.5369 21 73.7228 21C72.6502 21 71.6895 20.7681 70.8406 20.3042C69.9956 19.8365 69.3281 19.1559 68.8381 18.2624C68.3481 17.3688 68.1031 16.2814 68.1031 15C68.1031 13.7148 68.352 12.6255 68.8497 11.7319C69.3474 10.8384 70.0207 10.1597 70.8696 9.69582C71.7184 9.23194 72.6695 9 73.7228 9C74.4405 9 75.1041 9.09886 75.7137 9.29658C76.3234 9.49049 76.8597 9.77567 77.3227 10.1521C77.7857 10.5247 78.1619 10.9829 78.4512 11.5266C78.7406 12.0703 78.92 12.692 78.9895 13.3916Z" fill="#6B7280"/>
<path d="M80.4876 21V9H83.3525V13.8479H88.023V9H90.8821V21H88.023V16.1464H83.3525V21H80.4876Z" fill="#6B7280"/>
<path d="M95.1018 21H92.0228L96.022 9H99.836L103.835 21H100.756L97.9724 12.1027H97.8798L95.1018 21Z" fill="#6B7280"/>
<path d="M112.141 9H115V16.6939C115 17.5646 114.79 18.3232 114.369 18.9696C113.949 19.6122 113.362 20.1103 112.61 20.4639C111.857 20.8137 110.983 20.9886 109.988 20.9886C108.981 20.9886 108.101 20.8137 107.349 20.4639C106.596 20.1103 106.012 19.6122 105.595 18.9696C105.179 18.3232 104.97 17.5646 104.97 16.6939V9H107.835V16.4487C107.835 16.8517 107.924 17.211 108.101 17.5266C108.283 17.8422 108.535 18.0894 108.859 18.2681C109.184 18.4468 109.56 18.5361 109.988 18.5361C110.416 18.5361 110.791 18.4468 111.111 18.2681C111.435 18.0894 111.688 17.8422 111.869 17.5266C112.05 17.211 112.141 16.8517 112.141 16.4487V9Z" fill="#6B7280"/>
</svg>
