<svg width="143" height="135" viewBox="0 0 143 135" fill="none" xmlns="http://www.w3.org/2000/svg">
<path d="M68.25 18H50.25V54L68.25 36V18Z" fill="#111827"/>
<path d="M92.25 54L74.25 72V18H92.25V54Z" fill="#111827"/>
<path d="M68.25 54L50.25 72L50.25 54H68.25Z" fill="#111827"/>
<path d="M9 121.5V103.5H13.2973V110.772H20.3031V103.5H24.5916V121.5H20.3031V114.22H13.2973V121.5H9Z" fill="#111827"/>
<path d="M30.9213 121.5H26.3028L32.3016 103.5H38.0226L44.0214 121.5H39.4029L35.2272 108.154H35.0883L30.9213 121.5Z" fill="#111827"/>
<path d="M60.8554 103.5V121.5H57.2092L50.1339 111.148H50.0211V121.5H45.7238V103.5H49.4221L56.4192 113.835H56.5668V103.5H60.8554Z" fill="#111827"/>
<path d="M79.4842 110.087H75.1436C75.0857 109.648 74.9671 109.252 74.7876 108.898C74.6082 108.545 74.3709 108.242 74.0758 107.991C73.7806 107.74 73.4305 107.549 73.0253 107.418C72.626 107.281 72.1832 107.213 71.6971 107.213C70.8347 107.213 70.091 107.421 69.466 107.837C68.8467 108.254 68.3692 108.856 68.0336 109.643C67.7037 110.43 67.5387 111.382 67.5387 112.5C67.5387 113.663 67.7066 114.639 68.0423 115.426C68.3837 116.207 68.8612 116.798 69.4747 117.197C70.0939 117.59 70.8261 117.787 71.671 117.787C72.1456 117.787 72.5768 117.727 72.9646 117.607C73.3581 117.488 73.7025 117.314 73.9976 117.086C74.2986 116.852 74.5446 116.569 74.7355 116.239C74.9323 115.902 75.0683 115.523 75.1436 115.101L79.4842 115.126C79.409 115.902 79.1804 116.666 78.7984 117.419C78.4222 118.172 77.9042 118.859 77.2444 119.481C76.5847 120.097 75.7802 120.587 74.8311 120.952C73.8877 121.317 72.8054 121.5 71.5842 121.5C69.9753 121.5 68.5342 121.152 67.2609 120.456C65.9935 119.755 64.9922 118.734 64.2572 117.394C63.5222 116.053 63.1547 114.422 63.1547 112.5C63.1547 110.572 63.528 108.938 64.2746 107.598C65.0212 106.258 66.0311 105.24 67.3043 104.544C68.5776 103.848 70.0042 103.5 71.5842 103.5C72.6607 103.5 73.6562 103.648 74.5706 103.945C75.485 104.236 76.2895 104.663 76.984 105.228C77.6785 105.787 78.2428 106.474 78.6769 107.29C79.1109 108.106 79.3801 109.038 79.4842 110.087Z" fill="#111827"/>
<path d="M81.7314 121.5V103.5H86.0287V110.772H93.0345V103.5H97.3231V121.5H93.0345V114.22H86.0287V121.5H81.7314Z" fill="#111827"/>
<path d="M103.653 121.5H99.0342L105.033 103.5H110.754L116.753 121.5H112.134L107.959 108.154H107.82L103.653 121.5Z" fill="#111827"/>
<path d="M129.211 103.5H133.5V115.041C133.5 116.347 133.185 117.485 132.554 118.454C131.923 119.418 131.043 120.165 129.915 120.696C128.786 121.221 127.475 121.483 125.982 121.483C124.471 121.483 123.152 121.221 122.023 120.696C120.895 120.165 120.018 119.418 119.393 118.454C118.768 117.485 118.455 116.347 118.455 115.041V103.5H122.753V114.673C122.753 115.278 122.886 115.817 123.152 116.29C123.424 116.763 123.803 117.134 124.289 117.402C124.775 117.67 125.34 117.804 125.982 117.804C126.624 117.804 127.186 117.67 127.666 117.402C128.152 117.134 128.531 116.763 128.803 116.29C129.075 115.817 129.211 115.278 129.211 114.673V103.5Z" fill="#111827"/>
</svg>
