<svg width="358" height="266" viewBox="0 0 358 266" fill="none" xmlns="http://www.w3.org/2000/svg">
<g clip-path="url(#clip0_1267_34565)">
<path d="M267.653 230.487L285.094 204.48L267.689 233.285L267.725 236.212C266.452 236.222 265.191 236.2 263.943 236.148L264.808 198.53L264.784 198.24L264.816 198.184L264.899 194.629L245.799 166.823L264.876 191.969L264.944 192.72L265.597 164.298L249.1 135.469L265.644 159.306L265.471 100.423L265.472 100.227L265.477 100.42L266.573 146.827L281.608 127.976L266.622 150.825L266.95 176.248L280.785 151.436L267.001 179.985L267.183 194.121L287.304 159.559L267.245 199.053L267.653 230.487Z" fill="#E6E6E6"/>
<path d="M326.349 231.307L343.79 205.3L326.385 234.105L326.422 237.031C325.148 237.041 323.887 237.02 322.639 236.967L323.504 199.35L323.48 199.059L323.512 199.003L323.595 195.449L304.495 167.642L323.572 192.788L323.64 193.539L324.293 165.118L307.796 136.289L324.34 160.125L324.168 101.242L324.168 101.046L324.174 101.239L325.269 147.646L340.304 128.796L325.318 151.644L325.646 177.067L339.482 152.255L325.697 180.804L325.88 194.941L346 160.379L325.941 199.872L326.349 231.307Z" fill="#E6E6E6"/>
<path d="M149.906 24H45.5381V165.556H149.906V24Z" fill="#E6E6E6"/>
<path d="M146.228 28.9883H49.2158V160.568H146.228V28.9883Z" fill="white"/>
<path d="M133.477 52.0668H62.278C61.7013 52.066 61.1485 51.8358 60.7409 51.4266C60.3334 51.0174 60.1045 50.4628 60.1045 49.8845C60.1045 49.3062 60.3334 48.7515 60.7409 48.3423C61.1485 47.9332 61.7013 47.7029 62.278 47.7022H133.477C133.763 47.7018 134.046 47.7579 134.31 47.8674C134.575 47.9769 134.815 48.1376 135.017 48.3403C135.22 48.543 135.38 48.7837 135.49 49.0487C135.599 49.3136 135.656 49.5976 135.656 49.8845C135.656 50.1713 135.599 50.4553 135.49 50.7203C135.38 50.9852 135.22 51.2259 135.017 51.4286C134.815 51.6313 134.575 51.792 134.31 51.9015C134.046 52.011 133.763 52.0672 133.477 52.0668Z" fill="#E6E6E6"/>
<path d="M133.477 74.5136H62.278C61.7013 74.5128 61.1485 74.2826 60.7409 73.8734C60.3334 73.4642 60.1045 72.9095 60.1045 72.3313C60.1045 71.753 60.3334 71.1983 60.7409 70.7891C61.1485 70.3799 61.7013 70.1497 62.278 70.1489H133.477C133.763 70.1486 134.046 70.2047 134.31 70.3142C134.575 70.4237 134.815 70.5844 135.017 70.7871C135.22 70.9898 135.38 71.2305 135.49 71.4954C135.599 71.7604 135.656 72.0444 135.656 72.3313C135.656 72.6181 135.599 72.9021 135.49 73.1671C135.38 73.432 135.22 73.6727 135.017 73.8754C134.815 74.0781 134.575 74.2388 134.31 74.3483C134.046 74.4578 133.763 74.514 133.477 74.5136Z" fill="#E6E6E6"/>
<path d="M133.477 96.9604H62.278C61.7013 96.9596 61.1485 96.7293 60.7409 96.3202C60.3334 95.911 60.1045 95.3563 60.1045 94.778C60.1045 94.1997 60.3334 93.6451 60.7409 93.2359C61.1485 92.8267 61.7013 92.5965 62.278 92.5957H133.477C133.763 92.5953 134.046 92.6515 134.31 92.761C134.575 92.8705 134.815 93.0312 135.017 93.2339C135.22 93.4366 135.38 93.6773 135.49 93.9422C135.599 94.2072 135.656 94.4912 135.656 94.778C135.656 95.0649 135.599 95.3489 135.49 95.6138C135.38 95.8788 135.22 96.1195 135.017 96.3222C134.815 96.5249 134.575 96.6856 134.31 96.7951C134.046 96.9046 133.763 96.9607 133.477 96.9604Z" fill="#E6E6E6"/>
<path d="M133.477 119.407H62.278C61.7013 119.406 61.1485 119.176 60.7409 118.767C60.3334 118.358 60.1045 117.803 60.1045 117.225C60.1045 116.647 60.3334 116.092 60.7409 115.683C61.1485 115.273 61.7013 115.043 62.278 115.042H133.477C133.763 115.042 134.046 115.098 134.31 115.208C134.575 115.317 134.815 115.478 135.017 115.681C135.22 115.883 135.38 116.124 135.49 116.389C135.599 116.654 135.656 116.938 135.656 117.225C135.656 117.512 135.599 117.796 135.49 118.061C135.38 118.326 135.22 118.566 135.017 118.769C134.815 118.972 134.575 119.132 134.31 119.242C134.046 119.351 133.763 119.408 133.477 119.407Z" fill="#E6E6E6"/>
<path d="M133.477 141.854H62.278C61.7013 141.853 61.1485 141.623 60.7409 141.214C60.3334 140.805 60.1045 140.25 60.1045 139.672C60.1045 139.093 60.3334 138.539 60.7409 138.129C61.1485 137.72 61.7013 137.49 62.278 137.489H133.477C133.763 137.489 134.046 137.545 134.31 137.655C134.575 137.764 134.815 137.925 135.017 138.127C135.22 138.33 135.38 138.571 135.49 138.836C135.599 139.101 135.656 139.385 135.656 139.672C135.656 139.958 135.599 140.242 135.49 140.507C135.38 140.772 135.22 141.013 135.017 141.216C134.815 141.418 134.575 141.579 134.31 141.689C134.046 141.798 133.763 141.854 133.477 141.854Z" fill="#E6E6E6"/>
<path d="M121.04 52.0668H61.9673C61.6813 52.0672 61.398 52.011 61.1336 51.9015C60.8692 51.792 60.6289 51.6313 60.4265 51.4286C60.2241 51.2259 60.0636 50.9852 59.954 50.7203C59.8445 50.4553 59.7881 50.1713 59.7881 49.8845C59.7881 49.5976 59.8445 49.3136 59.954 49.0487C60.0636 48.7837 60.2241 48.543 60.4265 48.3403C60.6289 48.1376 60.8692 47.9769 61.1336 47.8674C61.398 47.7579 61.6813 47.7018 61.9673 47.7022H121.04C121.617 47.7029 122.17 47.9332 122.577 48.3423C122.985 48.7515 123.214 49.3062 123.214 49.8845C123.214 50.4628 122.985 51.0174 122.577 51.4266C122.17 51.8358 121.617 52.066 121.04 52.0668Z" fill="#14B8A6"/>
<path d="M102.697 74.5136H61.9674C61.3902 74.5136 60.8366 74.2836 60.4285 73.8744C60.0203 73.4651 59.791 72.91 59.791 72.3313C59.791 71.7525 60.0203 71.1974 60.4285 70.7881C60.8366 70.3788 61.3902 70.1489 61.9674 70.1489H102.697C102.983 70.1486 103.266 70.2047 103.53 70.3142C103.795 70.4237 104.035 70.5844 104.237 70.7871C104.44 70.9898 104.6 71.2305 104.71 71.4954C104.82 71.7604 104.876 72.0444 104.876 72.3313C104.876 72.6181 104.82 72.9021 104.71 73.1671C104.6 73.432 104.44 73.6727 104.237 73.8754C104.035 74.0781 103.795 74.2388 103.53 74.3483C103.266 74.4578 102.983 74.514 102.697 74.5136Z" fill="#14B8A6"/>
<path d="M80.311 96.9604H61.9673C61.6813 96.9607 61.398 96.9046 61.1336 96.7951C60.8692 96.6856 60.6289 96.5249 60.4265 96.3222C60.2241 96.1195 60.0636 95.8788 59.954 95.6138C59.8445 95.3489 59.7881 95.0649 59.7881 94.778C59.7881 94.4912 59.8445 94.2072 59.954 93.9422C60.0636 93.6773 60.2241 93.4366 60.4265 93.2339C60.6289 93.0312 60.8692 92.8705 61.1336 92.761C61.398 92.6515 61.6813 92.5953 61.9673 92.5957H80.311C80.8878 92.5965 81.4406 92.8267 81.8481 93.2359C82.2557 93.6451 82.4846 94.1997 82.4846 94.778C82.4846 95.3563 82.2557 95.911 81.8481 96.3202C81.4406 96.7293 80.8878 96.9596 80.311 96.9604Z" fill="#14B8A6"/>
<path d="M126.637 119.407H61.9674C61.3902 119.407 60.8366 119.177 60.4285 118.768C60.0203 118.359 59.791 117.804 59.791 117.225C59.791 116.646 60.0203 116.091 60.4285 115.682C60.8366 115.272 61.3902 115.042 61.9674 115.042H126.637C127.214 115.042 127.768 115.272 128.176 115.682C128.584 116.091 128.813 116.646 128.813 117.225C128.813 117.804 128.584 118.359 128.176 118.768C127.768 119.177 127.214 119.407 126.637 119.407Z" fill="#14B8A6"/>
<path d="M112.335 141.854H61.9673C61.6813 141.854 61.398 141.798 61.1336 141.689C60.8692 141.579 60.6289 141.418 60.4265 141.216C60.2241 141.013 60.0636 140.772 59.954 140.507C59.8445 140.242 59.7881 139.958 59.7881 139.672C59.7881 139.385 59.8445 139.101 59.954 138.836C60.0636 138.571 60.2241 138.33 60.4265 138.127C60.6289 137.925 60.8692 137.764 61.1336 137.655C61.398 137.545 61.6813 137.489 61.9673 137.489H112.335C112.621 137.489 112.904 137.545 113.169 137.655C113.433 137.764 113.673 137.925 113.876 138.127C114.078 138.33 114.239 138.571 114.348 138.836C114.458 139.101 114.514 139.385 114.514 139.672C114.514 139.958 114.458 140.242 114.348 140.507C114.239 140.772 114.078 141.013 113.876 141.216C113.673 141.418 113.433 141.579 113.169 141.689C112.904 141.798 112.621 141.854 112.335 141.854Z" fill="#14B8A6"/>
<path d="M200.955 125.98C200.955 125.98 198.595 108.629 194.662 113.361C190.73 118.093 194.662 125.192 194.662 125.192L197.809 129.135L200.955 126.769V125.98Z" fill="#9F616A"/>
<path d="M210.393 131.501C210.393 131.501 202.528 122.826 200.954 124.403C199.381 125.981 194.662 126.769 195.449 129.924C196.235 133.079 212.753 143.332 212.753 143.332L210.393 131.501Z" fill="#14B8A6"/>
<path opacity="0.1" d="M210.393 131.501C210.393 131.501 202.528 122.826 200.954 124.403C199.381 125.981 194.662 126.769 195.449 129.924C196.235 133.079 212.753 143.332 212.753 143.332L210.393 131.501Z" fill="black"/>
<path d="M255.227 130.712V137.022C255.227 137.022 256.014 151.219 251.294 150.43C246.575 149.641 248.935 137.811 248.935 137.811L249.721 130.712L255.227 130.712Z" fill="#9F616A"/>
<path d="M252.867 176.457C252.867 176.457 259.946 187.499 262.306 188.288C264.666 189.076 277.25 196.175 278.823 203.273L289.835 217.469L284.329 224.568C284.329 224.568 259.16 197.752 252.081 195.386C245.002 193.02 237.923 181.189 237.923 181.189L252.867 176.457Z" fill="#9F616A"/>
<path d="M197.022 158.317C197.022 158.317 182.078 160.683 184.437 170.147C186.797 179.612 209.607 199.329 209.607 199.329L210.393 204.062L219.046 205.639L222.978 201.695L222.192 199.329C222.192 199.329 212.753 190.654 211.967 187.499C211.18 184.344 202.528 171.725 198.595 170.936L204.101 167.781L197.022 158.317Z" fill="#9F616A"/>
<path d="M287.475 217.47C287.475 217.47 284.329 212.737 289.048 213.526C293.767 214.315 296.913 215.104 296.913 218.258C296.913 221.413 292.981 243.497 288.261 241.919C283.542 240.342 287.475 233.244 287.475 233.244C287.475 233.244 285.115 226.934 283.542 226.145C281.969 225.357 281.969 221.413 283.542 221.413C285.115 221.413 288.261 219.047 287.475 217.47Z" fill="#2F2E41"/>
<path d="M220.618 200.118C220.618 200.118 220.618 196.175 223.764 200.118C226.911 204.062 228.484 207.217 225.338 209.583C222.191 211.949 211.18 217.47 211.18 217.47C211.18 217.47 199.381 219.836 200.954 214.315C200.954 214.315 208.82 210.372 208.82 207.217C208.82 204.062 208.82 198.541 211.18 200.118C213.539 201.696 220.618 202.485 220.618 200.118Z" fill="#2F2E41"/>
<path d="M235.563 140.966C235.563 140.966 246.574 142.543 245.788 158.317C245.788 158.317 259.946 172.514 256.013 177.246C252.08 181.978 243.428 190.654 240.282 188.288C237.136 185.922 227.697 167.782 227.697 167.782C227.697 167.782 205.674 175.669 201.741 171.725C197.808 167.782 193.875 158.317 193.875 158.317L213.539 148.064L235.563 140.966Z" fill="#2F2E41"/>
<path d="M204.887 96.0099C210.1 96.0099 214.326 91.7725 214.326 86.5455C214.326 81.3184 210.1 77.0811 204.887 77.0811C199.675 77.0811 195.449 81.3184 195.449 86.5455C195.449 91.7725 199.675 96.0099 204.887 96.0099Z" fill="#9F616A"/>
<path d="M211.966 87.334C211.966 87.334 217.472 96.0097 219.045 96.7984C220.618 97.5871 208.033 105.474 208.033 105.474C208.033 105.474 208.033 95.221 204.101 92.8549L211.966 87.334Z" fill="#9F616A"/>
<path d="M212.753 96.0096C212.753 96.0096 225.337 92.0661 227.697 98.3757C230.057 104.685 235.563 116.516 234.776 124.403C233.99 132.29 232.416 130.712 234.776 133.079C237.136 135.445 238.709 133.867 237.922 137.022C237.136 140.177 236.349 140.177 237.136 141.754C237.922 143.332 227.697 148.853 219.045 149.641L210.393 150.43C210.393 150.43 210.393 136.233 208.82 133.079C207.247 129.924 204.101 123.614 204.101 121.248V114.988C204.101 110.821 205.185 106.726 207.247 103.108C207.247 103.108 211.966 96.0096 212.753 96.0096Z" fill="#14B8A6"/>
<path d="M222.192 99.1646C222.192 99.1646 251.294 101.531 254.44 109.418C257.586 117.305 259.16 133.079 256.013 133.079C252.867 133.079 248.934 134.656 248.148 133.079C247.361 131.501 244.215 115.727 243.429 115.727C242.642 115.727 219.045 113.361 219.045 113.361C219.045 113.361 208.82 100.742 222.192 99.1646Z" fill="#14B8A6"/>
<path d="M204.508 84.1988C204.508 84.1988 202.003 79.8341 198.872 83.6252C195.742 87.4163 190.648 80.4495 191.43 78.9629C192.212 77.4763 194.973 79.0297 199.705 77.4787C204.437 75.9276 213.552 72.7677 215.079 83.0753C216.605 93.3829 212.969 92.3023 212.969 92.3023C212.969 92.3023 211.303 83.1687 209.797 85.7922L208.291 88.4158L206.984 88.7382L204.508 84.1988Z" fill="#2F2E41"/>
</g>
<defs>
<clipPath id="clip0_1267_34565">
<rect width="335" height="218" fill="white" transform="translate(11 24)"/>
</clipPath>
</defs>
</svg>
