<svg width="48" height="48" viewBox="0 0 48 48" fill="none" xmlns="http://www.w3.org/2000/svg">
<g clip-path="url(#clip0_2508_65656)">
<path fill-rule="evenodd" clip-rule="evenodd" d="M24 44C35.0457 44 44 35.0457 44 24C44 12.9543 35.0457 4 24 4C12.9543 4 4 12.9543 4 24C4 35.0457 12.9543 44 24 44ZM24 48C37.2548 48 48 37.2548 48 24C48 10.7452 37.2548 0 24 0C10.7452 0 0 10.7452 0 24C0 37.2548 10.7452 48 24 48Z" fill="#F3F4F6"/>
<path fill-rule="evenodd" clip-rule="evenodd" d="M24 3.99333C26.6273 3.99333 29.2289 4.51082 31.6562 5.51625C34.0835 6.52168 36.2891 7.99536 38.1469 9.85315C40.0046 11.7109 41.4783 13.9165 42.4838 16.3438C43.4892 18.7711 44.0067 21.3727 44.0067 24H48C48 21.2717 47.5348 18.5665 46.6274 16C46.4866 15.6017 46.3351 15.2068 46.1731 14.8156C44.967 11.9038 43.1992 9.25804 40.9706 7.02944C38.742 4.80083 36.0962 3.033 33.1844 1.82689C32.7932 1.66486 32.3983 1.5134 32 1.37258C29.4335 0.465191 26.7283 0 24 0L24 3.99333Z" fill="#14B8A6"/>
</g>
<defs>
<clipPath id="clip0_2508_65656">
<rect width="48" height="48" rx="24" fill="white"/>
</clipPath>
</defs>
</svg>
