<svg width="305" height="218" viewBox="0 0 305 218" fill="none" xmlns="http://www.w3.org/2000/svg">
<g clip-path="url(#clip0_1183_25392)">
<path opacity="0.1" d="M152.5 218C236.723 218 305 213.71 305 208.419C305 203.128 236.723 198.838 152.5 198.838C68.2766 198.838 0 203.128 0 208.419C0 213.71 68.2766 218 152.5 218Z" fill="#00BFA6"/>
<path d="M281.079 201.323C281.081 202.081 281.003 202.836 280.847 203.576C280.818 203.716 280.786 203.867 280.754 203.986C279.929 207.293 277.602 209.711 274.825 209.865C274.732 209.865 274.639 209.865 274.535 209.865C271.598 209.865 269.115 207.333 268.295 203.846C268.272 203.754 268.252 203.661 268.231 203.556C268.075 202.815 267.997 202.06 267.999 201.303C267.999 196.579 270.924 192.753 274.535 192.753C278.145 192.753 281.079 196.606 281.079 201.323Z" fill="#3F3D56"/>
<path opacity="0.1" d="M281.079 201.323C281.082 202.08 281.004 202.836 280.847 203.576C280.818 203.716 280.786 203.867 280.754 203.986C280.655 203.986 280.559 203.986 280.464 203.986C279.744 203.947 279.029 203.85 278.326 203.695C277.702 203.888 277.065 204.033 276.42 204.131C275.925 204.205 275.427 204.252 274.927 204.27H274.422C273.823 204.27 273.225 204.23 272.632 204.151C271.673 204.023 270.731 203.789 269.823 203.454C269.326 203.62 268.82 203.755 268.307 203.861C268.284 203.768 268.264 203.675 268.243 203.57C268.087 202.83 268.009 202.075 268.011 201.318C268.011 196.594 270.936 192.767 274.547 192.767C278.157 192.767 281.079 196.605 281.079 201.323Z" fill="black"/>
<path d="M295.022 185.399C295.025 183.321 294.537 181.272 293.599 179.418L285.913 181.807L292.661 177.841C291.529 176.207 290.045 174.847 288.318 173.863C286.59 172.878 284.663 172.294 282.68 172.154C282.364 171.676 282.017 171.218 281.643 170.784L270.605 174.218L279.659 168.899C277.927 167.571 275.894 166.691 273.741 166.334C271.587 165.978 269.379 166.158 267.311 166.858C265.244 167.558 263.38 168.756 261.886 170.346C260.392 171.937 259.313 173.871 258.745 175.978L268.2 186.859L257.943 179.441C255.342 181.282 253.49 183.996 252.724 187.088C251.959 190.18 252.33 193.444 253.772 196.285C255.213 199.126 257.628 201.354 260.576 202.564C263.525 203.773 266.809 203.883 269.832 202.874C272.566 203.875 275.553 203.957 278.337 203.106C280.279 203.535 282.292 203.524 284.228 203.072C286.164 202.62 287.974 201.74 289.525 200.495C291.075 199.251 292.326 197.675 293.186 195.884C294.046 194.092 294.493 192.13 294.494 190.143C294.494 189.852 294.494 189.562 294.464 189.272C294.841 188.015 295.029 186.71 295.022 185.399Z" fill="#00BFA6"/>
<path opacity="0.1" d="M294.793 187.864C290.734 187.093 286.571 187.04 282.494 187.707C277.878 188.47 273.161 190.149 268.647 188.92C265.998 188.2 263.709 186.534 261.121 185.611C258.624 184.738 255.934 184.576 253.351 185.143C252.365 187.497 252.079 190.085 252.526 192.597C252.973 195.109 254.134 197.439 255.871 199.309C257.608 201.179 259.847 202.51 262.32 203.142C264.793 203.774 267.396 203.681 269.818 202.874C272.552 203.875 275.538 203.957 278.323 203.106C280.264 203.535 282.277 203.524 284.213 203.072C286.15 202.62 287.96 201.74 289.51 200.495C291.061 199.251 292.312 197.675 293.172 195.884C294.032 194.092 294.479 192.13 294.479 190.143C294.479 189.852 294.479 189.562 294.45 189.272C294.59 188.809 294.705 188.339 294.793 187.864Z" fill="black"/>
<path d="M202.927 49.928H201.262C200.895 49.928 200.597 50.2256 200.597 50.5928V73.947C200.597 74.3142 200.895 74.6118 201.262 74.6118H202.927C203.294 74.6118 203.592 74.3142 203.592 73.947V50.5928C203.592 50.2256 203.294 49.928 202.927 49.928Z" fill="#3F3D56"/>
<path d="M102.262 30.5891H101.452C101.211 30.5891 101.016 30.7841 101.016 31.0246V38.28C101.016 38.5205 101.211 38.7154 101.452 38.7154H102.262C102.503 38.7154 102.698 38.5205 102.698 38.28V31.0246C102.698 30.7841 102.503 30.5891 102.262 30.5891Z" fill="#3F3D56"/>
<path d="M102.358 45.4685H101.446C101.175 45.4685 100.955 45.6882 100.955 45.9592V59.1227C100.955 59.3937 101.175 59.6134 101.446 59.6134H102.358C102.629 59.6134 102.849 59.3937 102.849 59.1227V45.9592C102.849 45.6882 102.629 45.4685 102.358 45.4685Z" fill="#3F3D56"/>
<path d="M102.32 64.5605H101.452C101.194 64.5605 100.984 64.7698 100.984 65.028V78.3599C100.984 78.6181 101.194 78.8274 101.452 78.8274H102.32C102.579 78.8274 102.788 78.6181 102.788 78.3599V65.028C102.788 64.7698 102.579 64.5605 102.32 64.5605Z" fill="#3F3D56"/>
<path d="M191.845 3.73657H112.336C106.61 3.73657 101.969 8.37574 101.969 14.0984V197.003C101.969 202.726 106.61 207.365 112.336 207.365H191.845C197.571 207.365 202.212 202.726 202.212 197.003V14.0984C202.212 8.37574 197.571 3.73657 191.845 3.73657Z" fill="#3F3D56"/>
<path d="M155.681 9.81616H143.158C142.751 9.81616 142.42 10.1463 142.42 10.5536V11.9211C142.42 12.3283 142.751 12.6585 143.158 12.6585H155.681C156.088 12.6585 156.418 12.3283 156.418 11.9211V10.5536C156.418 10.1463 156.088 9.81616 155.681 9.81616Z" fill="#E6E8EC"/>
<path d="M160.148 12.8472C161.039 12.8472 161.76 12.1258 161.76 11.2358C161.76 10.3459 161.039 9.62451 160.148 9.62451C159.258 9.62451 158.536 10.3459 158.536 11.2358C158.536 12.1258 159.258 12.8472 160.148 12.8472Z" fill="#E6E8EC"/>
<path d="M196.022 16.996V194.097C196.021 196.207 195.182 198.231 193.689 199.722C192.196 201.214 190.171 202.052 188.06 202.052H116.121C114.01 202.052 111.985 201.214 110.492 199.722C108.999 198.231 108.16 196.207 108.159 194.097V16.996C108.159 15.951 108.365 14.9162 108.765 13.9507C109.165 12.9852 109.752 12.1079 110.491 11.3689C111.23 10.63 112.108 10.0438 113.074 9.64385C114.04 9.24392 115.075 9.03809 116.121 9.03809H126.886V10.4201C126.889 12.1562 127.581 13.8202 128.81 15.0471C130.039 16.2739 131.705 16.9633 133.442 16.9641H170.042C170.903 16.9641 171.755 16.7946 172.551 16.4653C173.346 16.136 174.069 15.6533 174.678 15.0448C175.287 14.4364 175.77 13.714 176.099 12.919C176.428 12.124 176.598 11.2719 176.598 10.4113V9.03809H188.075C190.184 9.04193 192.205 9.88205 193.695 11.374C195.185 12.866 196.022 14.888 196.022 16.996Z" fill="white"/>
<path opacity="0.2" d="M196.652 90.1272V150.35H196.022V150.411H108.159V76.8359C108.722 76.1933 109.294 75.5265 109.873 74.8355C122.212 60.1071 138.984 56.2312 151.966 55.8247C160.86 55.5344 169.714 57.3722 178.167 61.0216C182.631 62.9494 189.039 65.063 196.022 65.2721V88.0397C196.449 89.2562 196.652 90.1272 196.652 90.1272Z" fill="#00BFA6"/>
<path opacity="0.2" d="M196.652 90.1271V150.35H108.159V110.9C111.311 110.108 115.711 107.059 121.358 98.6367C128.112 88.5594 137.288 85.9086 144.39 85.6299C149.256 85.4383 154.101 86.6867 158.725 89.1865C163.927 91.994 173.955 95.3792 181.574 85.5515C189.998 74.6845 194.477 83.647 196.022 88.0397C196.449 89.2561 196.652 90.1271 196.652 90.1271Z" fill="#00BFA6"/>
<path d="M183.872 139.321H120.548C118.623 139.321 117.062 140.88 117.062 142.805V157.902C117.062 159.826 118.623 161.386 120.548 161.386H183.872C185.797 161.386 187.357 159.826 187.357 157.902V142.805C187.357 140.88 185.797 139.321 183.872 139.321Z" fill="#736E9E"/>
<path d="M38.9413 198.504L44.501 195.227C43.7491 193.943 42.788 192.794 41.6572 191.827L31.1681 195.099L39.3886 190.268C37.3537 189.154 35.0636 188.588 32.7437 188.627C30.4237 188.667 28.154 189.309 26.1578 190.491C24.1617 191.673 22.5079 193.354 21.3593 195.369C20.2107 197.384 19.6068 199.664 19.6072 201.983C19.6072 209.36 25.5881 209.615 32.9691 209.615C40.3501 209.615 46.331 209.36 46.331 201.983C46.3336 200.116 45.9426 198.27 45.1836 196.565L38.9413 198.504Z" fill="#00BFA6"/>
<path opacity="0.1" d="M40.3558 205.678C39.7641 205.085 39.1028 204.566 38.3864 204.131C37.3755 203.46 36.3327 202.778 35.1418 202.549C34.0961 202.348 33.0184 202.517 31.9465 202.459C30.0972 202.345 28.3565 201.547 27.0636 200.22C26.3055 199.436 25.7071 198.478 24.795 197.871C23.8103 197.227 22.5612 197.088 21.3935 197.247C21.0551 197.298 20.7197 197.367 20.3885 197.453C19.8643 198.907 19.5969 200.44 19.5984 201.985C19.5984 209.363 25.5793 209.618 32.9603 209.618C36.5419 209.618 39.7923 209.557 42.1916 208.651L41.7908 207.902C41.4084 207.103 40.9263 206.356 40.3558 205.678Z" fill="black"/>
<path d="M66.2982 169.059C65.8736 169.432 65.5465 169.902 65.3454 170.43C64.8487 171.98 66.2372 173.501 66.3708 175.124C66.4754 176.413 65.7899 177.615 65.4006 178.852C64.9614 180.388 64.9898 182.021 65.4823 183.541C65.9748 185.061 66.909 186.4 68.166 187.388C68.4336 187.615 68.7495 187.778 69.0897 187.864C69.3704 187.898 69.655 187.874 69.9262 187.794C70.1974 187.714 70.4495 187.58 70.667 187.399C71.3415 186.909 71.8559 186.23 72.1455 185.448C72.3865 184.68 72.5166 183.881 72.5318 183.076L72.7381 179.97C72.953 176.727 73.1476 173.382 72.3575 170.197C72.099 169.152 71.6197 166.751 70.4113 166.606C69.203 166.461 67.0999 168.275 66.2982 169.059Z" fill="#3F3D56"/>
<path d="M86.5619 155.716C85.1109 160.808 84.0591 166.007 83.4161 171.263C83.3231 172.003 83.2272 172.781 82.7799 173.379C81.8882 174.578 80.1017 174.503 78.6203 174.308C78.2647 174.29 77.918 174.19 77.6065 174.018C77.0488 173.64 76.9268 172.886 76.86 172.215C75.8453 162.328 75.1675 152.415 74.8267 142.476C74.8121 142.096 87.2271 142.061 88.2902 143.057C89.3534 144.053 88.5284 147.778 88.2902 149.047C87.901 151.305 87.1981 153.506 86.5619 155.716Z" fill="#FBBEBE"/>
<path opacity="0.05" d="M86.5619 155.716C85.1109 160.808 84.0591 166.007 83.4161 171.263C83.3231 172.003 83.2272 172.781 82.7799 173.379C81.8882 174.578 80.1017 174.503 78.6203 174.308C78.2647 174.29 77.918 174.19 77.6065 174.018C77.0488 173.64 76.9268 172.886 76.86 172.215C75.8453 162.328 75.1675 152.415 74.8267 142.476C74.8121 142.096 87.2271 142.061 88.2902 143.057C89.3534 144.053 88.5284 147.778 88.2902 149.047C87.901 151.305 87.1981 153.506 86.5619 155.716Z" fill="black"/>
<path d="M60.7095 141.063L65.7376 152.115C67.4108 155.791 69.0955 159.507 69.8943 163.464C70.2148 165.118 70.4196 166.791 70.5072 168.473C70.6286 169.914 70.5838 171.365 70.3736 172.796C70.1906 173.858 69.8537 174.892 69.7055 175.96C69.1246 180.219 71.5384 184.226 73.1912 188.189C74.6193 191.593 75.5279 195.191 75.8869 198.864C76.0379 200.429 76.1221 202.09 77.0168 203.382C78.6522 202.891 80.2498 202.467 81.9549 202.659C82.2599 200.159 80.6797 197.857 80.0988 195.401C79.0327 190.901 81.3885 186.171 80.5868 181.616C80.151 179.148 78.8003 176.825 78.9107 174.323C79.1169 169.759 79.9739 165.148 79.1024 160.677C78.1206 155.623 75.2972 151.027 74.6727 145.917C74.1934 141.992 74.9631 137.651 72.7759 134.353C67.9975 134.071 63.0565 136.891 60.7095 141.063Z" fill="#FBBEBE"/>
<path d="M77.2348 210.475C76.7322 210.492 76.1455 210.475 75.8347 210.077C75.683 209.845 75.5958 209.578 75.5819 209.302C75.344 207.551 75.2275 205.787 75.2334 204.021C75.2334 203.376 75.2624 202.691 75.6226 202.16C75.8869 201.835 76.1881 201.543 76.5202 201.289C77.2899 200.577 77.8506 199.547 78.844 199.218C79.2792 199.092 79.7407 199.086 80.1791 199.201C80.6175 199.316 81.0164 199.548 81.3334 199.872C81.9602 200.54 82.3483 201.396 82.4372 202.308C82.5824 203.388 82.4604 204.563 83.0327 205.501C83.2592 205.864 83.5758 206.16 83.8315 206.503C84.7029 207.664 85.4843 209.937 83.6862 210.408C81.7807 210.904 79.2129 210.411 77.2348 210.475Z" fill="#3F3D56"/>
<path d="M81.5948 75.6511C82.6115 73.6885 82.0044 71.1626 80.552 69.4961C79.0997 67.8296 76.9763 66.9006 74.8093 66.3983C71.9046 65.7189 68.7907 65.7248 66.0108 66.7932C63.7945 67.6438 61.886 69.1158 59.8411 70.3178C56.2272 72.4441 52.1824 73.7338 48.0042 74.0921C43.3566 74.484 38.1658 73.8743 34.5726 76.8328C27.9904 82.2503 32.5741 94.4587 26.4392 100.37C24.7835 101.964 22.573 102.826 20.6762 104.124C18.7794 105.422 17.083 107.497 17.388 109.774C17.5332 110.868 18.1316 111.855 18.8229 112.718C21.7916 116.425 26.7762 118.367 31.4906 117.79C36.205 117.212 40.5215 114.187 42.8192 110.023C43.4001 108.981 43.8707 107.84 44.7857 107.082C46.6186 105.57 49.3084 106.182 51.6845 106.11C56.9683 105.947 61.7669 101.421 62.2288 96.1542C62.4263 93.9042 62.0429 91.2854 63.6609 89.706C64.9651 88.4285 67.0042 88.4402 68.7878 88.0482C72.0643 87.3311 74.4491 84.962 75.9451 82.0703C76.6306 80.7406 76.5609 79.2541 77.5776 78.1509C78.661 76.9373 80.6276 77.5151 81.5948 75.6511Z" fill="#3F3D56"/>
<g opacity="0.1">
<path d="M43.6731 75.0126C45.6003 74.8484 47.5053 74.4855 49.3577 73.9297C48.8349 74.0023 48.312 74.0632 47.7863 74.1068C44.1437 74.4116 40.1584 74.1068 36.876 75.3871C39.1126 75.1578 41.4568 75.1984 43.6731 75.0126Z" fill="black"/>
<path d="M40.4314 108.003C39.5164 108.758 39.0342 109.901 38.4649 110.944C36.7045 114.115 33.8855 116.568 30.5 117.874C30.7585 117.856 31.017 117.833 31.2756 117.801C35.99 117.221 40.3065 114.201 42.6041 110.038C43.1851 108.996 43.6528 107.852 44.5707 107.097L44.7275 106.975C43.1328 106.937 41.6049 107.033 40.4314 108.003Z" fill="black"/>
<path d="M80.334 69.5137C78.8817 67.8472 76.7438 66.9211 74.5913 66.4159C71.6866 65.7365 68.5727 65.7453 65.7899 66.8137L65.604 66.8892C67.2411 66.796 68.8831 66.9418 70.4782 67.3218C72.6306 67.8269 74.7714 68.7531 76.2209 70.4225C77.6704 72.0919 78.2804 74.6148 77.2637 76.5775C76.2964 78.4414 74.3299 77.8607 73.2232 79.0656C72.2065 80.1659 72.2762 81.6553 71.5907 82.985C70.3039 85.4732 68.3548 87.5694 65.7521 88.5652C66.6613 88.3503 67.6373 88.2545 68.5436 88.0571C71.8202 87.3371 74.205 84.9709 75.7009 82.0792C76.3894 80.7495 76.3197 79.2601 77.3334 78.1598C78.4431 76.9549 80.4096 77.5326 81.374 75.6716C82.3906 73.7148 81.7835 71.1889 80.334 69.5137Z" fill="black"/>
<path d="M64.4334 88.9657C62.6499 89.3548 60.6107 89.3461 59.3065 90.6206C57.6885 92.2029 58.072 94.8217 57.8744 97.0717C57.5288 101.006 54.7605 104.527 51.179 106.127H51.4433C56.7271 105.965 61.5228 101.435 61.9847 96.1717C62.1851 93.9188 61.8017 91.3 63.4196 89.7206C63.7904 89.367 64.2265 89.0889 64.7035 88.9019L64.4334 88.9657Z" fill="black"/>
</g>
<path d="M81.6819 102.074C81.4408 102.501 80.9441 102.699 80.4822 102.87C75.701 104.629 70.67 106.421 65.6273 105.68C65.4385 104.888 65.2526 104.092 65.0667 103.299C64.7975 102.15 64.5264 101 64.2533 99.8504C64.1255 99.3016 63.9948 98.7471 63.8902 98.1897C63.7101 97.3095 63.6524 96.4088 63.7189 95.5128C63.7496 95.1882 63.8079 94.8667 63.8931 94.5518C64.0424 93.9791 64.2922 93.4375 64.631 92.9521C64.6891 92.8737 64.7501 92.7954 64.814 92.7199C65.1012 92.3737 65.4498 92.0833 65.8422 91.8634C66.6992 91.3931 67.8756 91.1927 68.2212 90.2811C68.355 89.8044 68.3418 89.2985 68.1835 88.8294C67.893 87.6681 67.3672 86.5765 67.0419 85.4268C66.6294 83.9751 67.2511 84.0651 68.6541 83.7138C71.1812 83.078 73.8245 82.6222 76.4185 83.1332C76.2965 84.4135 76.1774 85.7258 76.4998 86.9742C76.8222 88.2227 77.685 89.4072 78.9253 89.7527C79.1083 89.805 79.3029 89.8369 79.5062 89.8804C79.7756 89.9237 80.0312 90.0291 80.2528 90.1882C80.4056 90.3144 80.527 90.4744 80.6071 90.6556C80.7334 90.962 80.8165 91.2845 80.8541 91.6137C81.3091 94.6602 81.6374 97.7213 81.8388 100.797V100.913C81.8985 101.307 81.8441 101.71 81.6819 102.074Z" fill="#FBBEBE"/>
<path d="M57.0668 97.0719C55.9805 98.7239 55.6145 100.733 55.2833 102.684L53.1745 114.907C52.884 116.579 52.6255 118.417 53.4824 119.883C53.7728 120.38 54.1795 120.809 54.3916 121.335C54.5518 121.864 54.6569 122.407 54.7053 122.958C55.1991 125.759 57.9557 127.649 60.721 128.329C61.7203 128.576 62.888 128.671 63.6752 128.007C64.5466 127.284 64.5466 125.907 64.0325 124.915C63.5183 123.922 62.5801 123.219 61.6709 122.554L58.6587 120.336L60.4015 106.981C60.5293 106.011 60.9825 104.754 61.9643 104.861C62.8589 104.957 63.5474 106.261 64.3433 105.84C64.5927 105.671 64.7683 105.414 64.8342 105.12C65.1828 104.025 65.0869 102.847 64.9881 101.7L64.6279 97.5597C64.5088 96.2154 64.8545 95.208 65.0172 93.9451C65.206 92.4731 64.2242 92.9202 63.0129 93.2366C60.6862 93.8521 58.4117 95.0222 57.0668 97.0719Z" fill="#FBBEBE"/>
<path d="M94.5237 117.145C94.3024 117.517 93.9746 117.815 93.5826 117.999C91.2307 119.324 88.4649 119.713 85.8385 119.087C85.2332 118.91 84.6184 118.766 83.9969 118.658C83.0035 118.536 81.9926 118.733 80.9905 118.658C78.9571 118.504 77.1707 117.235 75.7619 115.754C74.9137 114.883 74.1439 113.458 74.934 112.523C75.1547 112.297 75.4289 112.131 75.731 112.04C76.0332 111.949 76.3536 111.935 76.6624 112C77.2774 112.137 77.8707 112.358 78.4256 112.657C80.3696 113.557 82.4495 114.13 84.5807 114.352C86.0331 114.503 87.8806 114.256 88.3831 112.877C88.6271 112.207 88.4557 111.463 88.2843 110.769C87.8157 108.869 87.347 106.967 86.8784 105.064C86.8462 104.898 86.7873 104.739 86.7041 104.591C86.6803 104.551 86.652 104.514 86.6199 104.481C86.4347 104.327 86.2106 104.226 85.9721 104.191C84.8886 103.924 83.8052 103.491 83.0296 102.693C82.5213 102.126 82.1162 101.474 81.8328 100.768C81.7515 100.591 81.676 100.411 81.5976 100.23C81.0021 98.8427 80.3747 97.4201 79.8896 95.9627C79.5509 94.9775 79.3011 93.9641 79.143 92.9345C79.0152 92.0432 78.9455 91.6338 79.4335 91.239C79.5643 91.1403 79.7033 91.0529 79.8489 90.9777C80.0726 90.8587 80.3253 90.7396 80.5925 90.6264L80.851 90.519C81.6456 90.2014 82.462 89.9413 83.2939 89.7409C85.3098 89.2735 87.4623 90.249 88.8449 91.7906C90.2276 93.3323 90.9451 95.3501 91.404 97.3679C91.863 99.3856 92.0983 101.453 92.6734 103.439C92.8971 104.217 93.1759 104.983 93.3676 105.761C93.5734 106.687 93.7199 107.625 93.8063 108.569C94.0793 110.975 94.3514 113.381 94.6225 115.786C94.7227 116.239 94.6884 116.711 94.5237 117.145Z" fill="#FBBEBE"/>
<path d="M64.6977 116.1C65.2787 119.805 63.6085 123.448 61.9934 126.842C62.9084 127.51 64.0267 127.841 65.1189 128.128C72.429 130.049 80.0283 130.621 87.5437 129.815C87.7238 128.561 87.8923 127.231 87.3781 126.076C87.0586 125.359 86.5067 124.775 86.1552 124.072C85.5743 122.911 85.6324 121.561 85.6963 120.272L86.2162 109.289C82.6114 107.628 78.4314 109.184 74.4664 109.408C72.4128 109.524 70.333 109.274 68.3084 109.637C67.2568 109.826 63.9512 110.346 63.4545 111.429C62.9578 112.512 64.5206 114.921 64.6977 116.1Z" fill="#FBBEBE"/>
<path opacity="0.05" d="M64.6977 116.1C65.2787 119.805 63.6085 123.448 61.9934 126.842C62.9084 127.51 64.0267 127.841 65.1189 128.128C72.429 130.049 80.0283 130.621 87.5437 129.815C87.7238 128.561 87.8923 127.231 87.3781 126.076C87.0586 125.359 86.5067 124.775 86.1552 124.072C85.5743 122.911 85.6324 121.561 85.6963 120.272L86.2162 109.289C82.6114 107.628 78.4314 109.184 74.4664 109.408C72.4128 109.524 70.333 109.274 68.3084 109.637C67.2568 109.826 63.9512 110.346 63.4545 111.429C62.9578 112.512 64.5206 114.921 64.6977 116.1Z" fill="black"/>
<path d="M74.2486 126.732C70.3417 125.919 66.5016 124.575 62.5134 124.482C62.3131 124.462 62.1112 124.5 61.9324 124.592C61.7378 124.753 61.6078 124.979 61.5664 125.228C61.1539 126.651 60.785 128.084 60.4597 129.528C59.3791 134.327 58.8475 139.628 61.2236 143.937C61.2004 142.538 62.0805 141.228 63.257 140.453C64.4334 139.678 65.8422 139.364 67.2365 139.236C68.6308 139.109 70.1209 139.161 71.4194 139.733C72.3267 140.145 73.1096 140.789 73.6894 141.599C74.2691 142.409 74.6253 143.358 74.7221 144.349L88.4471 144.793C88.5274 144.817 88.6123 144.82 88.6941 144.802C88.7759 144.785 88.852 144.747 88.9155 144.692C88.979 144.638 89.0278 144.568 89.0576 144.49C89.0874 144.412 89.0972 144.328 89.0861 144.245C89.5921 139.844 89.5736 135.399 89.0309 131.003C88.8799 129.775 88.8596 128.07 87.4769 127.609C85.827 127.057 83.2185 127.702 81.4553 127.626C79.0328 127.524 76.6225 127.225 74.2486 126.732Z" fill="#3F3D56"/>
<path d="M86.7072 105.224L86.6637 111.321L72.7789 111.783C70.2314 111.87 67.6636 111.957 65.1801 112.523C64.4655 112.686 63.7596 112.889 63.0567 113.089C62.3247 110.409 61.6043 107.602 61.796 104.87C61.849 104.133 61.9775 103.403 62.1794 102.692C62.621 101.16 63.4488 99.7137 63.8903 98.1982C64.0683 97.6081 64.166 96.9968 64.1808 96.3807C64.1479 95.7655 64.0505 95.1553 63.8903 94.5603C63.763 94.0724 63.7024 93.5694 63.7102 93.0651L64.8112 92.7255C64.8431 92.8561 64.8692 92.9839 64.8925 93.1174C64.939 93.3932 64.9767 93.6748 65.0029 93.9565C65.065 94.6543 65.0845 95.3553 65.061 96.0556C65.0232 97.4549 64.8344 99.014 65.7087 100.12C66.8445 101.54 69.0289 101.319 70.8124 100.965L75.4832 100.033C76.9589 99.7427 78.6059 99.3305 79.3756 98.0385C79.7041 97.4111 79.8774 96.7143 79.8811 96.0062V95.8668C79.9506 94.3248 79.797 92.7807 79.425 91.2825C79.3117 90.8122 79.1723 90.3477 79.0154 89.8918H79.4831C79.7525 89.9351 80.0081 90.0405 80.2296 90.1996C80.3825 90.3258 80.5038 90.4858 80.584 90.667L80.8425 90.5596C81.8731 94.7704 83.5716 98.7891 85.8736 102.463C86.1696 102.884 86.4043 103.344 86.5707 103.831C86.6398 104.094 86.6788 104.365 86.6869 104.638C86.7102 104.809 86.7072 105.015 86.7072 105.224Z" fill="#FF6F61"/>
<path d="M72.0381 86.7708C76.6904 86.7708 80.4619 83.0012 80.4619 78.3512C80.4619 73.7012 76.6904 69.9316 72.0381 69.9316C67.3857 69.9316 63.6143 73.7012 63.6143 78.3512C63.6143 83.0012 67.3857 86.7708 72.0381 86.7708Z" fill="#FBBEBE"/>
<path d="M57.0668 97.0717C55.9805 98.7237 55.6145 100.733 55.2833 102.684L53.1745 114.907C52.884 116.579 52.6255 118.417 53.4824 119.883C53.7728 120.379 54.1795 120.809 54.3916 121.335C54.5518 121.863 54.6569 122.407 54.7053 122.957C55.1991 125.759 57.9557 127.649 60.721 128.329C61.7203 128.575 62.888 128.671 63.6752 128.006C64.5466 127.283 64.5466 125.907 64.0325 124.914C63.5183 123.921 62.5801 123.219 61.6709 122.554L58.6587 120.336L60.4015 106.981C60.5177 106.02 58.4117 95.022 57.0668 97.0717Z" fill="#FBBEBE"/>
<path d="M91.4069 97.3853C91.8659 99.4031 92.1012 101.47 92.6763 103.456C92.9 104.237 93.1788 105.001 93.3706 105.779C93.5763 106.703 93.7228 107.64 93.8092 108.583L94.6254 115.801C94.7194 116.247 94.6842 116.71 94.5238 117.136C94.3016 117.508 93.974 117.805 93.5826 117.99C91.2296 119.312 88.4651 119.701 85.8385 119.079C85.2339 118.898 84.6189 118.755 83.9969 118.649C83.0035 118.524 81.9926 118.725 80.9905 118.649C78.9571 118.495 77.1707 117.229 75.7619 115.76C74.9137 114.889 74.1439 113.461 74.934 112.526C75.1547 112.3 75.4289 112.134 75.7311 112.043C76.0332 111.952 76.3536 111.938 76.6624 112.003C77.2775 112.141 77.8708 112.363 78.4256 112.662C80.3702 113.561 82.4499 114.133 84.5807 114.355C86.0331 114.509 87.8806 114.262 88.3831 112.88C88.6271 112.21 88.4557 111.466 88.2843 110.772L86.8784 105.067C86.8203 104.87 90.948 95.3704 91.4069 97.3853Z" fill="#FBBEBE"/>
<path d="M66.8239 80.9439C66.4492 79.5997 65.9235 77.9187 66.9779 77.0071C67.3568 76.7147 67.8134 76.54 68.2908 76.5048C70.6582 76.2144 73.1069 77.608 75.3727 76.8648C76.0953 76.6288 76.7342 76.1887 77.2122 75.5978C77.6902 75.0068 77.9869 74.2903 78.0665 73.5345C78.146 72.7788 78.005 72.0162 77.6605 71.3388C77.316 70.6613 76.7827 70.0981 76.125 69.7169C75.1345 69.1362 73.9522 69.023 72.8106 68.9214C69.8042 68.6456 66.67 68.3901 63.8582 69.502C61.0464 70.614 58.6761 73.4766 59.257 76.4409C59.5272 77.8548 60.4015 79.0713 61.2904 80.1978C61.973 81.0542 64.7122 85.1334 65.8131 85.0753C67.3642 84.9882 67.0679 81.8178 66.8239 80.9439Z" fill="#3F3D56"/>
<path opacity="0.1" d="M76.1252 69.7169C75.9574 69.62 75.7826 69.5356 75.6024 69.4644C76.1124 69.9269 76.492 70.5153 76.7031 71.1705C76.9143 71.8258 76.9496 72.525 76.8054 73.1981C76.6613 73.8713 76.3429 74.4948 75.882 75.0064C75.4211 75.5179 74.8338 75.8995 74.179 76.1129C71.9133 76.8562 69.4646 75.4626 67.0972 75.7529C66.6198 75.7881 66.1632 75.9628 65.7843 76.2552C64.7298 77.1668 65.2556 78.8478 65.6303 80.192C65.8743 81.063 66.1706 84.2363 64.6253 84.3234H64.5991C65.0784 84.7909 65.5112 85.0957 65.8191 85.0783C67.3644 84.9912 67.0682 81.8208 66.8242 80.9469C66.4494 79.6027 65.9237 77.9217 66.9781 77.01C67.3571 76.7176 67.8136 76.543 68.2911 76.5078C70.6585 76.2174 73.1072 77.611 75.3729 76.8678C76.0956 76.6317 76.7345 76.1917 77.2125 75.6008C77.6905 75.0098 77.9871 74.2932 78.0667 73.5375C78.1462 72.7818 78.0052 72.0192 77.6607 71.3417C77.3162 70.6643 76.7829 70.101 76.1252 69.7198V69.7169Z" fill="black"/>
<path d="M199.848 174.45H105.152V203.774H199.848V174.45Z" fill="#3F3D56"/>
<path d="M148.433 183.927V194.292L156.567 189.109L148.433 183.927Z" fill="white"/>
<path d="M75.8142 9.90898L71.3061 12.7658L74.0423 7.79248C73.2668 7.17379 72.3069 6.8315 71.3148 6.81987H71.2421C70.9289 6.82445 70.6159 6.80113 70.3068 6.7502L68.7789 7.71699L69.4354 6.52664C68.3514 6.14975 67.4155 5.438 66.763 4.49433L64.0267 6.23631L65.755 3.09785C64.1545 1.17876 61.9992 0.00292969 59.6289 0.00292969C56.7851 0.00292969 54.2522 1.69265 52.6168 4.32594C52.1332 5.11662 51.4479 5.76455 50.6312 6.2033C49.8145 6.64206 48.8958 6.85585 47.9692 6.82278H47.8152C44.6752 6.82278 42.1306 10.3793 42.1306 14.7691C42.1306 19.1589 44.6752 22.7154 47.8152 22.7154C48.506 22.7122 49.1857 22.5419 49.7963 22.219C50.8645 21.6993 52.033 21.4182 53.2208 21.3952C54.4086 21.3721 55.5872 21.6076 56.6748 22.0854C57.595 22.4969 58.5917 22.7096 59.5999 22.7096C60.608 22.7096 61.6047 22.4969 62.525 22.0854C63.6049 21.6175 64.7729 21.3872 65.9497 21.4103C67.1265 21.4333 68.2846 21.7091 69.3453 22.219C69.9496 22.5351 70.6211 22.7014 71.3031 22.7038C74.4432 22.7038 76.9878 19.1444 76.9878 14.7575C77.0093 13.0686 76.6058 11.4013 75.8142 9.90898Z" fill="#F2F2F2"/>
<path opacity="0.03" d="M67.3148 21.5366C65.6774 21.2262 63.9847 21.4101 62.4523 22.065C61.5318 22.4755 60.5351 22.6877 59.5272 22.6877C58.5192 22.6877 57.5225 22.4755 56.6021 22.065C55.5141 21.5882 54.3355 21.3535 53.1478 21.377C51.9601 21.4006 50.7918 21.6819 49.7236 22.2014C49.1127 22.5231 48.433 22.6924 47.7425 22.695C44.954 22.695 42.6331 19.8875 42.1509 16.1829C42.7068 15.7756 43.18 15.2662 43.5452 14.6819C45.1805 12.0457 47.7135 10.356 50.5573 10.356C53.401 10.356 55.902 12.0254 57.5287 14.6325C58.0182 15.4167 58.7018 16.0614 59.5134 16.5043C60.325 16.9473 61.2371 17.1736 62.1618 17.1613H62.2344C64.4565 17.1613 66.3795 18.941 67.3148 21.5366Z" fill="black"/>
<path d="M230.057 74.6642L227.809 76.0897L229.174 73.6074C228.787 73.2995 228.309 73.1289 227.815 73.1225H227.777C227.621 73.1251 227.466 73.1144 227.312 73.0906L226.536 73.5783L226.865 72.9832C226.325 72.7959 225.858 72.4421 225.531 71.9728L224.166 72.8438L225.038 71.2789C224.675 70.811 224.212 70.4296 223.684 70.1624C223.155 69.8953 222.574 69.7491 221.982 69.7344C220.564 69.7344 219.301 70.5763 218.496 71.8915C218.254 72.2863 217.911 72.6097 217.503 72.8286C217.095 73.0474 216.635 73.1539 216.172 73.137H216.097C214.531 73.137 213.262 74.9139 213.262 77.1C213.262 79.2862 214.531 81.066 216.097 81.066C216.441 81.0645 216.78 80.9798 217.084 80.8192C217.617 80.5599 218.2 80.4194 218.792 80.4074C219.384 80.3953 219.972 80.5121 220.515 80.7495C220.971 80.9559 221.466 81.0638 221.967 81.066C222.467 81.0642 222.962 80.9594 223.42 80.7582C223.958 80.5248 224.541 80.4097 225.127 80.4207C225.714 80.4317 226.292 80.5686 226.821 80.8221C227.122 80.9808 227.457 81.0644 227.797 81.066C229.363 81.066 230.632 79.2891 230.632 77.1C230.649 76.2526 230.451 75.4146 230.057 74.6642Z" fill="#F2F2F2"/>
<path opacity="0.03" d="M225.807 80.465C224.99 80.3081 224.144 80.4002 223.379 80.7292C222.922 80.9328 222.427 81.0381 221.927 81.0381C221.426 81.0381 220.931 80.9328 220.474 80.7292C219.932 80.4921 219.344 80.3752 218.752 80.3868C218.16 80.3983 217.577 80.5379 217.044 80.7959C216.74 80.9578 216.401 81.0435 216.056 81.0456C214.665 81.0456 213.509 79.6433 213.268 77.7968C213.545 77.594 213.781 77.3397 213.962 77.0478C214.778 75.7326 216.042 74.8906 217.448 74.8906C218.853 74.8906 220.114 75.7239 220.933 77.0216C221.177 77.4163 221.52 77.7407 221.927 77.9631C222.335 78.1856 222.793 78.2983 223.257 78.2904H223.292C224.381 78.2817 225.343 79.1701 225.807 80.465Z" fill="black"/>
<path d="M235.033 37.6442L238.644 39.9349L236.448 35.9486C237.069 35.4541 237.838 35.1804 238.632 35.1706H238.69C238.941 35.1743 239.192 35.1558 239.439 35.1154L240.665 35.8906L240.14 34.9383C241.006 34.6344 241.755 34.0656 242.28 33.3124L244.473 34.7002L243.088 32.186C244.369 30.6472 246.097 29.7065 247.997 29.7065C250.277 29.7065 252.305 31.0595 253.615 33.1702C254.002 33.8018 254.55 34.3196 255.203 34.671C255.855 35.0223 256.589 35.1947 257.33 35.1706H257.452C259.967 35.1706 262.007 38.0216 262.007 41.5375C262.007 45.0534 259.973 47.9044 257.452 47.9044C256.899 47.9016 256.355 47.7651 255.866 47.5067C255.009 47.0891 254.071 46.8632 253.118 46.8447C252.165 46.8261 251.219 47.0154 250.347 47.3992C249.61 47.7284 248.811 47.8986 248.004 47.8986C247.197 47.8986 246.399 47.7284 245.661 47.3992C244.797 47.0238 243.861 46.8388 242.918 46.8568C241.975 46.8748 241.048 47.0955 240.198 47.5038C239.712 47.7564 239.173 47.8897 238.626 47.8928C236.111 47.8928 234.071 45.0418 234.071 41.5259C234.062 40.172 234.393 38.8374 235.033 37.6442Z" fill="#F2F2F2"/>
<path opacity="0.03" d="M241.839 46.9608C243.153 46.7105 244.513 46.8581 245.743 47.3846C246.48 47.7138 247.278 47.8839 248.086 47.8839C248.893 47.8839 249.691 47.7138 250.428 47.3846C251.301 47.002 252.247 46.8136 253.2 46.8327C254.153 46.8517 255.09 47.0777 255.947 47.495C256.436 47.7525 256.981 47.8879 257.533 47.8898C259.767 47.8898 261.626 45.6397 262.015 42.6639C261.567 42.3392 261.187 41.9299 260.897 41.459C259.587 39.3512 257.557 37.9954 255.279 37.9954C253.002 37.9954 250.995 39.3338 249.685 41.4213C249.293 42.0507 248.746 42.5685 248.095 42.9245C247.445 43.2806 246.714 43.4628 245.972 43.4536H245.914C244.131 43.4565 242.588 44.882 241.839 46.9608Z" fill="black"/>
</g>
<defs>
<clipPath id="clip0_1183_25392">
<rect width="305" height="218" fill="white"/>
</clipPath>
</defs>
</svg>
