<svg width="313" height="218" viewBox="0 0 313 218" fill="none" xmlns="http://www.w3.org/2000/svg">
<g clip-path="url(#clip0_1183_25169)">
<path d="M82.8025 21.2191L90.8184 28.7742L87.1404 33.9545L78.9498 25.6653C78.5947 25.6412 78.2371 25.5658 77.8872 25.4327C75.9838 24.7087 75.028 22.579 75.7522 20.6761C76.4764 18.7732 78.6064 17.8175 80.5098 18.5415C81.7236 19.0033 82.5494 20.0374 82.8025 21.2191Z" fill="#FFB6B6"/>
<path d="M56.5277 211.292L62.3104 211.291L65.0613 188.991L56.5265 188.992L56.5277 211.292Z" fill="#FFB6B6"/>
<path d="M56.3241 217.323L74.1069 217.323V217.098C74.1066 213.276 71.0078 210.178 67.1853 210.178L63.9367 207.714L57.8762 210.178L56.3239 210.178L56.3241 217.323Z" fill="#2F2E41"/>
<path d="M70.0063 205.187L75.4265 207.202L85.7809 187.259L77.7814 184.285L70.0063 205.187Z" fill="#FFB6B6"/>
<path d="M67.7124 210.769L84.3797 216.966L84.4581 216.756C85.7905 213.174 83.9665 209.19 80.3838 207.857L78.1981 204.416L71.6586 204.613L70.2036 204.072L67.7124 210.769Z" fill="#2F2E41"/>
<path d="M80.9583 95.856L92.6943 162.59L81.6918 204.025L71.4228 199.991L72.8898 196.691L70.6893 192.291L73.9901 170.291L73.9951 156.23L64.8213 128.123L62.2541 174.324L66.2883 197.424L65.5288 204.025L53.4521 205.491L54.9191 200.724L47.2174 177.624L48.6844 173.224L38.4154 119.323L40.9826 102.089L80.9583 95.856Z" fill="#2F2E41"/>
<path d="M46.3005 30.0381H60.9214L65.3714 37.3716L70.1392 36.2715L72.5548 37.3716L83.3421 39.5716L80.0414 59.0053L79.3079 81.3723L79.6746 90.9058C83.5306 93.7226 82.5353 97.6045 81.6801 101.934C81.6801 101.934 44.8335 112.008 38.9655 108.791V104.633L42.4496 76.7889L29.6134 45.255C29.0502 40.938 33.612 39.7717 37.8652 38.8382L42.2662 37.3715L46.3005 30.0381Z" fill="#00BFA6"/>
<path d="M80.0415 42.1384L83.3422 39.5716L90.8519 42.1384L88.11 37.7383V35.6176L83.709 34.4382L83.3422 31.1382L80.0415 28.5498L85.4467 22.3135L89.3936 25.6395L91.7774 25.6381L95.058 28.9179L106.819 44.9726C109.319 48.3859 108.6 53.2747 105.085 55.6305C103.733 56.5364 102.109 57.172 100.213 57.172H79.4163L80.0415 42.1384Z" fill="#00BFA6"/>
<path d="M54.9942 27.7444C61.0628 27.7444 65.9823 22.8259 65.9823 16.7586C65.9823 10.6912 61.0628 5.77271 54.9942 5.77271C48.9257 5.77271 44.0061 10.6912 44.0061 16.7586C44.0061 22.8259 48.9257 27.7444 54.9942 27.7444Z" fill="#FFB6B6"/>
<path d="M33.8726 115.032L33.6119 104.021L39.8824 102.994L39.7438 114.646C39.9763 114.915 40.1741 115.222 40.3254 115.565C41.1484 117.427 40.3054 119.604 38.4427 120.427C36.5799 121.249 34.4027 120.407 33.5797 118.544C33.0549 117.357 33.2099 116.042 33.8726 115.032Z" fill="#FFB6B6"/>
<path d="M33.6875 41.7364C31.2137 41.5946 29.2136 43.724 29.5105 46.1835L23.5095 79.6137L22.5552 81.6226L23.6496 82.7526L23.8798 85.3431L33.0167 109.469L44.4345 109.892L40.181 59.4187L37.2242 44.4216C36.7012 42.8907 35.3029 41.8291 33.6875 41.7364Z" fill="#00BFA6"/>
<path d="M45.2739 109.563C45.3836 117.49 41.9731 119.183 36.4719 117.525C31.8177 116.121 27.6699 114.423 27.6699 109.563C27.6699 104.702 30.4991 97.5148 36.4719 99.9244C41.816 96.991 47.9547 103.943 45.2739 109.563Z" fill="#FF6584"/>
<path d="M36.155 100.122C35.4527 98.8438 35.4044 97.2824 36.0569 95.9737C36.6382 94.808 37.7891 93.9401 39.0578 93.6671C39.7482 93.5185 40.0432 94.5787 39.3503 94.7278C38.3647 94.9399 37.7878 98.9938 37.3152 99.8894C36.8067 100.853 36.5852 98.6207 37.1051 99.5668C37.4462 100.188 36.4964 100.743 36.155 100.122Z" fill="#3F3D56"/>
<path d="M89.2838 13.8609C89.2838 18.7211 85.9831 23.4816 80.4818 21.823C75.8277 20.4197 69.8965 21.0014 74.5075 12.8057C68.3594 9.73232 74.5091 1.81309 80.4818 4.22265C85.8259 1.28927 89.2838 9.00072 89.2838 13.8609Z" fill="#FF6584"/>
<path d="M80.165 4.42023C78.0243 4.92103 79.1246 5.13659 80.0669 2.32089C80.4802 1.08565 81.7991 0.287259 83.0677 0.0142348C83.7581 -0.134348 84.0532 0.92583 83.3602 1.07496C82.3746 1.28707 81.5279 1.90575 81.0552 2.80136C80.5468 3.76487 80.5951 2.91895 81.115 3.86503C81.4561 4.48584 80.5064 5.04151 80.165 4.42023Z" fill="#3F3D56"/>
<path d="M27.7988 209.121C26.7403 209.188 26.1554 207.873 26.9562 207.107L27.0358 206.79C27.0253 206.765 27.0148 206.739 27.0042 206.714C25.9338 204.162 22.3061 204.18 21.2448 206.735C20.3028 209.004 19.1035 211.276 18.8082 213.674C18.6759 214.733 18.7354 215.811 18.9704 216.85C16.7632 212.03 15.6017 206.766 15.6017 201.473C15.6017 200.143 15.6745 198.813 15.8234 197.486C15.9459 196.401 16.1146 195.322 16.333 194.254C17.5144 188.477 20.0723 182.975 23.762 178.38C25.5357 177.41 27.0148 175.895 27.9083 174.079C28.2293 173.424 28.4808 172.719 28.5999 172.001C28.398 172.028 27.8388 168.954 27.991 168.765C27.7097 168.339 27.2062 168.127 26.899 167.71C25.3711 165.639 23.2659 166.001 22.167 168.815C19.8193 170 19.7966 171.964 21.2371 173.854C22.1536 175.056 22.2795 176.683 23.0836 177.969C23.0009 178.075 22.9148 178.178 22.8321 178.284C21.315 180.229 20.0029 182.32 18.8968 184.517C19.2094 182.076 18.7479 179.134 17.9611 177.238C17.0654 175.078 15.3866 173.259 13.9083 171.391C12.1325 169.148 8.49116 170.127 8.1783 172.971C8.17527 172.998 8.17233 173.026 8.16943 173.053C8.38902 173.177 8.60415 173.309 8.81428 173.448C10.0129 174.24 9.59865 176.098 8.17844 176.317L8.14628 176.322C8.22571 177.113 8.36138 177.897 8.55991 178.668C6.66334 186.001 10.7579 188.671 16.6043 188.791C16.7334 188.857 16.8592 188.924 16.9882 188.987C16.3959 190.654 15.9227 192.364 15.5719 194.098C15.2576 195.63 15.0391 197.178 14.9167 198.733C14.7645 200.695 14.7777 202.667 14.9432 204.625L14.9333 204.556C14.513 202.399 13.3416 200.384 11.6407 198.988C9.10687 196.907 5.52707 196.141 2.79353 194.468C1.47768 193.663 -0.208483 194.703 0.0211669 196.228L0.0323461 196.301C0.439361 196.467 0.836442 196.659 1.22031 196.874C1.43989 196.998 1.65501 197.129 1.86515 197.268C3.06376 198.061 2.64952 199.918 1.22931 200.138L1.19712 200.143C1.17396 200.146 1.1541 200.149 1.13097 200.153C1.8292 201.81 2.80205 203.348 4.0198 204.675C5.20567 211.077 10.299 211.684 15.7473 209.82H15.7506C16.3462 212.414 17.2165 214.948 18.335 217.363H27.5674C27.6005 217.26 27.6303 217.154 27.6601 217.052C26.8064 217.105 25.946 217.055 25.1055 216.9C25.7905 216.059 26.4754 215.212 27.1604 214.372C27.177 214.356 27.1902 214.339 27.2034 214.322C27.5509 213.892 27.9017 213.466 28.2491 213.036L28.2493 213.035C28.271 211.715 28.1125 210.399 27.7988 209.121Z" fill="#F2F2F2"/>
<path d="M131.061 217.39C131.061 217.728 130.789 218 130.451 218H0.681458C0.343331 218 0.0717773 217.728 0.0717773 217.39C0.0717773 217.052 0.343331 216.781 0.681458 216.781H130.451C130.789 216.781 131.061 217.052 131.061 217.39Z" fill="#CCCCCC"/>
<path d="M229.15 87.9439C229.15 87.3789 228.69 86.9194 228.125 86.9194H212.243C211.678 86.9194 211.218 87.3789 211.218 87.9439C211.218 88.5089 211.678 88.9684 212.243 88.9684H228.125C228.69 88.9684 229.15 88.5089 229.15 87.9439Z" fill="#F2F2F2"/>
<path d="M255.279 88.0503C255.279 87.4853 254.82 87.0259 254.255 87.0259H238.372C237.807 87.0259 237.347 87.4853 237.347 88.0503C237.347 88.6153 237.807 89.0748 238.372 89.0748H254.255C254.82 89.0748 255.279 88.6153 255.279 88.0503Z" fill="#F2F2F2"/>
<path d="M281.408 88.1568C281.408 87.5918 280.949 87.1323 280.384 87.1323H264.501C263.936 87.1323 263.477 87.5918 263.477 88.1568C263.477 88.7218 263.936 89.1812 264.501 89.1812H280.384C280.949 89.1812 281.408 88.7218 281.408 88.1568Z" fill="#F2F2F2"/>
<path d="M255.279 111.101C255.279 110.536 254.82 110.076 254.255 110.076H238.372C237.807 110.076 237.347 110.536 237.347 111.101C237.347 111.666 237.807 112.125 238.372 112.125H254.255C254.82 112.125 255.279 111.666 255.279 111.101Z" fill="#F2F2F2"/>
<path d="M203.021 111.101C203.021 110.536 202.561 110.076 201.996 110.076H186.114C185.549 110.076 185.089 110.536 185.089 111.101C185.089 111.666 185.549 112.125 186.114 112.125H201.996C202.561 112.125 203.021 111.666 203.021 111.101Z" fill="#F2F2F2"/>
<path d="M229.15 111.207C229.15 110.642 228.69 110.183 228.125 110.183H212.243C211.678 110.183 211.218 110.642 211.218 111.207C211.218 111.772 211.678 112.232 212.243 112.232H228.125C228.69 112.232 229.15 111.772 229.15 111.207Z" fill="#F2F2F2"/>
<path d="M255.279 134.663C255.279 134.098 254.82 133.639 254.255 133.639H238.372C237.807 133.639 237.347 134.098 237.347 134.663C237.347 135.228 237.807 135.688 238.372 135.688H254.255C254.82 135.688 255.279 135.228 255.279 134.663Z" fill="#F2F2F2"/>
<path d="M281.408 134.77C281.408 134.205 280.949 133.745 280.384 133.745H264.501C263.936 133.745 263.477 134.205 263.477 134.77C263.477 135.335 263.936 135.794 264.501 135.794H280.384C280.949 135.794 281.408 135.335 281.408 134.77Z" fill="#F2F2F2"/>
<path d="M176.892 134.557C176.892 133.992 176.432 133.532 175.867 133.532H159.985C159.42 133.532 158.96 133.992 158.96 134.557C158.96 135.122 159.42 135.581 159.985 135.581H175.867C176.432 135.581 176.892 135.122 176.892 134.557Z" fill="#F2F2F2"/>
<path d="M203.021 134.663C203.021 134.098 202.561 133.639 201.996 133.639H186.114C185.549 133.639 185.089 134.098 185.089 134.663C185.089 135.228 185.549 135.688 186.114 135.688H201.996C202.561 135.688 203.021 135.228 203.021 134.663Z" fill="#F2F2F2"/>
<path d="M229.15 134.77C229.15 134.205 228.69 133.745 228.125 133.745H212.243C211.678 133.745 211.218 134.205 211.218 134.77C211.218 135.335 211.678 135.794 212.243 135.794H228.125C228.69 135.794 229.15 135.335 229.15 134.77Z" fill="#F2F2F2"/>
<path d="M220.314 83.0113C223.841 83.0113 226.7 80.2133 226.7 76.7618C226.7 73.3102 223.841 70.5122 220.314 70.5122C216.788 70.5122 213.929 73.3102 213.929 76.7618C213.929 80.2133 216.788 83.0113 220.314 83.0113Z" fill="#F2F2F2"/>
<path d="M219.844 79.3422L219.829 79.342C219.659 79.3372 219.503 79.2487 219.412 79.1054L217.247 75.7118C217.095 75.4732 217.165 75.1566 217.404 75.0045C217.642 74.8532 217.959 74.9225 218.111 75.1611L219.869 77.9171L223.172 73.3233C223.337 73.0934 223.658 73.0416 223.887 73.2062C224.117 73.3713 224.169 73.6914 224.004 73.921L220.26 79.1289C220.163 79.2629 220.008 79.3422 219.844 79.3422Z" fill="white"/>
<path d="M247.468 83.0113C250.995 83.0113 253.854 80.2133 253.854 76.7618C253.854 73.3102 250.995 70.5122 247.468 70.5122C243.942 70.5122 241.083 73.3102 241.083 76.7618C241.083 80.2133 243.942 83.0113 247.468 83.0113Z" fill="#F2F2F2"/>
<path d="M246.997 79.3422L246.983 79.342C246.813 79.3372 246.657 79.2487 246.565 79.1054L244.401 75.7118C244.249 75.4732 244.319 75.1566 244.558 75.0045C244.796 74.8532 245.113 74.9225 245.265 75.1611L247.023 77.9171L250.326 73.3233C250.491 73.0934 250.812 73.0416 251.041 73.2062C251.27 73.3713 251.323 73.6914 251.158 73.921L247.413 79.1289C247.317 79.2629 247.162 79.3422 246.997 79.3422Z" fill="white"/>
<path d="M272.573 82.4991C276.099 82.4991 278.958 79.7011 278.958 76.2496C278.958 72.798 276.099 70 272.573 70C269.046 70 266.187 72.798 266.187 76.2496C266.187 79.7011 269.046 82.4991 272.573 82.4991Z" fill="#F2F2F2"/>
<path d="M272.102 78.83L272.088 78.8298C271.918 78.825 271.761 78.7365 271.67 78.5932L269.505 75.1996C269.353 74.961 269.423 74.6444 269.662 74.4923C269.9 74.341 270.217 74.4103 270.37 74.6489L272.127 77.4049L275.43 72.8111C275.596 72.5812 275.916 72.5294 276.145 72.694C276.375 72.8591 276.427 73.1792 276.262 73.4088L272.518 78.6167C272.422 78.7507 272.267 78.83 272.102 78.83Z" fill="white"/>
<path d="M281.408 109.67C281.408 109.105 280.949 108.646 280.384 108.646H264.501C263.936 108.646 263.477 109.105 263.477 109.67C263.477 110.235 263.936 110.695 264.501 110.695H280.384C280.949 110.695 281.408 110.235 281.408 109.67Z" fill="#F2F2F2"/>
<path d="M272.573 104.013C276.099 104.013 278.958 101.215 278.958 97.7632C278.958 94.3117 276.099 91.5137 272.573 91.5137C269.046 91.5137 266.187 94.3117 266.187 97.7632C266.187 101.215 269.046 104.013 272.573 104.013Z" fill="#F2F2F2"/>
<path d="M272.102 100.344L272.088 100.343C271.918 100.339 271.761 100.25 271.67 100.107L269.505 96.7133C269.353 96.4747 269.423 96.1581 269.662 96.006C269.9 95.8547 270.217 95.924 270.37 96.1626L272.127 98.9186L275.43 94.3247C275.596 94.0949 275.916 94.0431 276.145 94.2077C276.375 94.3728 276.427 94.6929 276.262 94.9225L272.518 100.13C272.422 100.264 272.267 100.344 272.102 100.344Z" fill="white"/>
<path d="M246.443 107.599C249.97 107.599 252.829 104.801 252.829 101.349C252.829 97.8976 249.97 95.0996 246.443 95.0996C242.917 95.0996 240.058 97.8976 240.058 101.349C240.058 104.801 242.917 107.599 246.443 107.599Z" fill="#F2F2F2"/>
<path d="M245.973 103.93L245.958 103.929C245.788 103.925 245.632 103.836 245.54 103.693L243.376 100.299C243.224 100.061 243.294 99.744 243.533 99.5919C243.771 99.4406 244.088 99.5099 244.24 99.7485L245.998 102.504L249.301 97.9107C249.466 97.6808 249.787 97.629 250.016 97.7936C250.246 97.9587 250.298 98.2788 250.133 98.5084L246.389 103.716C246.292 103.85 246.137 103.93 245.973 103.93Z" fill="white"/>
<path d="M220.827 107.599C224.353 107.599 227.212 104.801 227.212 101.349C227.212 97.8976 224.353 95.0996 220.827 95.0996C217.3 95.0996 214.441 97.8976 214.441 101.349C214.441 104.801 217.3 107.599 220.827 107.599Z" fill="#F2F2F2"/>
<path d="M220.356 103.93L220.342 103.929C220.172 103.925 220.015 103.836 219.924 103.693L217.759 100.299C217.607 100.061 217.677 99.744 217.916 99.5919C218.154 99.4406 218.471 99.5099 218.623 99.7485L220.381 102.504L223.684 97.9107C223.85 97.6808 224.17 97.629 224.399 97.7936C224.629 97.9587 224.681 98.2788 224.516 98.5084L220.772 103.716C220.676 103.85 220.52 103.93 220.356 103.93Z" fill="white"/>
<path d="M194.185 107.599C197.712 107.599 200.57 104.801 200.57 101.349C200.57 97.8976 197.712 95.0996 194.185 95.0996C190.658 95.0996 187.8 97.8976 187.8 101.349C187.8 104.801 190.658 107.599 194.185 107.599Z" fill="#F2F2F2"/>
<path d="M193.714 103.93L193.7 103.929C193.53 103.925 193.373 103.836 193.282 103.693L191.118 100.299C190.966 100.061 191.036 99.744 191.274 99.5919C191.513 99.4406 191.829 99.5099 191.982 99.7485L193.739 102.504L197.042 97.9107C197.208 97.6808 197.528 97.629 197.757 97.7936C197.987 97.9587 198.04 98.2788 197.874 98.5084L194.13 103.716C194.034 103.85 193.879 103.93 193.714 103.93Z" fill="white"/>
<path d="M191.049 110.96C191.049 109.762 190.074 108.787 188.875 108.787H155.174C153.975 108.787 153 109.762 153 110.96C153 112.159 153.975 113.134 155.174 113.134H188.875C190.074 113.134 191.049 112.159 191.049 110.96Z" fill="#3F3D56"/>
<path d="M172.3 103.303C179.783 103.303 185.85 97.366 185.85 90.0422C185.85 82.7184 179.783 76.7812 172.3 76.7812C164.817 76.7812 158.751 82.7184 158.751 90.0422C158.751 97.366 164.817 103.303 172.3 103.303Z" fill="#00BFA6"/>
<path d="M171.302 95.5176C171.292 95.5176 171.281 95.5176 171.271 95.5171C170.911 95.507 170.579 95.3192 170.385 95.0151L165.792 87.8143C165.469 87.308 165.618 86.6361 166.124 86.3135C166.63 85.9924 167.302 86.1394 167.626 86.6457L171.355 92.4936L178.364 82.746C178.715 82.2583 179.395 82.1484 179.881 82.4976C180.369 82.8479 180.48 83.5272 180.129 84.0144L172.184 95.0649C171.98 95.3494 171.651 95.5176 171.302 95.5176Z" fill="white"/>
<path d="M64.1719 7.95222C64.838 8.28005 65.463 8.68983 66.0266 9.16108C66.1905 9.29939 64.6381 9.48382 64.7919 9.62722C63.6903 11.3995 68.2809 13.6175 66.3289 13.7251C65.9395 12.8953 59.9298 10.9539 59.2791 10.3136C59.3713 11.0512 61.8049 11.9681 61.7179 12.7006C59.5302 12.5623 54.6528 11.7427 51.9835 10.6517C53.5916 13.8558 53.6037 16.3741 49.9341 17.3107C47.1876 17.3107 45.2702 20.031 46.1939 22.6169L46.8601 24.4819L44.2984 21.9207C43.233 20.8556 41.1697 18.3357 40.4906 15.6454C40.0029 13.7132 40.4002 11.6887 41.4153 9.9738C41.4528 9.91044 41.4868 9.84931 41.5164 9.79113C40.9375 10.0575 40.3329 10.2624 39.713 10.4007C39.6874 9.284 44.0217 7.21463 44.2984 6.55383C45.5844 3.47533 43.7092 3.48045 48.9094 3.48045C49.3577 3.18165 50.2583 3.6921 51.4711 3.48045C53.7031 3.09095 54.6257 1.56814 57.3969 2.1504C59.7883 2.65288 62.1153 3.3899 63.9201 4.14176L64.7919 4.50491C65.3196 5.35007 65.5348 6.13893 65.504 6.85603C65.4579 6.84581 65.4067 6.83556 65.3606 6.83043C64.4537 6.70237 65.0634 7.75757 64.1719 7.95222Z" fill="#2F2E41"/>
</g>
<defs>
<clipPath id="clip0_1183_25169">
<rect width="313" height="218" fill="white"/>
</clipPath>
</defs>
</svg>
