<svg width="190" height="60" viewBox="0 0 190 60" fill="none" xmlns="http://www.w3.org/2000/svg">
<path d="M12 42V18H17.7297V27.6958H27.0708V18H32.7889V42H27.0708V32.2928H17.7297V42H12Z" fill="#111827"/>
<path d="M41.2283 42H35.0704L43.0688 18H50.6968L58.6952 42H52.5372L46.9696 24.2053H46.7844L41.2283 42Z" fill="#111827"/>
<path d="M81.1405 18V42H76.279L66.8452 28.1977H66.6948V42H60.9651V18H65.8961L75.2256 31.7795H75.4224V18H81.1405Z" fill="#111827"/>
<path d="M105.979 26.7833H100.191C100.114 26.1977 99.9561 25.6692 99.7169 25.1977C99.4776 24.7262 99.1612 24.3232 98.7677 23.9886C98.3741 23.654 97.9073 23.3992 97.3671 23.2243C96.8347 23.0418 96.2443 22.9506 95.5961 22.9506C94.4463 22.9506 93.4547 23.2281 92.6213 23.7833C91.7956 24.3384 91.159 25.1407 90.7114 26.1901C90.2716 27.2395 90.0517 28.5095 90.0517 30C90.0517 31.5513 90.2754 32.8517 90.723 33.9011C91.1783 34.943 91.8149 35.73 92.6329 36.2624C93.4586 36.7871 94.4348 37.0494 95.5614 37.0494C96.1942 37.0494 96.7691 36.9696 97.2861 36.8099C97.8108 36.6502 98.27 36.4183 98.6635 36.1141C99.0648 35.8023 99.3927 35.4259 99.6474 34.9848C99.9098 34.5361 100.091 34.0304 100.191 33.4677L105.979 33.5019C105.879 34.5361 105.574 35.5551 105.065 36.5589C104.563 37.5627 103.872 38.4791 102.993 39.308C102.113 40.1293 101.04 40.7833 99.7747 41.27C98.5169 41.7567 97.0739 42 95.4456 42C93.3004 42 91.3789 41.5361 89.6813 40.6084C87.9913 39.673 86.6563 38.3118 85.6763 36.5247C84.6962 34.7376 84.2062 32.5627 84.2062 30C84.2062 27.4297 84.704 25.251 85.6994 23.4639C86.6949 21.6768 88.0415 20.3194 89.7391 19.3916C91.4368 18.4639 93.339 18 95.4456 18C96.881 18 98.2082 18.1977 99.4275 18.5932C100.647 18.981 101.719 19.5513 102.645 20.3042C103.571 21.0494 104.324 21.9658 104.902 23.0532C105.481 24.1407 105.84 25.384 105.979 26.7833Z" fill="#111827"/>
<path d="M108.975 42V18H114.705V27.6958H124.046V18H129.764V42H124.046V32.2928H114.705V42H108.975Z" fill="#111827"/>
<path d="M138.204 42H132.046L140.044 18H147.672L155.67 42H149.512L143.945 24.2053H143.76L138.204 42Z" fill="#111827"/>
<path d="M172.282 18H178V33.3878C178 35.1293 177.579 36.6464 176.738 37.9392C175.897 39.2243 174.724 40.2205 173.219 40.9278C171.715 41.6274 169.967 41.9772 167.976 41.9772C165.962 41.9772 164.202 41.6274 162.698 40.9278C161.193 40.2205 160.024 39.2243 159.19 37.9392C158.357 36.6464 157.94 35.1293 157.94 33.3878V18H163.67V32.8973C163.67 33.7034 163.848 34.4221 164.202 35.0532C164.565 35.6844 165.071 36.1787 165.719 36.5361C166.367 36.8935 167.119 37.0722 167.976 37.0722C168.833 37.0722 169.581 36.8935 170.222 36.5361C170.87 36.1787 171.375 35.6844 171.738 35.0532C172.101 34.4221 172.282 33.7034 172.282 32.8973V18Z" fill="#111827"/>
</svg>
