<svg width="20" height="20" viewBox="0 0 20 20" fill="none" xmlns="http://www.w3.org/2000/svg">
<path d="M18.75 9.06119C18.75 5.0987 14.8249 1.875 9.99992 1.875C5.17559 1.875 1.25 5.0987 1.25 9.06119C1.25 12.6135 4.36289 15.5885 8.56776 16.1511C8.85275 16.2132 9.24056 16.3412 9.33869 16.5877C9.42692 16.8116 9.39639 17.1624 9.36687 17.3885C9.36687 17.3885 9.26422 18.0134 9.24207 18.1465C9.204 18.3704 9.06628 19.0221 9.99992 18.6238C10.9339 18.2256 15.0391 15.621 16.8749 13.4825C18.143 12.0752 18.75 10.6471 18.75 9.06119Z" fill="#2CCF54"/>
<path d="M8.22209 7.14042H7.60833C7.51423 7.14042 7.43774 7.21757 7.43774 7.31236V11.1664C7.43774 11.2614 7.51423 11.3384 7.60833 11.3384H8.22209C8.31619 11.3384 8.39251 11.2614 8.39251 11.1664V7.31236C8.39251 7.21757 8.31619 7.14042 8.22209 7.14042Z" fill="white"/>
<path d="M12.4467 7.14042H11.8329C11.7388 7.14042 11.6625 7.21757 11.6625 7.31236V9.60209L9.91534 7.2169C9.88303 7.1679 9.83061 7.14364 9.77344 7.14042H9.15985C9.06575 7.14042 8.98926 7.21757 8.98926 7.31236V11.1664C8.98926 11.2614 9.06575 11.3384 9.15985 11.3384H9.77344C9.8677 11.3384 9.94403 11.2614 9.94403 11.1664V8.87739L11.6934 11.2656C11.7248 11.3106 11.7781 11.3384 11.8329 11.3384H12.4467C12.541 11.3384 12.6171 11.2614 12.6171 11.1664V7.31236C12.6171 7.21757 12.541 7.14042 12.4467 7.14042Z" fill="white"/>
<path d="M6.74262 10.3732H5.07496V7.31253C5.07496 7.2174 4.99864 7.14026 4.90471 7.14026H4.29078C4.19668 7.14026 4.12036 7.2174 4.12036 7.31253V11.1659C4.12036 11.2595 4.19635 11.3384 4.29062 11.3384H6.74262C6.83672 11.3384 6.91271 11.2611 6.91271 11.1659V10.5455C6.91271 10.4504 6.83672 10.3732 6.74262 10.3732Z" fill="white"/>
<path d="M15.8361 8.10539C15.9302 8.10539 16.0062 8.02841 16.0062 7.93312V7.3127C16.0062 7.21757 15.9302 7.14026 15.8361 7.14026H13.3843C13.2901 7.14026 13.2139 7.21901 13.2139 7.31253V11.1661C13.2139 11.2594 13.2899 11.3384 13.384 11.3384H15.8361C15.9302 11.3384 16.0062 11.2611 16.0062 11.1661V10.5455C16.0062 10.4506 15.9302 10.3732 15.8361 10.3732H14.1686V9.7218H15.8361C15.9302 9.7218 16.0062 9.64465 16.0062 9.54953V8.92911C16.0062 8.83399 15.9302 8.75667 15.8361 8.75667H14.1686V8.10539H15.8361Z" fill="white"/>
</svg>
