<svg width="24" height="24" viewBox="0 0 24 24" fill="none" xmlns="http://www.w3.org/2000/svg">
<g clip-path="url(#clip0_2508_65654)">
<path fill-rule="evenodd" clip-rule="evenodd" d="M12 20C16.4183 20 20 16.4183 20 12C20 7.58172 16.4183 4 12 4C7.58172 4 4 7.58172 4 12C4 16.4183 7.58172 20 12 20ZM12 24C18.6274 24 24 18.6274 24 12C24 5.37258 18.6274 0 12 0C5.37258 0 0 5.37258 0 12C0 18.6274 5.37258 24 12 24Z" fill="#F3F4F6"/>
<path fill-rule="evenodd" clip-rule="evenodd" d="M12 3.9945C13.0513 3.9945 14.0923 4.20157 15.0636 4.60388C16.0348 5.0062 16.9174 5.59588 17.6607 6.33926C18.4041 7.08264 18.9938 7.96516 19.3961 8.93643C19.7984 9.9077 20.0055 10.9487 20.0055 12H24C24 10.6358 23.7674 9.28324 23.3137 8C23.2433 7.80086 23.1676 7.60338 23.0866 7.4078C22.4835 5.95189 21.5996 4.62902 20.4853 3.51472C19.371 2.40042 18.0481 1.5165 16.5922 0.913445C16.3966 0.832431 16.1991 0.756698 16 0.686291C14.7168 0.232596 13.3642 0 12 0L12 3.9945Z" fill="#14B8A6"/>
</g>
<defs>
<clipPath id="clip0_2508_65654">
<rect width="24" height="24" rx="12" fill="white"/>
</clipPath>
</defs>
</svg>
