<svg width="36" height="36" viewBox="0 0 36 36" fill="none" xmlns="http://www.w3.org/2000/svg">
<g clip-path="url(#clip0_2508_65655)">
<path fill-rule="evenodd" clip-rule="evenodd" d="M18 32C25.732 32 32 25.732 32 18C32 10.268 25.732 4 18 4C10.268 4 4 10.268 4 18C4 25.732 10.268 32 18 32ZM18 36C27.9411 36 36 27.9411 36 18C36 8.05887 27.9411 0 18 0C8.05887 0 0 8.05887 0 18C0 27.9411 8.05887 36 18 36Z" fill="#F3F4F6"/>
<path fill-rule="evenodd" clip-rule="evenodd" d="M18 3.99186C19.8396 3.99186 21.6611 4.35419 23.3607 5.05817C25.0602 5.76214 26.6045 6.79397 27.9053 8.09475C29.206 9.39552 30.2379 10.9398 30.9418 12.6393C31.6458 14.3389 32.0081 16.1604 32.0081 18H36C36 15.9538 35.6511 13.9249 34.9706 12C34.865 11.7013 34.7514 11.4051 34.6298 11.1117C33.7252 8.92784 32.3994 6.94353 30.7279 5.27208C29.0565 3.60062 27.0722 2.27475 24.8883 1.37017C24.5949 1.24865 24.2987 1.13505 24 1.02944C22.0751 0.348893 20.0462 0 18 0V3.99186Z" fill="#14B8A6"/>
</g>
<defs>
<clipPath id="clip0_2508_65655">
<rect width="36" height="36" rx="18" fill="white"/>
</clipPath>
</defs>
</svg>
