<svg width="358" height="266" viewBox="0 0 358 266" fill="none" xmlns="http://www.w3.org/2000/svg">
<g clip-path="url(#clip0_1267_34461)">
<path d="M196.247 45.2193L204.263 52.7744L200.585 57.9548L192.395 49.6655C192.04 49.6414 191.682 49.5661 191.332 49.433C189.429 48.7089 188.473 46.5793 189.197 44.6763C189.921 42.7734 192.051 41.8177 193.955 42.5418C195.169 43.0036 195.994 44.0376 196.247 45.2193Z" fill="#FFB6B6"/>
<path d="M169.972 235.292L175.755 235.291L178.506 212.991L169.971 212.991L169.972 235.292Z" fill="#FFB6B6"/>
<path d="M169.769 241.323L187.552 241.322V241.098C187.551 237.276 184.453 234.178 180.63 234.178L177.381 231.714L171.321 234.178L169.769 234.178L169.769 241.323Z" fill="#2F2E41"/>
<path d="M183.451 229.187L188.871 231.202L199.226 211.259L191.226 208.285L183.451 229.187Z" fill="#FFB6B6"/>
<path d="M181.157 234.769L197.825 240.966L197.903 240.756C199.235 237.174 197.411 233.19 193.829 231.857L191.643 228.416L185.103 228.613L183.648 228.072L181.157 234.769Z" fill="#2F2E41"/>
<path d="M194.403 119.856L206.139 186.59L195.137 228.025L184.868 223.991L186.335 220.691L184.134 216.291L187.435 194.291L187.44 180.23L178.266 152.123L175.699 198.324L179.733 221.424L178.974 228.025L166.897 229.491L168.364 224.724L160.662 201.624L162.129 197.224L151.86 143.323L154.428 126.089L194.403 119.856Z" fill="#2F2E41"/>
<path d="M159.745 54.0381H174.366L178.816 61.3715L183.584 60.2715L185.999 61.3715L196.787 63.5716L193.486 83.0053L192.753 105.372L193.119 114.906C196.975 117.723 195.98 121.605 195.125 125.934C195.125 125.934 158.278 136.008 152.41 132.791V128.633L155.894 100.789L143.058 69.255C142.495 64.938 147.057 63.7717 151.31 62.8382L155.711 61.3715L159.745 54.0381Z" fill="#14B8A6"/>
<path d="M193.486 66.1384L196.787 63.5716L204.296 66.1384L201.555 61.7383V59.6176L197.154 58.4382L196.787 55.1382L193.486 52.5498L198.891 46.3135L202.838 49.6395L205.222 49.6381L208.503 52.9179L220.263 68.9726C222.764 72.3859 222.045 77.2747 218.53 79.6305C217.178 80.5364 215.554 81.172 213.657 81.172H192.861L193.486 66.1384Z" fill="#14B8A6"/>
<path d="M168.439 51.7442C174.507 51.7442 179.427 46.8256 179.427 40.7583C179.427 34.691 174.507 29.7725 168.439 29.7725C162.37 29.7725 157.451 34.691 157.451 40.7583C157.451 46.8256 162.37 51.7442 168.439 51.7442Z" fill="#FFB6B6"/>
<path d="M147.317 139.032L147.057 128.021L153.327 126.994L153.189 138.645C153.421 138.915 153.619 139.222 153.77 139.564C154.593 141.427 153.75 143.604 151.887 144.426C150.025 145.249 147.847 144.406 147.025 142.544C146.5 141.356 146.655 140.042 147.317 139.032Z" fill="#FFB6B6"/>
<path d="M147.132 65.7362C144.659 65.5944 142.658 67.7238 142.955 70.1833L136.954 103.613L136 105.622L137.094 106.752L137.325 109.343L146.462 133.469L157.879 133.891L153.626 83.4185L150.669 68.4213C150.146 66.8905 148.748 65.8288 147.132 65.7362Z" fill="#14B8A6"/>
<path d="M158.719 133.563C158.828 141.49 155.418 143.184 149.917 141.525C145.263 140.122 141.115 138.423 141.115 133.563C141.115 128.703 143.944 121.515 149.917 123.925C155.261 120.991 161.4 127.943 158.719 133.563Z" fill="#F43F5E"/>
<path d="M149.6 124.122C148.897 122.844 148.849 121.282 149.502 119.974C150.083 118.808 151.234 117.94 152.502 117.667C153.193 117.518 153.488 118.579 152.795 118.728C151.809 118.94 151.232 122.994 150.76 123.889C150.251 124.853 150.03 122.621 150.55 123.567C150.891 124.188 149.941 124.743 149.6 124.122Z" fill="#3F3D56"/>
<path d="M202.728 37.8612C202.728 42.7213 199.428 47.4819 193.926 45.8232C189.272 44.4199 183.341 45.0016 187.952 36.8059C181.804 33.7326 187.954 25.8133 193.926 28.2229C199.27 25.2895 202.728 33.001 202.728 37.8612Z" fill="#F43F5E"/>
<path d="M193.61 28.4202C191.469 28.921 192.569 29.1366 193.511 26.3209C193.925 25.0856 195.244 24.2873 196.512 24.0142C197.203 23.8657 197.498 24.9258 196.805 25.075C195.819 25.2871 194.972 25.9057 194.5 26.8014C193.991 27.7649 194.04 26.9189 194.56 27.865C194.901 28.4858 193.951 29.0415 193.61 28.4202Z" fill="#3F3D56"/>
<path d="M70.7988 233.121C69.7403 233.188 69.1554 231.873 69.9562 231.107L70.0358 230.79C70.0253 230.765 70.0148 230.739 70.0042 230.714C68.9338 228.162 65.3061 228.18 64.2448 230.735C63.3028 233.004 62.1035 235.276 61.8082 237.674C61.6759 238.733 61.7354 239.811 61.9704 240.85C59.7632 236.03 58.6017 230.766 58.6017 225.473C58.6017 224.143 58.6745 222.813 58.8234 221.486C58.9459 220.401 59.1146 219.322 59.333 218.254C60.5144 212.477 63.0723 206.975 66.762 202.38C68.5357 201.41 70.0148 199.895 70.9083 198.079C71.2293 197.424 71.4808 196.719 71.5999 196.001C71.398 196.028 70.8388 192.954 70.991 192.765C70.7097 192.339 70.2062 192.127 69.899 191.71C68.3711 189.639 66.2659 190.001 65.167 192.815C62.8193 194 62.7966 195.964 64.2371 197.854C65.1536 199.056 65.2795 200.683 66.0836 201.969C66.0009 202.075 65.9148 202.178 65.8321 202.284C64.315 204.229 63.0029 206.32 61.8968 208.517C62.2094 206.076 61.7479 203.134 60.9611 201.238C60.0654 199.078 58.3866 197.259 56.9083 195.391C55.1325 193.148 51.4912 194.127 51.1783 196.971C51.1753 196.998 51.1723 197.026 51.1694 197.053C51.389 197.177 51.6041 197.309 51.8143 197.448C53.0129 198.24 52.5986 200.098 51.1784 200.317L51.1463 200.322C51.2257 201.113 51.3614 201.897 51.5599 202.668C49.6633 210.001 53.7579 212.671 59.6043 212.791C59.7334 212.857 59.8592 212.924 59.9882 212.987C59.3959 214.654 58.9227 216.364 58.5719 218.098C58.2576 219.63 58.0391 221.178 57.9167 222.733C57.7645 224.695 57.7777 226.667 57.9432 228.625L57.9333 228.556C57.513 226.399 56.3416 224.384 54.6407 222.988C52.1069 220.907 48.5271 220.141 45.7935 218.468C44.4777 217.663 42.7915 218.703 43.0212 220.228L43.0323 220.301C43.4394 220.467 43.8364 220.659 44.2203 220.874C44.4399 220.998 44.655 221.129 44.8652 221.268C46.0638 222.061 45.6495 223.918 44.2293 224.138L44.1971 224.143C44.174 224.146 44.1541 224.149 44.131 224.153C44.8292 225.81 45.8021 227.348 47.0198 228.675C48.2057 235.077 53.299 235.684 58.7473 233.82H58.7506C59.3462 236.414 60.2165 238.948 61.335 241.363H70.5674C70.6005 241.26 70.6303 241.154 70.6601 241.052C69.8064 241.105 68.946 241.055 68.1055 240.9C68.7905 240.059 69.4754 239.212 70.1604 238.372C70.177 238.356 70.1902 238.339 70.2034 238.322C70.5509 237.892 70.9017 237.466 71.2491 237.036L71.2493 237.035C71.271 235.715 71.1125 234.399 70.7988 233.121Z" fill="#E5E7EB"/>
<path d="M335 241.5C335 241.777 334.351 242 333.543 242H23.4568C22.6489 242 22 241.777 22 241.5C22 241.223 22.6489 241 23.4568 241H333.543C334.351 241 335 241.223 335 241.5Z" fill="#D1D5DB"/>
<path d="M177.617 31.9525C178.283 32.2803 178.908 32.6901 179.471 33.1613C179.635 33.2996 178.083 33.4841 178.237 33.6275C177.135 35.3998 181.726 37.6177 179.774 37.7253C179.384 36.8955 173.375 34.9541 172.724 34.3138C172.816 35.0514 175.25 35.9684 175.163 36.7008C172.975 36.5625 168.098 35.743 165.428 34.6519C167.036 37.856 167.049 40.3744 163.379 41.3109C160.632 41.3109 158.715 44.0313 159.639 46.6172L160.305 48.4821L157.743 45.921C156.678 44.8558 154.615 42.336 153.935 39.6456C153.448 37.7135 153.845 35.689 154.86 33.974C154.898 33.9107 154.932 33.8496 154.961 33.7914C154.382 34.0577 153.778 34.2626 153.158 34.4009C153.132 33.2842 157.467 31.2149 157.743 30.5541C159.029 27.4756 157.154 27.4807 162.354 27.4807C162.803 27.1819 163.703 27.6923 164.916 27.4807C167.148 27.0912 168.071 25.5684 170.842 26.1506C173.233 26.6531 175.56 27.3901 177.365 28.142L178.237 28.5052C178.764 29.3503 178.98 30.1392 178.949 30.8563C178.903 30.8461 178.852 30.8358 178.805 30.8307C177.899 30.7026 178.508 31.7578 177.617 31.9525Z" fill="#2F2E41"/>
</g>
<defs>
<clipPath id="clip0_1267_34461">
<rect width="313" height="218" fill="white" transform="translate(22 24)"/>
</clipPath>
</defs>
</svg>
