<svg width="358" height="266" viewBox="0 0 358 266" fill="none" xmlns="http://www.w3.org/2000/svg">
<g clip-path="url(#clip0_1267_34462)">
<path opacity="0.1" d="M178.5 242C262.723 242 331 237.711 331 232.419C331 227.128 262.723 222.838 178.5 222.838C94.2766 222.838 26 227.128 26 232.419C26 237.711 94.2766 242 178.5 242Z" fill="#14B8A6"/>
<path d="M307.079 225.323C307.081 226.081 307.003 226.836 306.847 227.576C306.818 227.716 306.786 227.867 306.754 227.986C305.929 231.293 303.602 233.711 300.825 233.865C300.732 233.865 300.639 233.865 300.535 233.865C297.598 233.865 295.115 231.333 294.295 227.846C294.272 227.754 294.252 227.661 294.231 227.556C294.075 226.815 293.997 226.06 293.999 225.303C293.999 220.579 296.924 216.753 300.535 216.753C304.145 216.753 307.079 220.606 307.079 225.323Z" fill="#3F3D56"/>
<path opacity="0.1" d="M307.079 225.324C307.082 226.081 307.004 226.836 306.847 227.577C306.818 227.716 306.786 227.867 306.754 227.986C306.655 227.986 306.559 227.986 306.464 227.986C305.744 227.947 305.029 227.85 304.326 227.696C303.702 227.888 303.065 228.034 302.42 228.131C301.925 228.206 301.427 228.252 300.927 228.27H300.422C299.823 228.271 299.225 228.231 298.632 228.151C297.673 228.023 296.731 227.79 295.823 227.455C295.326 227.62 294.82 227.756 294.307 227.861C294.284 227.768 294.264 227.675 294.243 227.571C294.087 226.83 294.009 226.075 294.011 225.318C294.011 220.594 296.936 216.768 300.547 216.768C304.157 216.768 307.079 220.606 307.079 225.324Z" fill="black"/>
<path d="M321.022 209.399C321.024 207.321 320.537 205.272 319.599 203.418L311.913 205.808L318.66 201.842C317.529 200.207 316.045 198.848 314.317 197.863C312.59 196.879 310.663 196.295 308.68 196.154C308.363 195.676 308.017 195.218 307.643 194.784L296.605 198.218L305.659 192.9C303.927 191.572 301.894 190.691 299.74 190.335C297.587 189.979 295.379 190.159 293.311 190.858C291.243 191.558 289.38 192.756 287.886 194.347C286.392 195.937 285.313 197.871 284.744 199.978L294.199 210.859L283.943 203.441C281.342 205.282 279.49 207.996 278.724 211.088C277.958 214.18 278.33 217.444 279.772 220.285C281.213 223.126 283.628 225.354 286.576 226.564C289.524 227.773 292.809 227.883 295.832 226.874C298.566 227.876 301.552 227.957 304.337 227.106C306.278 227.535 308.291 227.524 310.228 227.072C312.164 226.62 313.974 225.74 315.524 224.496C317.075 223.252 318.326 221.676 319.186 219.884C320.046 218.092 320.493 216.13 320.493 214.143C320.493 213.853 320.493 213.562 320.464 213.272C320.841 212.016 321.029 210.71 321.022 209.399Z" fill="#14B8A6"/>
<path opacity="0.1" d="M320.793 211.864C316.734 211.093 312.571 211.04 308.494 211.707C303.878 212.47 299.161 214.149 294.647 212.92C291.998 212.2 289.709 210.534 287.121 209.611C284.624 208.738 281.934 208.576 279.351 209.143C278.365 211.497 278.079 214.085 278.526 216.597C278.973 219.109 280.134 221.439 281.871 223.309C283.608 225.179 285.847 226.51 288.32 227.142C290.793 227.774 293.396 227.681 295.818 226.874C298.552 227.875 301.538 227.957 304.323 227.106C306.264 227.535 308.277 227.524 310.213 227.072C312.15 226.62 313.96 225.74 315.51 224.495C317.061 223.251 318.312 221.675 319.172 219.884C320.032 218.092 320.479 216.13 320.479 214.143C320.479 213.852 320.479 213.562 320.45 213.272C320.59 212.809 320.705 212.339 320.793 211.864Z" fill="black"/>
<path d="M228.927 73.9282H227.262C226.895 73.9282 226.597 74.2259 226.597 74.5931V97.9472C226.597 98.3144 226.895 98.6121 227.262 98.6121H228.927C229.294 98.6121 229.592 98.3144 229.592 97.9472V74.5931C229.592 74.2259 229.294 73.9282 228.927 73.9282Z" fill="#3F3D56"/>
<path d="M128.262 54.5894H127.452C127.211 54.5894 127.016 54.7843 127.016 55.0249V62.2802C127.016 62.5207 127.211 62.7157 127.452 62.7157H128.262C128.503 62.7157 128.698 62.5207 128.698 62.2802V55.0249C128.698 54.7843 128.503 54.5894 128.262 54.5894Z" fill="#3F3D56"/>
<path d="M128.358 69.4688H127.446C127.175 69.4688 126.955 69.6884 126.955 69.9594V83.123C126.955 83.3939 127.175 83.6136 127.446 83.6136H128.358C128.629 83.6136 128.849 83.3939 128.849 83.123V69.9594C128.849 69.6884 128.629 69.4688 128.358 69.4688Z" fill="#3F3D56"/>
<path d="M128.32 88.5605H127.452C127.193 88.5605 126.984 88.7698 126.984 89.028V102.36C126.984 102.618 127.193 102.827 127.452 102.827H128.32C128.578 102.827 128.788 102.618 128.788 102.36V89.028C128.788 88.7698 128.578 88.5605 128.32 88.5605Z" fill="#3F3D56"/>
<path d="M217.845 27.7363H138.336C132.61 27.7363 127.969 32.3755 127.969 38.0982V221.003C127.969 226.726 132.61 231.365 138.336 231.365H217.845C223.571 231.365 228.212 226.726 228.212 221.003V38.0982C228.212 32.3755 223.571 27.7363 217.845 27.7363Z" fill="#3F3D56"/>
<path d="M181.681 33.8159H169.158C168.751 33.8159 168.42 34.1461 168.42 34.5534V35.9208C168.42 36.3281 168.751 36.6582 169.158 36.6582H181.681C182.088 36.6582 182.418 36.3281 182.418 35.9208V34.5534C182.418 34.1461 182.088 33.8159 181.681 33.8159Z" fill="#E6E8EC"/>
<path d="M186.148 36.8472C187.039 36.8472 187.76 36.1258 187.76 35.2358C187.76 34.3459 187.039 33.6245 186.148 33.6245C185.258 33.6245 184.536 34.3459 184.536 35.2358C184.536 36.1258 185.258 36.8472 186.148 36.8472Z" fill="#E6E8EC"/>
<path d="M222.022 40.996V218.097C222.021 220.207 221.182 222.231 219.689 223.722C218.196 225.214 216.171 226.052 214.06 226.052H142.121C140.01 226.052 137.985 225.214 136.492 223.722C134.999 222.231 134.159 220.207 134.159 218.097V40.996C134.159 39.951 134.365 38.9162 134.765 37.9507C135.165 36.9852 135.751 36.1079 136.491 35.3689C137.23 34.63 138.108 34.0438 139.074 33.6438C140.04 33.2439 141.075 33.0381 142.121 33.0381H152.886V34.4201C152.889 36.1562 153.581 37.8202 154.81 39.0471C156.039 40.2739 157.705 40.9633 159.442 40.9641H196.042C196.903 40.9641 197.755 40.7946 198.551 40.4653C199.346 40.136 200.069 39.6533 200.678 39.0448C201.286 38.4364 201.769 37.714 202.099 36.919C202.428 36.124 202.598 35.2719 202.598 34.4113V33.0381H214.074C216.184 33.0419 218.205 33.8821 219.695 35.374C221.185 36.866 222.022 38.888 222.022 40.996Z" fill="white"/>
<path opacity="0.2" d="M222.652 114.127V174.35H222.022V174.411H134.159V100.836C134.722 100.193 135.293 99.5265 135.872 98.8355C148.212 84.1071 164.984 80.2312 177.965 79.8247C186.86 79.5344 195.714 81.3722 204.166 85.0216C208.631 86.9494 215.039 89.063 222.022 89.2721V112.04C222.449 113.256 222.652 114.127 222.652 114.127Z" fill="#14B8A6"/>
<path opacity="0.2" d="M222.652 114.127V174.35H134.159V134.9C137.31 134.108 141.711 131.059 147.358 122.637C154.112 112.559 163.288 109.909 170.39 109.63C175.255 109.438 180.1 110.687 184.725 113.186C189.927 115.994 199.954 119.379 207.574 109.552C215.997 98.6845 220.477 107.647 222.022 112.04C222.449 113.256 222.652 114.127 222.652 114.127Z" fill="#14B8A6"/>
<path d="M209.872 163.321H146.548C144.623 163.321 143.062 164.881 143.062 166.805V181.902C143.062 183.826 144.623 185.386 146.548 185.386H209.872C211.797 185.386 213.357 183.826 213.357 181.902V166.805C213.357 164.881 211.797 163.321 209.872 163.321Z" fill="#736E9E"/>
<path d="M64.941 222.504L70.5007 219.227C69.7489 217.943 68.7877 216.794 67.657 215.827L57.1679 219.099L65.3884 214.268C63.3534 213.154 61.0633 212.588 58.7434 212.627C56.4235 212.667 54.1538 213.309 52.1576 214.491C50.1614 215.673 48.5077 217.354 47.3591 219.369C46.2105 221.384 45.6066 223.664 45.6069 225.983C45.6069 233.36 51.5878 233.615 58.9688 233.615C66.3498 233.615 72.3307 233.36 72.3307 225.983C72.3333 224.116 71.9424 222.27 71.1834 220.565L64.941 222.504Z" fill="#14B8A6"/>
<path opacity="0.1" d="M66.3561 229.678C65.7644 229.085 65.1031 228.565 64.3866 228.131C63.3758 227.46 62.333 226.778 61.142 226.548C60.0963 226.348 59.0186 226.516 57.9468 226.458C56.0974 226.345 54.3567 225.547 53.0639 224.22C52.3057 223.436 51.7074 222.478 50.7953 221.871C49.8105 221.227 48.5615 221.087 47.3938 221.247C47.0554 221.298 46.7199 221.367 46.3887 221.453C45.8645 222.907 45.5972 224.44 45.5986 225.985C45.5986 233.362 51.5795 233.618 58.9605 233.618C62.5421 233.618 65.7925 233.557 68.1919 232.651L67.791 231.902C67.4087 231.103 66.9265 230.356 66.3561 229.678Z" fill="black"/>
<path d="M92.2982 193.059C91.8736 193.432 91.5465 193.902 91.3454 194.43C90.8487 195.98 92.2372 197.501 92.3708 199.124C92.4754 200.413 91.7899 201.615 91.4006 202.852C90.9614 204.388 90.9898 206.021 91.4823 207.541C91.9748 209.061 92.909 210.4 94.166 211.388C94.4336 211.615 94.7495 211.778 95.0897 211.864C95.3704 211.898 95.655 211.874 95.9262 211.794C96.1974 211.714 96.4495 211.58 96.667 211.399C97.3415 210.909 97.8559 210.23 98.1455 209.448C98.3865 208.68 98.5166 207.881 98.5318 207.076L98.7381 203.97C98.953 200.727 99.1476 197.382 98.3575 194.197C98.099 193.152 97.6197 190.751 96.4113 190.606C95.203 190.461 93.0999 192.275 92.2982 193.059Z" fill="#3F3D56"/>
<path d="M112.562 179.715C111.111 184.808 110.059 190.006 109.416 195.262C109.323 196.003 109.227 196.781 108.78 197.379C107.888 198.578 106.102 198.503 104.62 198.308C104.265 198.289 103.918 198.19 103.607 198.018C103.049 197.64 102.927 196.885 102.86 196.215C101.845 186.328 101.167 176.415 100.827 166.476C100.812 166.096 113.227 166.061 114.29 167.057C115.353 168.053 114.528 171.778 114.29 173.046C113.901 175.305 113.198 177.506 112.562 179.715Z" fill="#FBBEBE"/>
<path opacity="0.05" d="M112.562 179.715C111.111 184.808 110.059 190.006 109.416 195.262C109.323 196.003 109.227 196.781 108.78 197.379C107.888 198.578 106.102 198.503 104.62 198.308C104.265 198.289 103.918 198.19 103.607 198.018C103.049 197.64 102.927 196.885 102.86 196.215C101.845 186.328 101.167 176.415 100.827 166.476C100.812 166.096 113.227 166.061 114.29 167.057C115.353 168.053 114.528 171.778 114.29 173.046C113.901 175.305 113.198 177.506 112.562 179.715Z" fill="black"/>
<path d="M86.7095 165.062L91.7376 176.115C93.4108 179.791 95.0955 183.507 95.8943 187.464C96.2148 189.117 96.4196 190.791 96.5072 192.472C96.6286 193.914 96.5838 195.364 96.3736 196.795C96.1906 197.858 95.8537 198.892 95.7055 199.96C95.1246 204.219 97.5384 208.226 99.1912 212.189C100.619 215.592 101.528 219.191 101.887 222.864C102.038 224.429 102.122 226.09 103.017 227.382C104.652 226.891 106.25 226.467 107.955 226.659C108.26 224.159 106.68 221.857 106.099 219.4C105.033 214.9 107.388 210.171 106.587 205.616C106.151 203.148 104.8 200.825 104.911 198.323C105.117 193.759 105.974 189.148 105.102 184.677C104.121 179.622 101.297 175.026 100.673 169.917C100.193 165.991 100.963 161.651 98.7759 158.353C93.9975 158.071 89.0565 160.89 86.7095 165.062Z" fill="#FBBEBE"/>
<path d="M103.235 234.475C102.732 234.492 102.145 234.475 101.834 234.077C101.683 233.846 101.596 233.578 101.582 233.302C101.344 231.552 101.227 229.787 101.233 228.021C101.233 227.376 101.262 226.691 101.622 226.16C101.887 225.836 102.188 225.543 102.52 225.289C103.29 224.577 103.85 223.547 104.844 223.219C105.279 223.092 105.74 223.086 106.179 223.201C106.617 223.316 107.016 223.548 107.333 223.872C107.96 224.54 108.348 225.396 108.437 226.308C108.582 227.388 108.46 228.564 109.032 229.501C109.259 229.864 109.576 230.161 109.831 230.503C110.703 231.664 111.484 233.938 109.686 234.408C107.78 234.904 105.213 234.411 103.235 234.475Z" fill="#3F3D56"/>
<path d="M107.595 99.6511C108.611 97.6885 108.004 95.1626 106.552 93.4961C105.099 91.8296 102.976 90.9006 100.809 90.3983C97.9043 89.7189 94.7904 89.7248 92.0106 90.7932C89.7942 91.6438 87.8858 93.1158 85.8408 94.3178C82.227 96.4441 78.1822 97.7338 74.0039 98.0921C69.3563 98.484 64.1655 97.8743 60.5723 100.833C53.9901 106.25 58.5738 118.459 52.439 124.37C50.7833 125.964 48.5727 126.826 46.6759 128.124C44.7791 129.422 43.0828 131.497 43.3878 133.774C43.533 134.868 44.1314 135.855 44.8227 136.718C47.7914 140.425 52.7759 142.367 57.4904 141.79C62.2048 141.212 66.5213 138.187 68.8189 134.023C69.3999 132.981 69.8705 131.84 70.7855 131.082C72.6184 129.57 75.3082 130.182 77.6843 130.11C82.968 129.947 87.7667 125.421 88.2286 120.154C88.4261 117.904 88.0427 115.285 89.6606 113.706C90.9648 112.429 93.004 112.44 94.7875 112.048C98.0641 111.331 100.449 108.962 101.945 106.07C102.63 104.741 102.561 103.254 103.577 102.151C104.661 100.937 106.627 101.515 107.595 99.6511Z" fill="#3F3D56"/>
<g opacity="0.1">
<path d="M69.6731 99.0121C71.6003 98.8479 73.5053 98.485 75.3577 97.9292C74.8349 98.0018 74.312 98.0628 73.7863 98.1063C70.1437 98.4112 66.1584 98.1063 62.876 99.3867C65.1126 99.1573 67.4568 99.1979 69.6731 99.0121Z" fill="black"/>
<path d="M66.4314 132.003C65.5164 132.758 65.0342 133.901 64.4649 134.944C62.7045 138.115 59.8855 140.568 56.5 141.874C56.7585 141.856 57.017 141.833 57.2756 141.801C61.99 141.221 66.3065 138.201 68.6041 134.038C69.1851 132.996 69.6528 131.852 70.5707 131.097L70.7275 130.975C69.1328 130.937 67.6049 131.033 66.4314 132.003Z" fill="black"/>
<path d="M106.334 93.5135C104.882 91.847 102.744 90.9208 100.591 90.4157C97.6866 89.7363 94.5727 89.745 91.7899 90.8134L91.604 90.8889C93.2411 90.7958 94.8831 90.9415 96.4782 91.3215C98.6306 91.8267 100.771 92.7528 102.221 94.4222C103.67 96.0916 104.28 98.6146 103.264 100.577C102.296 102.441 100.33 101.86 99.2232 103.065C98.2065 104.166 98.2762 105.655 97.5907 106.985C96.3039 109.473 94.3548 111.569 91.7521 112.565C92.6613 112.35 93.6373 112.254 94.5436 112.057C97.8202 111.337 100.205 108.971 101.701 106.079C102.389 104.749 102.32 103.26 103.333 102.16C104.443 100.955 106.41 101.532 107.374 99.6714C108.391 97.7146 107.784 95.1887 106.334 93.5135Z" fill="black"/>
<path d="M90.4336 112.966C88.6501 113.355 86.611 113.346 85.3067 114.621C83.6888 116.203 84.0722 118.822 83.8747 121.072C83.529 125.006 80.7608 128.527 77.1792 130.127H77.4435C82.7273 129.965 87.5231 125.435 87.9849 120.172C88.1853 117.919 87.8019 115.3 89.4199 113.721C89.7906 113.367 90.2267 113.089 90.7038 112.902L90.4336 112.966Z" fill="black"/>
</g>
<path d="M107.682 126.074C107.441 126.501 106.944 126.699 106.482 126.87C101.701 128.629 96.6697 130.421 91.627 129.68C91.4382 128.888 91.2523 128.092 91.0664 127.299C90.7973 126.15 90.5261 125 90.2531 123.85C90.1253 123.302 89.9946 122.747 89.89 122.19C89.7098 121.31 89.6521 120.409 89.7186 119.513C89.7494 119.188 89.8077 118.867 89.8929 118.552C90.0421 117.979 90.2919 117.437 90.6307 116.952C90.6888 116.874 90.7498 116.795 90.8137 116.72C91.1009 116.374 91.4495 116.083 91.842 115.863C92.6989 115.393 93.8753 115.193 94.221 114.281C94.3547 113.804 94.3416 113.299 94.1832 112.829C93.8928 111.668 93.367 110.576 93.0417 109.427C92.6292 107.975 93.2508 108.065 94.6538 107.714C97.181 107.078 99.8243 106.622 102.418 107.133C102.296 108.414 102.177 109.726 102.5 110.974C102.822 112.223 103.685 113.407 104.925 113.753C105.108 113.805 105.303 113.837 105.506 113.88C105.775 113.924 106.031 114.029 106.253 114.188C106.405 114.314 106.527 114.474 106.607 114.656C106.733 114.962 106.816 115.284 106.854 115.614C107.309 118.66 107.637 121.721 107.839 124.797V124.913C107.898 125.307 107.844 125.71 107.682 126.074Z" fill="#FBBEBE"/>
<path d="M83.0668 121.072C81.9805 122.724 81.6145 124.733 81.2833 126.684L79.1745 138.907C78.884 140.579 78.6255 142.417 79.4824 143.883C79.7728 144.38 80.1795 144.809 80.3916 145.335C80.5518 145.864 80.6569 146.407 80.7053 146.958C81.1991 149.759 83.9557 151.649 86.721 152.329C87.7203 152.576 88.888 152.671 89.6752 152.007C90.5466 151.284 90.5466 149.907 90.0325 148.915C89.5183 147.922 88.5801 147.219 87.6709 146.554L84.6587 144.336L86.4015 130.981C86.5293 130.011 86.9825 128.754 87.9643 128.861C88.8589 128.957 89.5474 130.261 90.3433 129.84C90.5927 129.671 90.7683 129.414 90.8342 129.12C91.1828 128.025 91.0869 126.847 90.9881 125.7L90.6279 121.56C90.5088 120.215 90.8545 119.208 91.0172 117.945C91.206 116.473 90.2242 116.92 89.0129 117.237C86.6862 117.852 84.4117 119.022 83.0668 121.072Z" fill="#FBBEBE"/>
<path d="M120.524 141.145C120.302 141.518 119.975 141.815 119.583 141.999C117.231 143.324 114.465 143.713 111.839 143.088C111.233 142.91 110.618 142.766 109.997 142.658C109.003 142.536 107.993 142.733 106.99 142.658C104.957 142.504 103.171 141.235 101.762 139.755C100.914 138.884 100.144 137.458 100.934 136.523C101.155 136.298 101.429 136.132 101.731 136.04C102.033 135.949 102.354 135.935 102.662 136.001C103.277 136.138 103.871 136.358 104.426 136.657C106.37 137.558 108.449 138.131 110.581 138.352C112.033 138.503 113.881 138.257 114.383 136.878C114.627 136.207 114.456 135.464 114.284 134.77C113.816 132.869 113.347 130.967 112.878 129.065C112.846 128.899 112.787 128.739 112.704 128.592C112.68 128.552 112.652 128.515 112.62 128.481C112.435 128.327 112.211 128.226 111.972 128.191C110.889 127.924 109.805 127.491 109.03 126.693C108.521 126.126 108.116 125.474 107.833 124.768C107.752 124.591 107.676 124.411 107.598 124.231C107.002 122.843 106.375 121.42 105.89 119.963C105.551 118.978 105.301 117.964 105.143 116.935C105.015 116.043 104.946 115.634 105.434 115.239C105.564 115.141 105.703 115.053 105.849 114.978C106.073 114.859 106.325 114.74 106.593 114.627L106.851 114.519C107.646 114.202 108.462 113.942 109.294 113.741C111.31 113.274 113.462 114.249 114.845 115.791C116.228 117.333 116.945 119.35 117.404 121.368C117.863 123.386 118.098 125.453 118.673 127.439C118.897 128.217 119.176 128.983 119.368 129.762C119.573 130.687 119.72 131.625 119.806 132.569C120.079 134.975 120.351 137.381 120.623 139.787C120.723 140.239 120.688 140.712 120.524 141.145Z" fill="#FBBEBE"/>
<path d="M90.698 140.1C91.2789 143.805 89.6087 147.448 87.9937 150.842C88.9087 151.51 90.027 151.841 91.1192 152.128C98.4292 154.049 106.029 154.621 113.544 153.815C113.724 152.561 113.893 151.231 113.378 150.076C113.059 149.359 112.507 148.775 112.155 148.072C111.575 146.911 111.633 145.561 111.697 144.272L112.216 133.289C108.612 131.628 104.432 133.184 100.467 133.408C98.413 133.524 96.3332 133.274 94.3086 133.637C93.2571 133.826 89.9515 134.346 89.4547 135.429C88.958 136.512 90.5208 138.921 90.698 140.1Z" fill="#FBBEBE"/>
<path opacity="0.05" d="M90.698 140.1C91.2789 143.805 89.6087 147.448 87.9937 150.842C88.9087 151.51 90.027 151.841 91.1192 152.128C98.4292 154.049 106.029 154.621 113.544 153.815C113.724 152.561 113.893 151.231 113.378 150.076C113.059 149.359 112.507 148.775 112.155 148.072C111.575 146.911 111.633 145.561 111.697 144.272L112.216 133.289C108.612 131.628 104.432 133.184 100.467 133.408C98.413 133.524 96.3332 133.274 94.3086 133.637C93.2571 133.826 89.9515 134.346 89.4547 135.429C88.958 136.512 90.5208 138.921 90.698 140.1Z" fill="black"/>
<path d="M100.249 150.732C96.3417 149.919 92.5016 148.575 88.5134 148.482C88.3131 148.462 88.1112 148.5 87.9324 148.592C87.7378 148.753 87.6078 148.979 87.5664 149.228C87.1539 150.651 86.785 152.084 86.4597 153.528C85.3791 158.327 84.8475 163.628 87.2236 167.937C87.2004 166.538 88.0805 165.228 89.257 164.453C90.4334 163.678 91.8422 163.364 93.2365 163.236C94.6308 163.109 96.1209 163.161 97.4194 163.733C98.3267 164.145 99.1096 164.789 99.6894 165.599C100.269 166.409 100.625 167.358 100.722 168.349L114.447 168.793C114.527 168.817 114.612 168.82 114.694 168.802C114.776 168.785 114.852 168.747 114.916 168.692C114.979 168.638 115.028 168.568 115.058 168.49C115.087 168.412 115.097 168.328 115.086 168.245C115.592 163.844 115.574 159.399 115.031 155.003C114.88 153.775 114.86 152.07 113.477 151.609C111.827 151.057 109.219 151.702 107.455 151.626C105.033 151.524 102.623 151.225 100.249 150.732Z" fill="#3F3D56"/>
<path d="M112.707 129.224L112.664 135.321L98.7789 135.783C96.2314 135.87 93.6636 135.957 91.1801 136.523C90.4655 136.686 89.7596 136.889 89.0567 137.089C88.3247 134.41 87.6043 131.602 87.796 128.87C87.849 128.133 87.9775 127.404 88.1794 126.693C88.621 125.16 89.4488 123.714 89.8903 122.198C90.0683 121.608 90.166 120.997 90.1808 120.381C90.1479 119.766 90.0505 119.156 89.8903 118.561C89.763 118.073 89.7024 117.57 89.7102 117.065L90.8112 116.726C90.8431 116.856 90.8692 116.984 90.8925 117.118C90.939 117.393 90.9767 117.675 91.0029 117.957C91.065 118.655 91.0845 119.356 91.061 120.056C91.0232 121.455 90.8344 123.014 91.7087 124.12C92.8445 125.54 95.0289 125.319 96.8124 124.965L101.483 124.033C102.959 123.743 104.606 123.331 105.376 122.039C105.704 121.411 105.877 120.714 105.881 120.006V119.867C105.951 118.325 105.797 116.781 105.425 115.283C105.312 114.812 105.172 114.348 105.015 113.892H105.483C105.752 113.935 106.008 114.041 106.23 114.2C106.383 114.326 106.504 114.486 106.584 114.667L106.843 114.56C107.873 118.771 109.572 122.789 111.874 126.463C112.17 126.884 112.404 127.344 112.571 127.831C112.64 128.095 112.679 128.365 112.687 128.638C112.71 128.809 112.707 129.015 112.707 129.224Z" fill="#FF6F61"/>
<path d="M98.0381 110.771C102.69 110.771 106.462 107.001 106.462 102.351C106.462 97.7012 102.69 93.9316 98.0381 93.9316C93.3857 93.9316 89.6143 97.7012 89.6143 102.351C89.6143 107.001 93.3857 110.771 98.0381 110.771Z" fill="#FBBEBE"/>
<path d="M83.0668 121.072C81.9805 122.724 81.6145 124.733 81.2833 126.684L79.1745 138.907C78.884 140.579 78.6255 142.417 79.4824 143.883C79.7728 144.38 80.1795 144.809 80.3916 145.335C80.5518 145.864 80.6569 146.407 80.7053 146.958C81.1991 149.759 83.9557 151.649 86.721 152.329C87.7203 152.576 88.888 152.671 89.6752 152.007C90.5466 151.284 90.5466 149.907 90.0325 148.915C89.5183 147.922 88.5801 147.219 87.6709 146.554L84.6587 144.336L86.4015 130.981C86.5177 130.02 84.4117 119.022 83.0668 121.072Z" fill="#FBBEBE"/>
<path d="M117.407 121.385C117.866 123.403 118.101 125.47 118.676 127.456C118.9 128.237 119.179 129.001 119.371 129.779C119.576 130.703 119.723 131.64 119.809 132.583L120.625 139.801C120.719 140.247 120.684 140.71 120.524 141.136C120.302 141.508 119.974 141.805 119.583 141.99C117.23 143.312 114.465 143.701 111.839 143.079C111.234 142.898 110.619 142.755 109.997 142.649C109.003 142.524 107.993 142.725 106.99 142.649C104.957 142.495 103.171 141.229 101.762 139.76C100.914 138.889 100.144 137.461 100.934 136.526C101.155 136.3 101.429 136.134 101.731 136.043C102.033 135.952 102.354 135.938 102.662 136.003C103.278 136.141 103.871 136.363 104.426 136.662C106.37 137.561 108.45 138.133 110.581 138.355C112.033 138.509 113.881 138.262 114.383 136.88C114.627 136.21 114.456 135.466 114.284 134.772L112.878 129.067C112.82 128.87 116.948 119.37 117.407 121.385Z" fill="#FBBEBE"/>
<path d="M92.8242 104.944C92.4495 103.6 91.9237 101.919 92.9781 101.007C93.3571 100.715 93.8136 100.54 94.2911 100.505C96.6585 100.215 99.1072 101.608 101.373 100.865C102.096 100.629 102.734 100.189 103.212 99.598C103.69 99.0071 103.987 98.2905 104.067 97.5348C104.146 96.779 104.005 96.0164 103.661 95.339C103.316 94.6616 102.783 94.0983 102.125 93.7171C101.135 93.1365 99.9525 93.0232 98.8109 92.9216C95.8045 92.6458 92.6702 92.3903 89.8584 93.5023C87.0466 94.6142 84.6763 97.4769 85.2573 100.441C85.5274 101.855 86.4017 103.072 87.2906 104.198C87.9732 105.054 90.7124 109.134 91.8133 109.076C93.3645 108.988 93.0682 105.818 92.8242 104.944Z" fill="#3F3D56"/>
<path opacity="0.1" d="M102.125 93.7169C101.957 93.62 101.783 93.5356 101.602 93.4644C102.112 93.9269 102.492 94.5153 102.703 95.1705C102.914 95.8258 102.95 96.525 102.805 97.1981C102.661 97.8713 102.343 98.4948 101.882 99.0064C101.421 99.5179 100.834 99.8995 100.179 100.113C97.9133 100.856 95.4646 99.4626 93.0972 99.7529C92.6198 99.7881 92.1632 99.9628 91.7843 100.255C90.7298 101.167 91.2556 102.848 91.6303 104.192C91.8743 105.063 92.1706 108.236 90.6253 108.323H90.5991C91.0784 108.791 91.5112 109.096 91.8191 109.078C93.3644 108.991 93.0682 105.821 92.8242 104.947C92.4494 103.603 91.9237 101.922 92.9781 101.01C93.3571 100.718 93.8136 100.543 94.2911 100.508C96.6585 100.217 99.1072 101.611 101.373 100.868C102.096 100.632 102.734 100.192 103.212 99.6008C103.69 99.0098 103.987 98.2932 104.067 97.5375C104.146 96.7818 104.005 96.0192 103.661 95.3417C103.316 94.6643 102.783 94.101 102.125 93.7198V93.7169Z" fill="black"/>
<path d="M225.848 198.451H131.152V227.774H225.848V198.451Z" fill="#3F3D56"/>
<path d="M174.433 207.927V218.292L182.566 213.109L174.433 207.927Z" fill="white"/>
<path d="M101.814 33.909L97.3063 36.7658L100.043 31.7925C99.2671 31.1738 98.3072 30.8315 97.315 30.8199H97.2424C96.9292 30.8245 96.6161 30.8011 96.3071 30.7502L94.7792 31.717L95.4356 30.5266C94.3517 30.1497 93.4157 29.438 92.7632 28.4943L90.027 30.2363L91.7553 27.0978C90.1548 25.1788 87.9994 24.0029 85.6291 24.0029C82.7854 24.0029 80.2524 25.6926 78.6171 28.3259C78.1334 29.1166 77.4482 29.7646 76.6315 30.2033C75.8148 30.6421 74.896 30.8559 73.9694 30.8228H73.8155C70.6754 30.8228 68.1309 34.3793 68.1309 38.7691C68.1309 43.1589 70.6754 46.7154 73.8155 46.7154C74.5062 46.7122 75.186 46.5419 75.7965 46.219C76.8647 45.6993 78.0333 45.4182 79.2211 45.3952C80.4088 45.3721 81.5874 45.6076 82.675 46.0854C83.5952 46.4969 84.592 46.7096 85.6001 46.7096C86.6082 46.7096 87.605 46.4969 88.5252 46.0854C89.6051 45.6175 90.7731 45.3872 91.9499 45.4103C93.1267 45.4333 94.2848 45.7091 95.3456 46.219C95.9499 46.5351 96.6213 46.7014 97.3034 46.7038C100.443 46.7038 102.988 43.1444 102.988 38.7575C103.01 37.0686 102.606 35.4013 101.814 33.909Z" fill="#E5E7EB"/>
<path opacity="0.03" d="M93.3148 45.5366C91.6774 45.2262 89.9847 45.4101 88.4523 46.065C87.5318 46.4755 86.5351 46.6877 85.5272 46.6877C84.5192 46.6877 83.5225 46.4755 82.6021 46.065C81.5141 45.5882 80.3355 45.3535 79.1478 45.377C77.9601 45.4006 76.7918 45.6819 75.7236 46.2014C75.1127 46.5231 74.433 46.6924 73.7425 46.695C70.954 46.695 68.6331 43.8875 68.1509 40.1829C68.7068 39.7756 69.18 39.2662 69.5452 38.6819C71.1805 36.0457 73.7135 34.356 76.5573 34.356C79.401 34.356 81.902 36.0254 83.5287 38.6325C84.0182 39.4167 84.7018 40.0614 85.5134 40.5043C86.325 40.9473 87.2371 41.1736 88.1618 41.1613H88.2344C90.4565 41.1613 92.3795 42.941 93.3148 45.5366Z" fill="black"/>
<path d="M256.057 98.6642L253.809 100.09L255.174 97.6074C254.787 97.2995 254.309 97.1289 253.815 97.1225H253.777C253.621 97.1251 253.466 97.1144 253.312 97.0906L252.536 97.5783L252.865 96.9832C252.325 96.7959 251.858 96.4421 251.531 95.9728L250.166 96.8438L251.038 95.2789C250.675 94.811 250.212 94.4296 249.684 94.1624C249.155 93.8953 248.574 93.7491 247.982 93.7344C246.564 93.7344 245.301 94.5763 244.496 95.8915C244.254 96.2863 243.911 96.6097 243.503 96.8286C243.095 97.0474 242.635 97.1539 242.172 97.137H242.097C240.531 97.137 239.262 98.9139 239.262 101.1C239.262 103.286 240.531 105.066 242.097 105.066C242.441 105.064 242.78 104.98 243.084 104.819C243.617 104.56 244.2 104.419 244.792 104.407C245.384 104.395 245.972 104.512 246.515 104.749C246.971 104.956 247.466 105.064 247.967 105.066C248.467 105.064 248.962 104.959 249.42 104.758C249.958 104.525 250.541 104.41 251.127 104.421C251.714 104.432 252.292 104.569 252.821 104.822C253.122 104.981 253.457 105.064 253.797 105.066C255.363 105.066 256.632 103.289 256.632 101.1C256.649 100.253 256.451 99.4146 256.057 98.6642Z" fill="#E5E7EB"/>
<path opacity="0.03" d="M251.807 104.465C250.99 104.308 250.144 104.4 249.379 104.729C248.922 104.933 248.427 105.038 247.927 105.038C247.426 105.038 246.931 104.933 246.474 104.729C245.932 104.492 245.344 104.375 244.752 104.387C244.16 104.398 243.577 104.538 243.044 104.796C242.74 104.958 242.401 105.043 242.056 105.046C240.665 105.046 239.509 103.643 239.268 101.797C239.545 101.594 239.781 101.34 239.962 101.048C240.778 99.7326 242.042 98.8906 243.448 98.8906C244.853 98.8906 246.114 99.7239 246.933 101.022C247.177 101.416 247.52 101.741 247.927 101.963C248.335 102.186 248.793 102.298 249.257 102.29H249.292C250.381 102.282 251.343 103.17 251.807 104.465Z" fill="black"/>
<path d="M261.033 61.6442L264.644 63.9349L262.448 59.9486C263.069 59.4541 263.838 59.1804 264.632 59.1706H264.69C264.941 59.1743 265.192 59.1558 265.439 59.1154L266.665 59.8906L266.14 58.9383C267.006 58.6344 267.755 58.0656 268.28 57.3124L270.473 58.7002L269.088 56.186C270.369 54.6472 272.097 53.7065 273.997 53.7065C276.277 53.7065 278.305 55.0595 279.615 57.1702C280.002 57.8018 280.55 58.3196 281.203 58.671C281.855 59.0223 282.589 59.1947 283.33 59.1706H283.452C285.967 59.1706 288.007 62.0216 288.007 65.5375C288.007 69.0534 285.973 71.9044 283.452 71.9044C282.899 71.9016 282.355 71.7651 281.866 71.5067C281.009 71.0891 280.071 70.8632 279.118 70.8447C278.165 70.8261 277.219 71.0154 276.347 71.3992C275.61 71.7284 274.811 71.8986 274.004 71.8986C273.197 71.8986 272.399 71.7284 271.661 71.3992C270.797 71.0238 269.861 70.8388 268.918 70.8568C267.975 70.8749 267.048 71.0955 266.198 71.5038C265.712 71.7564 265.173 71.8897 264.626 71.8928C262.111 71.8928 260.071 69.0418 260.071 65.5259C260.062 64.172 260.393 62.8374 261.033 61.6442Z" fill="#E5E7EB"/>
<path opacity="0.03" d="M267.839 70.961C269.153 70.7107 270.513 70.8583 271.743 71.3849C272.48 71.7141 273.278 71.8842 274.086 71.8842C274.893 71.8842 275.691 71.7141 276.428 71.3849C277.301 71.0022 278.247 70.8139 279.2 70.8329C280.153 70.852 281.09 71.078 281.947 71.4952C282.436 71.7527 282.981 71.8882 283.533 71.89C285.767 71.89 287.626 69.64 288.015 66.6641C287.567 66.3395 287.187 65.9301 286.897 65.4592C285.587 63.3514 283.557 61.9956 281.279 61.9956C279.002 61.9956 276.995 63.334 275.685 65.4215C275.293 66.051 274.746 66.5688 274.095 66.9248C273.445 67.2808 272.714 67.463 271.972 67.4538H271.914C270.131 67.4567 268.588 68.8822 267.839 70.961Z" fill="black"/>
</g>
<defs>
<clipPath id="clip0_1267_34462">
<rect width="305" height="218" fill="white" transform="translate(26 24)"/>
</clipPath>
</defs>
</svg>
