<svg width="358" height="266" viewBox="0 0 358 266" fill="none" xmlns="http://www.w3.org/2000/svg">
<g clip-path="url(#clip0_1267_34460)">
<path d="M197.062 98.5784C197.062 98.5784 196.964 102.816 189.238 109.011L187.489 112.157L203.814 121.603C205.284 121.671 206.936 122.061 208.582 122.793C212.851 124.693 215.455 128.168 214.398 130.555C213.341 132.942 209.023 133.336 204.754 131.436C203.82 131.021 202.966 130.53 202.212 129.991C196.617 128.585 171.722 121.863 174.477 114.215C177.578 105.606 180.613 95.5391 180.613 95.5391L197.062 98.5784Z" fill="#FFB6B6"/>
<path d="M183.514 83.0485C184.494 79.8127 186.849 77.227 189.974 75.9541C193.098 74.6814 196.583 74.8905 199.539 76.5208C202.404 78.1048 204.42 80.8564 205.071 84.0705C205.722 87.2844 204.936 90.6065 202.914 93.1851L196.104 101.872L178.92 98.2115L183.514 83.0485Z" fill="#00BFA6"/>
<path d="M218.974 115.198C214.013 113.422 208.814 112.546 203.397 112.494C202.832 112.396 202.292 112.777 202.194 113.344L201.606 116.749C201.508 117.316 201.888 117.858 202.454 117.956C204.566 119.213 206.718 119.976 208.897 120.406L206.639 133.481C204.103 132.987 201.773 132.869 199.79 133.379C199.224 133.281 198.684 133.662 198.587 134.23L197.998 137.635C197.9 138.201 198.281 138.743 198.847 138.841C203.265 140.437 208.64 141.175 214.423 141.545C214.989 141.643 215.529 141.261 215.626 140.694L216.215 137.289C216.313 136.722 215.932 136.181 215.366 136.083C213.136 135.272 210.946 134.535 208.862 133.99L211.15 120.739C213.423 120.962 215.721 120.88 218.03 120.66C218.596 120.758 219.136 120.376 219.234 119.809L219.822 116.404C219.92 115.837 219.539 115.296 218.974 115.198Z" fill="#2F2E41"/>
<path d="M149.625 227.72L134.402 212.113L145.404 196.357L148.387 196.553C149.971 196.657 151.34 195.458 151.451 193.871L152.012 185.81C152.128 184.139 150.807 182.719 149.136 182.719H121.176C121.403 182.173 121.464 181.565 121.33 180.974L104.65 106.964C104.328 105.535 102.99 104.574 101.536 104.727L94.9463 105.422C93.2309 105.603 92.0569 107.244 92.4358 108.931L110.308 188.529C110.711 190.324 112.559 191.162 114.09 190.616C114.005 190.852 113.957 191.093 113.936 191.334L111.567 191.524L71.2314 236.524H83.5922L114.819 201.633L144.745 236.524H154.504L154.829 230.655L149.625 227.72ZM120.365 194.711L136.735 195.787L130.322 207.93L121 198.372L120.365 194.711Z" fill="#E5E7EB"/>
<path d="M60 236.621C60 236.837 60.1724 237.009 60.3871 237.009H297.613C297.828 237.009 298 236.837 298 236.621C298 236.406 297.828 236.233 297.613 236.233H60.3871C60.1724 236.233 60 236.406 60 236.621Z" fill="#D1D5DB"/>
<path d="M201.743 57.922C209.108 57.922 215.079 51.9362 215.079 44.5523C215.079 37.1684 209.108 31.1826 201.743 31.1826C194.377 31.1826 188.406 37.1684 188.406 44.5523C188.406 51.9362 194.377 57.922 201.743 57.922Z" fill="#FFB6B6"/>
<path d="M176.298 215.002V228.372L166.214 228.698L166.634 215.002H176.298Z" fill="#FFB6B6"/>
<path d="M173.343 226.669L173.307 226.723L173.243 226.738C173 226.791 167.264 228.038 165.594 225.695C165.462 225.51 165.347 225.433 165.248 225.463C164.156 225.814 163.287 234.169 163.287 237.339C163.287 239.208 167.445 239.689 172.71 240.298C175.169 240.583 177.957 240.905 180.719 241.418C186.724 242.533 191.672 239.774 194.088 238.03C194.515 237.722 194.777 237.243 194.806 236.715C194.835 236.186 194.626 235.678 194.232 235.323C191.047 232.445 180.513 223.017 178.693 222.496C178.563 222.459 178.43 222.441 178.293 222.441C176.181 222.441 173.373 226.624 173.343 226.669Z" fill="#2F2E41"/>
<path d="M195.164 215.002V228.372L185.081 228.698L185.501 215.002H195.164Z" fill="#FFB6B6"/>
<path d="M199.23 119.295L204.598 123.371L205.573 169.35L196.465 219.568L184.593 220.057L184.267 172.122L168.979 128.426L172.069 118.154L199.23 119.295Z" fill="#2F2E41"/>
<path d="M174.184 127.121L168.979 128.425L165.238 219.568L178.738 218.426L187.683 154.024L174.184 127.121Z" fill="#2F2E41"/>
<path d="M199.526 241.739C196.775 241.228 193.993 240.906 191.539 240.622C185.901 239.97 181.828 239.499 181.828 237.34C181.828 235.702 182.458 225.653 184.015 225.153C184.186 225.098 184.447 225.116 184.725 225.505C186.182 227.551 191.346 226.562 191.976 226.433C192.366 225.859 195.393 221.535 197.649 222.183C199.389 222.681 208.01 230.295 212.994 234.79C213.548 235.289 213.838 236.003 213.789 236.748C213.741 237.486 213.365 238.149 212.759 238.567C210.751 239.949 206.991 242 202.364 242C201.449 242 200.501 241.92 199.526 241.739Z" fill="#2F2E41"/>
<path d="M187.152 61.218L190.066 51.4043L202.75 54.6264L202.235 65.2756L187.152 61.218Z" fill="#FFB6B6"/>
<path d="M172.039 118.314L171.897 118.288L174.132 82.9462C174.594 75.6462 177.232 68.7562 181.76 63.0213L187.315 55.9868L205.002 65.8367L205.068 65.874L208.986 86.8192L208.993 86.8577L204.753 123.418L204.711 123.558L172.039 118.314Z" fill="#00BFA6"/>
<path d="M190.181 51.7093L191.324 51.9745C191.324 51.9745 193.29 44.2616 194.588 45.8623C195.885 47.463 199.198 47.9534 199.198 47.9534L200.336 45.4325C200.336 45.4325 206.503 45.1928 207.526 42.3668C207.526 42.3668 220.624 42.9929 216.957 36.0149C213.29 29.0369 212.112 30.5274 212.112 30.5274C212.112 30.5274 208.53 28.3963 207.727 26.2604C206.923 24.1245 199.022 22.2614 194.364 26.7797C177.299 43.3351 190.181 51.7093 190.181 51.7093Z" fill="#3F3D56"/>
<path d="M221.136 101.559L218.896 101.968L221.459 116.084L223.699 115.675L221.136 101.559Z" fill="#3F3D56"/>
<path d="M214.949 118.101C218.447 115.687 224.257 115.286 230.501 115.263C231.066 115.16 231.609 115.536 231.712 116.103L232.329 119.502C232.432 120.069 232.056 120.613 231.491 120.716C225.935 122.365 220.635 123.528 215.939 123.555C215.374 123.658 214.831 123.281 214.728 122.715L214.111 119.315C214.008 118.749 214.384 118.204 214.949 118.101Z" fill="#3F3D56"/>
<path d="M211.161 97.2481C216.265 95.4271 221.447 94.4545 226.714 94.4096C227.279 94.3065 227.822 94.6834 227.925 95.2496L228.542 98.6495C228.645 99.2156 228.269 99.7604 227.704 99.8634C222.898 102.17 217.897 103.775 212.152 102.702C211.587 102.805 211.044 102.428 210.941 101.862L210.324 98.462C210.221 97.8959 210.597 97.3512 211.161 97.2481Z" fill="#3F3D56"/>
<path d="M200.434 86.3711C200.434 86.3711 201.798 90.3836 196.672 98.8663L196.111 102.424L214.682 105.657C216.086 105.213 217.77 105.009 219.567 105.128C224.227 105.439 227.866 107.802 227.693 110.408C227.521 113.013 223.603 114.874 218.942 114.564C217.923 114.496 216.952 114.33 216.059 114.085C210.323 114.696 184.642 116.979 184.602 108.848C184.556 99.6941 183.947 89.1958 183.947 89.1958L200.434 86.3711Z" fill="#FFB6B6"/>
<path d="M182.38 76.4674C182.189 73.0912 183.511 69.8508 186.008 67.577C188.504 65.3036 191.847 64.297 195.183 64.8071C198.417 65.3054 201.255 67.1927 202.97 69.9855C204.685 72.7782 205.088 76.1685 204.076 79.2872L200.666 89.7933L183.276 92.2888L182.38 76.4674Z" fill="#00BFA6"/>
<path d="M111.324 215.543L110.73 229.879L113.005 229.974L113.599 215.638L111.324 215.543Z" fill="#3F3D56"/>
<path d="M103.937 230.412C107.88 228.828 113.635 229.716 119.732 231.069C120.305 231.093 120.753 231.581 120.729 232.155L120.586 235.608C120.562 236.183 120.076 236.632 119.503 236.608C113.72 236.993 108.295 236.96 103.708 235.951C103.135 235.927 102.687 235.44 102.711 234.865L102.854 231.412C102.878 230.837 103.364 230.389 103.937 230.412Z" fill="#3F3D56"/>
<path d="M104.814 209.235C110.192 208.582 115.46 208.775 120.608 209.891C121.182 209.915 121.629 210.403 121.605 210.978L121.463 214.43C121.439 215.005 120.952 215.454 120.379 215.43C115.185 216.622 109.954 217.086 104.585 214.773C104.011 214.749 103.564 214.262 103.587 213.687L103.73 210.234C103.754 209.659 104.24 209.211 104.814 209.235Z" fill="#3F3D56"/>
</g>
<defs>
<clipPath id="clip0_1267_34460">
<rect width="238" height="218" fill="white" transform="translate(60 24)"/>
</clipPath>
</defs>
</svg>
