<svg width="49" height="48" viewBox="0 0 49 48" fill="none" xmlns="http://www.w3.org/2000/svg">
<g filter="url(#filter0_i_2039_24157)">
<g clip-path="url(#clip0_2039_24157)">
<g clip-path="url(#clip1_2039_24157)">
<path d="M17.6861 -8.40797C18.0599 -9.39138 18.9966 -10.827 19.7677 -11.5981C20.7978 -12.6282 22.0637 -13 24.5446 -13C29.4514 -13 31.1096 -10.8449 31.7158 -3.68055C32.0594 0.386451 31.9412 1.92446 31.2223 2.75119C29.6252 4.58608 28.4982 8.91628 29.3503 9.94231C30.1674 10.9271 33.1761 12.327 39.135 14.4959C43.3319 16.0229 44.0631 17.0551 44.8252 22.5288C45.0465 24.1163 45.821 26.4357 46.5474 27.683C47.2731 28.931 48.1947 31.7583 48.5947 33.967C49.119 36.8588 49.7932 38.3522 51.0048 39.3054C51.9298 40.0324 53.8052 42.9854 55.1735 45.867C56.5411 48.7492 58.7354 52.419 60.0507 54.0237C62.2904 56.7567 62.7206 56.9705 66.8817 57.4165C71.4731 57.9078 73.7141 59.1586 70.0031 59.1586C68.8472 59.1586 67.9009 59.3318 67.9009 59.5434C67.9009 59.7551 68.9654 61.3227 70.2663 63.0263C71.5679 64.7306 72.4716 66.5435 72.2751 67.0555C71.8174 68.2478 70.1241 68.9089 69.6189 68.0925C69.4059 67.7475 68.7771 67.6396 68.2218 67.8527C67.5744 68.1008 65.2832 66.2995 61.8457 62.8407C58.8941 59.8706 53.8348 54.9665 50.6021 51.9427C45.7826 47.4345 44.4672 45.7488 43.2969 42.5779C42.5114 40.451 41.2696 37.7247 40.537 36.52L39.2044 34.3299L37.5805 36.9509C36.1435 39.2696 35.9552 40.4063 35.9504 46.7885C35.947 51.1139 36.4507 56.4818 37.2081 60.1894C37.9035 63.5912 38.6382 70.704 38.8409 75.9956C39.1488 84.0155 39.001 86.3603 37.9551 90.0837C37.0486 93.3075 36.6871 97.037 36.6541 103.485C36.6287 108.398 36.2315 114.639 35.7704 117.353C34.332 125.824 34.5293 133.524 36.2769 137.134C37.1063 138.848 38.0671 140.251 38.4114 140.251C38.7557 140.251 39.0374 140.709 39.0374 141.269C39.0374 142.524 36.6782 143.166 33.1307 142.876L30.4471 142.656L30.353 134.027C30.2843 127.715 29.8589 123.799 28.7682 119.447C27.5917 114.75 27.3161 111.865 27.4605 105.742C27.6357 98.3064 25.9005 74.4803 24.8188 69.467L24.2999 67.0617L23.8031 70.4978C23.5302 72.3877 22.9866 79.0366 22.5956 85.2731C22.2046 91.5097 21.573 97.6789 21.1923 98.9826C20.7236 100.587 20.7305 102.799 21.2143 105.827C22.0032 110.765 21.7434 113.355 19.6907 121.009C18.5801 125.149 18.3527 127.786 18.5362 134.41L18.7643 142.656L14.9846 142.834C12.9057 142.933 10.7492 142.717 10.1919 142.355C9.32391 141.792 9.37751 141.472 10.5671 140.116C13.3964 136.889 13.9558 134.792 13.905 127.601C13.8782 123.786 13.3119 117.511 12.6466 113.656C11.6474 107.868 11.5746 105.983 12.2267 102.841C12.9071 99.564 12.8233 98.2486 11.622 93.357C10.855 90.2342 10.0283 85.8133 9.78573 83.5338C9.25725 78.5851 10.442 66.1442 12.3023 57.0969C13.995 48.866 13.5593 40.6544 11.2234 36.7846L9.70807 34.2735L8.34874 36.5798C7.60173 37.8478 6.62106 39.9459 6.16955 41.2413C4.63429 45.6526 1.21947 49.8728 -5.2693 55.3789C-8.83256 58.4026 -11.9244 61.3708 -12.1395 61.9748C-12.5793 63.2105 -17.649 67.4726 -18.9045 67.6637C-19.3533 67.7317 -20.0817 68.0135 -20.5236 68.2897C-21.2425 68.7392 -23.5 67.1888 -23.5 66.2459C-23.5 66.0398 -22.3915 64.3609 -21.0363 62.515L-18.5726 59.1586H-20.6927C-24.5693 59.1586 -22.8815 57.901 -18.3541 57.4158C-14.318 56.9835 -13.6686 56.6873 -11.4969 54.2834C-10.1775 52.8231 -7.88626 49.2254 -6.4046 46.2876C-4.92294 43.3504 -2.93068 40.2207 -1.9775 39.3328C-0.7831 38.2202 -0.0993118 36.6644 0.222309 34.325C0.478645 32.4585 1.38028 29.6285 2.22557 28.0362C3.07017 26.4439 3.95806 23.4751 4.1979 21.4389C4.72294 16.9781 5.9572 15.469 10.1149 14.2024C11.8481 13.6746 14.7358 12.5806 16.5308 11.7717C19.3794 10.4887 19.7952 10.0371 19.7952 8.22631C19.7952 6.04918 18.7245 3.48102 17.4799 2.67216C16.5838 2.09077 16.7322 -5.90028 17.6861 -8.40797Z" fill="#D1D5DB"/>
<path d="M21.4855 12.902C21.2582 12.2023 20.867 10.8035 20.6154 9.79365C20.2042 8.14276 20.2733 8.05366 21.3093 8.90605C21.9424 9.42756 22.4607 10.4582 22.4607 11.1966C22.4607 11.935 22.8229 13.2177 23.2652 14.048C23.9757 15.3804 23.9426 15.4523 22.9867 14.6641C22.3909 14.1737 21.7959 14.0183 21.6639 14.3188C21.5319 14.6199 19.5925 14.7104 17.3546 14.5205L13.2852 14.1751L19.1965 10.8705L20.5477 12.5228C21.5588 13.7599 21.7945 13.8553 21.4855 12.902Z" fill="#E5E7EB"/>
<path d="M25.9745 12.3874C26.3892 11.0909 26.8474 9.64238 26.9925 9.16715C27.137 8.6926 27.5973 8.30371 28.0147 8.30371C28.8635 8.30371 28.399 10.2648 26.8149 13.3759C25.5045 15.9482 25.0173 15.3749 25.9745 12.3874Z" fill="#E5E7EB"/>
<path d="M24.6648 13.4387C24.2453 14.1716 23.2735 12.0255 23.2003 10.2033C23.1699 9.43516 23.6606 8.99446 24.5473 8.99446C25.7188 8.99446 25.8701 9.29908 25.4886 10.894C25.2384 11.9391 24.868 13.0837 24.6648 13.4387Z" fill="#E5E7EB"/>
<path d="M27.4459 14.7857C27.336 14.738 27.6215 13.8774 28.0797 12.873C28.9851 10.8857 30.2084 10.9292 33.4996 13.0657C35.1984 14.1682 35.1853 14.1771 31.4262 14.5239C29.3466 14.7152 27.5551 14.8334 27.4459 14.7857Z" fill="#E5E7EB"/>
<path d="M4.85812 21.0826C5.60041 17.5839 5.75661 17.3346 8.09611 15.9082C11.0086 14.1336 11.274 14.164 9.54819 16.0746C8.7755 16.9291 7.30545 18.8722 6.28118 20.3918C4.48353 23.0588 4.43376 23.083 4.85812 21.0826Z" fill="#E5E7EB"/>
<path d="M41.7325 19.2866C40.5479 17.615 39.0889 15.8591 38.4903 15.3839C36.7784 14.0259 38.3044 14.3754 40.7884 15.9095C42.8645 17.1916 43.8529 18.9364 43.8764 21.3589C43.8819 21.8907 42.9171 20.9582 41.7325 19.2866Z" fill="#E5E7EB"/>
<path d="M5.36888 24.6081C4.93622 24.1757 8.03252 19.1796 10.229 16.7654C12.01 14.8078 12.7848 14.794 12.7848 16.7198C12.7848 18.2588 6.11531 25.3535 5.36888 24.6081Z" fill="#E5E7EB"/>
<path d="M39.7095 21.6787C37.473 19.5878 36.2835 17.9093 36.2835 16.8434C36.2835 14.7339 36.5005 14.7788 38.9513 17.4002C41.0835 19.6803 44.2841 24.8817 43.555 24.8817C43.3242 24.8817 41.5942 23.4401 39.7095 21.6787Z" fill="#E5E7EB"/>
<path d="M11.0113 21.3872C12.2892 19.9739 13.5423 18.1614 13.7973 17.3601C14.1996 16.0933 14.796 15.902 18.336 15.902C23.4601 15.902 24.1734 16.9077 23.6523 23.4007C23.2473 28.4377 22.2341 29.7273 18.7003 29.7017C15.868 29.6817 11.1544 27.4741 9.79147 25.5296C8.74163 24.0314 8.799 23.8345 11.0113 21.3872Z" fill="#2DD4BF"/>
<path d="M26.3014 28.1814C25.208 26.6217 24.7837 19.2376 25.6566 16.9636C26.0021 16.0643 26.9207 15.8812 30.2658 16.0442C34.2509 16.2377 34.5032 16.3585 35.7472 18.6649C36.4639 19.9946 37.7861 21.7457 38.6845 22.5552L40.3184 24.0286L38.1282 26.1395C34.1403 29.9836 28.2739 30.9969 26.3014 28.1814Z" fill="#2DD4BF"/>
<path d="M1.98852 30.1562C2.5124 28.9025 3.79308 27.2067 4.83393 26.3889C5.87548 25.5704 7.00135 25.0703 7.33724 25.2775C8.17144 25.7928 8.10509 29.8917 7.22389 32.2623C6.33301 34.6592 2.26221 40.7655 1.55379 40.7675C0.65531 40.7696 0.991894 32.5386 1.98852 30.1562Z" fill="#E5E7EB"/>
<path d="M45.0057 38.399C42.3469 34.9148 41.1215 31.6379 41.1215 28.0122C41.1215 26.2901 41.2881 24.8817 41.4913 24.8817C42.5556 24.8817 45.4639 27.4002 46.3272 29.069C47.6217 31.5709 48.3812 38.1973 47.5449 39.6907C46.9713 40.715 46.6478 40.5499 45.0057 38.399Z" fill="#E5E7EB"/>
<path d="M12.0729 32.7728C12.048 36.9228 11.3376 36.1105 9.78456 30.1569L8.7285 26.1071L10.4107 27.6875C11.773 28.9661 12.0895 29.9352 12.0729 32.7728Z" fill="#E5E7EB"/>
<path d="M37.3686 35.0799C36.4176 36.0304 37.0846 29.1761 38.0819 27.7538C38.6908 26.8849 39.3314 26.3157 39.5049 26.4898C39.8657 26.8503 37.9678 34.481 37.3686 35.0799Z" fill="#E5E7EB"/>
<path d="M42.9109 38.2795C41.2929 37.6592 39.7309 34.3456 39.7855 31.651L39.8318 29.3716L40.7027 32.1491C41.1816 33.6763 42.1326 35.7803 42.8169 36.8234C43.931 38.5226 43.9407 38.6746 42.9109 38.2795Z" fill="#E5E7EB"/>
<path d="M5.78356 36.927C6.55003 35.953 7.53007 34.088 7.96134 32.7825C8.39261 31.4763 8.91096 30.4077 9.11416 30.4077C10.0002 30.4077 8.39123 35.7334 7.07944 37.1425C5.09104 39.2783 4.06677 39.1077 5.78356 36.927Z" fill="#E5E7EB"/>
<path d="M16.2405 31.8631C16.2405 32.8516 14.4152 32.5746 13.4759 31.4438C12.9548 30.8166 12.8995 30.4077 13.3349 30.4077C14.6046 30.4077 16.2405 31.2269 16.2405 31.8631Z" fill="#E5E7EB"/>
<path d="M17.6124 33.5423C17.987 32.558 18.9981 31.4707 19.8586 31.1261C21.9804 30.2778 22.7655 30.5838 23.0275 32.3611C23.1844 33.4311 22.8872 33.8628 21.9908 33.8656C21.2989 33.8683 19.878 34.3159 18.8323 34.8609C16.6828 35.9813 16.6842 35.9834 17.6124 33.5423Z" fill="#E5E7EB"/>
<path d="M27.1259 34.0721C25.3255 33.7088 24.5563 31.9971 25.6863 30.8684C26.4956 30.0589 27.7542 30.369 29.6244 31.8396C31.7199 33.487 32.1519 35.6636 30.2361 34.9231C29.5705 34.6661 28.1716 34.2828 27.1259 34.0721Z" fill="#E5E7EB"/>
<path d="M32.9218 32.1131C32.702 31.8935 32.9799 31.4252 33.539 31.0715C34.8314 30.2543 35.5924 30.2371 35.5924 31.0245C35.5924 31.7906 33.4664 32.6574 32.9218 32.1131Z" fill="#E5E7EB"/>
<path d="M16.2405 34.5522C16.2405 35.6539 14.4249 35.3514 13.3875 34.0776C12.5526 33.0519 12.5906 32.969 13.7054 33.3869C14.4014 33.648 15.257 33.8614 15.606 33.8614C15.9551 33.8614 16.2405 34.1723 16.2405 34.5522Z" fill="#E5E7EB"/>
<path d="M32.9909 34.9452C32.7331 34.6876 32.9799 34.1881 33.539 33.8345C34.8771 32.989 35.5924 33.0056 35.5924 33.8828C35.5924 34.7732 33.6233 35.5772 32.9909 34.9452Z" fill="#E5E7EB"/>
<path d="M18.4867 40.0685C16.2301 40.0823 16.4582 37.6163 18.8323 36.3288C21.8809 34.6758 23.1519 34.9418 23.1519 37.2344C23.1519 39.3011 21.9223 40.0478 18.4867 40.0685Z" fill="#E5E7EB"/>
<path d="M25.2253 37.7351C25.2253 36.871 25.4326 35.9565 25.6863 35.7036C27.2745 34.1156 31.7393 36.7964 31.3398 39.098C31.1242 40.342 30.8021 40.4228 28.1626 39.8944C25.7402 39.4095 25.2253 39.0303 25.2253 37.7351Z" fill="#E5E7EB"/>
<path d="M15.5494 37.396C15.5494 38.3271 14.4339 38.1233 13.5209 37.0244C12.8518 36.2183 12.961 36.1091 14.1277 36.4137C14.9094 36.6182 15.5494 37.0603 15.5494 37.396Z" fill="#E5E7EB"/>
<path d="M32.8278 37.3656C32.8278 37.014 33.3718 36.6044 34.0373 36.4566C35.5454 36.1216 35.8578 36.3267 35.2752 37.2689C34.716 38.1738 32.8278 38.2484 32.8278 37.3656Z" fill="#E5E7EB"/>
<path d="M33.651 40.7468C32.6246 40.7275 32.6447 40.6024 33.8141 39.7183C35.2344 38.6442 36.0278 38.8148 35.2752 40.0319C35.025 40.4374 34.2937 40.7592 33.651 40.7468Z" fill="#E5E7EB"/>
<path d="M-6.49591 47.7545C-5.3576 45.245 -3.60556 42.3355 -2.60272 41.2897C-0.295008 38.8818 0.344296 38.8935 0.344296 41.3415C0.344296 43.9139 -3.04712 48.9384 -7.487 52.9447C-9.45191 54.7172 -10.971 56.4655 -10.8625 56.8302C-10.5605 57.8442 -12.1598 59.4613 -12.9705 58.9605C-13.4094 58.6897 -13.1937 58.1564 -12.4141 57.5866C-11.714 57.0747 -11.3836 56.6561 -11.6801 56.6561C-11.9766 56.6561 -11.3975 55.6801 -10.3925 54.4865C-9.38832 53.2936 -7.63421 50.264 -6.49591 47.7545Z" fill="#E5E7EB"/>
<path d="M-0.2176 45.3444C0.536434 43.8718 1.9816 41.8976 2.99481 40.9568C4.57338 39.4917 4.86987 39.413 5.071 40.4083C5.74278 43.7412 2.82479 47.6619 -5.05419 54.0119C-7.97702 56.3674 -9.72629 57.5375 -8.94185 56.6119C-8.15741 55.6863 -6.18213 53.3751 -4.55173 51.4755C-2.92134 49.576 -0.97094 46.8171 -0.2176 45.3444Z" fill="#E5E7EB"/>
<path d="M14.5126 40.7689C13.9425 40.7689 13.4759 40.4581 13.4759 40.0782C13.4759 39.6983 13.9425 39.3874 14.5126 39.3874C15.0828 39.3874 15.5494 39.6983 15.5494 40.0782C15.5494 40.4581 15.0828 40.7689 14.5126 40.7689Z" fill="#E5E7EB"/>
<path d="M46.6575 47.4464C44.6574 45.1234 43.2709 42.3466 43.226 40.572C43.2018 39.6057 43.4589 39.48 44.412 39.9897C46.0431 40.8622 47.4406 42.5649 49.5893 46.2949C51.5929 49.7735 58.3751 57.6018 58.9169 57.0609C59.1091 56.8682 60.1403 57.1632 61.2081 57.7151C62.2766 58.267 63.5711 58.5571 64.0846 58.3602C64.5981 58.1633 65.9092 58.9315 66.9984 60.0671C68.5839 61.7207 68.8147 62.3286 68.1589 63.1188C65.8995 65.839 61.5073 64.1749 62.005 60.7868C62.1923 59.5103 62.0139 58.9764 61.4693 59.185C61.0194 59.3577 60.4582 58.995 60.2218 58.3789C59.9855 57.7634 59.5189 57.4277 59.1851 57.6342C58.5168 58.0473 49.4076 50.639 46.6575 47.4464Z" fill="#E5E7EB"/>
<path d="M54.7003 51.1854C50.0351 46.3557 47.7163 42.3977 48.4427 40.5057C49.3149 38.2332 52.866 41.9625 55.2698 47.6764C55.9886 49.386 57.3301 51.8154 58.2493 53.0753C61.1348 57.0264 59.5037 56.1581 54.7003 51.1854Z" fill="#E5E7EB"/>
<path d="M22.3557 46.2949C18.5572 46.2949 15.7906 41.9086 19.1778 41.2566C21.9548 40.7219 23.1519 40.7572 23.1519 41.3733C23.1519 41.7056 23.3461 42.9489 23.5838 44.1363C23.9716 46.0746 23.8465 46.2949 22.3557 46.2949Z" fill="#E5E7EB"/>
<path d="M25.2253 43.9926C25.2253 42.7258 25.4437 41.4721 25.7105 41.2055C26.1646 40.751 29.7785 41.2511 30.9272 41.9273C32.5756 42.8971 29.4841 46.2949 26.9531 46.2949C25.4554 46.2949 25.2253 45.9882 25.2253 43.9926Z" fill="#E5E7EB"/>
<path d="M15.8293 55.8956C14.814 54.7759 14.4339 53.0387 14.1671 48.296C13.977 44.9148 14.044 42.149 14.3157 42.1497C15.2708 42.1511 16.0871 44.6122 16.5881 48.9999C16.8667 51.4375 17.347 54.3131 17.6559 55.3893C18.3222 57.7109 17.6463 57.8981 15.8293 55.8956Z" fill="#E5E7EB"/>
<path d="M32.1291 49.4627C32.5085 46.4745 33.1693 43.6072 33.5991 43.0905C34.0283 42.5731 34.5094 42.1504 34.6683 42.1504C35.1342 42.1504 34.4119 53.429 33.8597 54.7759C33.5825 55.4515 32.7414 56.3329 31.9902 56.7349C30.8208 57.36 30.6825 57.2799 31.0316 56.1802C31.2562 55.4729 31.7503 52.4502 32.1291 49.4627Z" fill="#E5E7EB"/>
<path d="M22.1027 59.4074C20.2014 57.6218 18.3139 52.2201 18.3139 48.5626C18.3139 46.4869 18.4528 46.3205 19.6506 46.9615C20.3859 47.3545 21.63 47.6764 22.4151 47.6764C23.7601 47.6764 23.843 48.066 23.843 54.3587V61.0417L22.1027 59.4074Z" fill="#E5E7EB"/>
<path d="M25.2253 47.9202L27.8171 47.1949C29.2429 46.7957 30.516 46.4303 30.6466 46.3819C30.7772 46.3343 30.6687 47.9271 30.4054 49.9213C29.8539 54.1004 28.0389 58.6483 26.3747 60.0215C25.3172 60.8939 25.2253 60.4477 25.2253 54.445V47.9202Z" fill="#E5E7EB"/>
<path d="M18.0969 62.8729C16.9254 60.4035 15.8362 58.0722 15.6751 57.6923C15.5148 57.3123 17.1314 58.7008 19.2677 60.7771C23.465 64.8574 23.7988 66.08 22.5762 72.8887L22.0792 75.6517L21.1531 71.5072C20.6437 69.2278 19.2684 65.3423 18.0969 62.8729Z" fill="#E5E7EB"/>
<path d="M26.4334 73.2341C24.8583 64.282 24.6641 65.1745 29.0784 61.0686C31.2797 59.0213 33.1658 57.3469 33.2715 57.3469C33.3766 57.3469 32.3917 59.4551 31.082 62.0315C29.7716 64.608 28.2857 68.727 27.7791 71.184C26.9006 75.4473 26.8391 75.5412 26.4334 73.2341Z" fill="#E5E7EB"/>
<path d="M71.26 59.2299C70.7997 59.6906 66.7759 58.7291 66.3612 58.0591C66.1698 57.7496 67.2659 57.8145 68.7975 58.2027C70.3283 58.5909 71.4369 59.053 71.26 59.2299Z" fill="#E5E7EB"/>
<path d="M-20.5122 59.0468C-22.7432 59.3086 -23.0625 59.2458 -21.7722 58.7981C-17.9661 57.4781 -12.7873 58.8113 -12.7873 61.1101C-12.7873 61.5674 -13.5213 62.6304 -14.4184 63.4724C-15.8401 64.8077 -16.2824 64.8975 -17.8741 64.1729C-19.978 63.2148 -20.1286 62.4122 -18.6116 60.2473C-17.5265 58.6994 -17.5313 58.6966 -20.5122 59.0468Z" fill="#E5E7EB"/>
<path d="M16.1582 88.0852C14.3164 81.8174 12.7862 62.0184 13.9169 59.0738C14.4829 57.6004 18.8233 67.2322 19.9063 72.3645C20.7799 76.5048 19.9671 82.8252 17.9732 87.3945L16.7678 90.1575L16.1582 88.0852Z" fill="#E5E7EB"/>
<path d="M28.681 76.415C28.681 71.8574 29.444 69.0724 32.6454 61.9431L34.5377 57.7275L35.0491 60.4732C35.9435 65.2739 33.5197 89.8121 32.1519 89.8121C31.0495 89.8121 28.681 80.6693 28.681 76.415Z" fill="#E5E7EB"/>
<path d="M-23.4341 67.2849C-23.6122 66.7983 -23.1128 65.5815 -22.3188 64.5735C-21.034 62.9406 -20.7963 62.8625 -20.2219 63.8883C-19.7596 64.7137 -19.9372 65.4749 -20.8412 66.549C-21.9671 67.8863 -21.9042 67.8739 -20.2696 66.433C-18.877 65.2055 -18.1395 64.9755 -17.2265 65.486C-16.1173 66.107 -16.1394 66.223 -17.5147 66.958C-18.3358 67.3973 -19.0076 67.552 -19.0076 67.3026C-19.0076 67.0526 -19.396 67.1548 -19.8715 67.5292C-21.0669 68.4719 -23.0149 68.3451 -23.4277 67.3016L-23.5 67.3627L-23.4341 67.2849Z" fill="#E5E7EB"/>
<path d="M67.3737 64.95C68.5203 64.4754 69.4651 63.7356 69.4734 63.3074C69.4817 62.8784 70.0795 63.2956 70.8011 64.2343C71.5233 65.1731 72.0721 66.4945 72.0209 67.17C71.9242 68.4603 69.8321 68.872 69.1313 67.7385C68.9067 67.3752 68.3158 67.2336 67.8188 67.4242C67.3219 67.6149 66.5492 67.3303 66.102 66.7922C65.4434 65.9985 65.6846 65.649 67.3737 64.95Z" fill="#E5E7EB"/>
<path d="M11.0411 88.9266C10.7694 87.1092 10.7722 81.7282 11.0473 76.9676C11.3217 72.2077 11.6596 68.4258 11.7979 68.564C11.9361 68.7021 12.3715 71.7518 12.7654 75.3416C13.1601 78.9314 13.9812 84.4332 14.5907 87.5685C15.6855 93.2016 15.5044 96.7196 14.1187 96.7196C13.14 96.7196 11.6354 92.9101 11.0411 88.9266Z" fill="#E5E7EB"/>
<path d="M34.4755 86.0268C35.1107 82.9944 35.8308 77.7102 36.0762 74.2841C36.6118 66.7963 37.2525 68.3726 37.8953 78.7601C38.5283 88.9929 36.4563 98.5501 34.1127 96.2077C33.0276 95.1233 33.1216 92.4901 34.4755 86.0268Z" fill="#E5E7EB"/>
<path d="M18.1494 90.1941C18.956 88.5356 20.0224 85.2069 20.5193 82.7968L21.424 78.4147L21.621 84.6757C21.9071 93.759 19.5904 99.5848 17.5087 95.0183C16.8128 93.4924 16.9137 92.7367 18.1494 90.1941Z" fill="#E5E7EB"/>
<path d="M30.5167 96.6298C28.6603 98.1701 27.7148 95.0245 27.533 86.7037C27.4107 81.1011 27.5233 79.8315 27.9629 81.8685C28.2905 83.3881 29.0888 86.0302 29.7364 87.7398C31.4808 92.3437 31.7655 95.5937 30.5167 96.6298Z" fill="#E5E7EB"/>
<path d="M14.9633 99.4342C14.6142 98.5107 14.467 97.5222 14.6343 97.2376C15.1768 96.3176 16.9627 96.6878 17.3933 97.8096C17.6235 98.4085 17.3131 99.3969 16.7042 100.005C15.6883 101.021 15.5445 100.974 14.9633 99.4342Z" fill="#E5E7EB"/>
<path d="M33.4139 99.8929C32.5237 100.443 30.5941 98.2282 31.1629 97.3088C31.3633 96.9848 32.1305 96.7196 32.8686 96.7196C34.3587 96.7196 34.7616 99.0605 33.4139 99.8929Z" fill="#E5E7EB"/>
<path d="M17.4431 105.354C17.6559 102.456 18.2206 100.034 18.8537 99.3099C19.4349 98.6447 20.0286 98.1011 20.1731 98.1011C20.3175 98.1011 20.1447 98.6447 19.7888 99.3099C19.4329 99.9751 18.9124 102.073 18.6318 103.972C17.79 109.681 17.065 110.523 17.4431 105.354Z" fill="#E5E7EB"/>
<path d="M30.4427 104.6C29.9817 102.286 29.3963 99.7996 29.1413 99.0743C28.7695 98.0161 28.9512 98.0776 30.0619 99.3866C31.1186 100.632 31.4262 101.937 31.3633 104.913L31.2811 108.808L30.4427 104.6Z" fill="#E5E7EB"/>
<path d="M13.0854 112.952C12.0798 108.791 12.0377 107.539 12.7855 103.972C13.5665 100.245 13.7192 100.002 14.2991 101.555C15.7221 105.365 16.828 125.978 15.6482 126.706C15.322 126.907 14.8755 124.983 14.655 122.43C14.4345 119.876 13.7289 115.612 13.0854 112.952Z" fill="#E5E7EB"/>
<path d="M32.9115 121.223C32.8306 113.856 33.8376 102.716 34.7126 101.301C34.9476 100.921 35.3754 101.212 35.6629 101.946C36.5227 104.14 36.3499 110.055 35.2682 115.469C34.7098 118.263 33.9696 122.415 33.6233 124.695C33.0214 128.665 32.9909 128.52 32.9115 121.223Z" fill="#E5E7EB"/>
<path d="M17.141 128.243C16.8839 127.986 18.7272 109.904 19.4736 105.354C19.8869 102.833 19.972 102.743 20.4336 104.318C21.4323 107.719 21.0487 112.906 19.229 120.631C18.2116 124.948 17.2717 128.373 17.141 128.243Z" fill="#E5E7EB"/>
<path d="M29.7564 121.216C28.0728 114.611 27.5358 107.81 28.4329 104.463C28.6658 103.593 28.9388 102.972 29.039 103.081C29.1392 103.192 29.7371 108.1 30.3681 113.988C30.9991 119.877 31.6909 125.627 31.9065 126.767C32.7359 131.153 31.431 127.785 29.7564 121.216Z" fill="#E5E7EB"/>
<path d="M16.2958 134.74C15.5051 134.318 14.8582 133.493 14.8582 132.909C14.8582 131.208 17.2496 132.111 17.5053 133.908C17.7085 135.335 17.5765 135.425 16.2958 134.74Z" fill="#E5E7EB"/>
<path d="M31.3384 135.402C30.4151 135.402 30.659 132.792 31.6183 132.405C32.9108 131.884 34.2101 131.887 34.2101 132.411C34.2101 133.108 32.0075 135.402 31.3384 135.402Z" fill="#E5E7EB"/>
<path d="M13.7856 136.973C13.9957 136.427 14.1671 135.668 14.1671 135.288C14.1671 134.147 15.7187 135.02 17.1887 136.988C18.9152 139.299 18.298 139.993 15.5355 138.85C14.1436 138.273 13.5361 137.622 13.7856 136.973Z" fill="#E5E7EB"/>
<path d="M31.843 143C30.2789 143 30.6245 138.087 32.3171 136.265C33.8217 134.644 34.9012 134.26 34.9012 135.345C34.9012 135.694 35.0727 136.427 35.2828 136.973C35.5309 137.619 34.94 138.267 33.5971 138.823C31.7884 139.572 31.6094 139.886 32.1616 141.339C32.6392 142.594 32.5611 143 31.843 143Z" fill="#E5E7EB"/>
<path d="M10.9989 142.136C11.2207 141.662 11.5933 140.729 11.8283 140.064C12.3321 138.636 12.2637 138.647 14.3965 139.619C16.9793 140.795 16.0636 143 12.9921 143C11.3217 143 10.7183 142.739 10.9989 142.136Z" fill="#E5E7EB"/>
<path d="M36.0119 143C33.2252 143 32.0503 141.132 33.9592 139.737C35.5212 138.596 35.4949 138.59 37.0134 140.409C38.8387 142.596 38.6825 143 36.0119 143Z" fill="#E5E7EB"/>
<path d="M17.2772 143C16.1147 143 16.0677 142.873 16.6586 141.334C17.1438 140.069 18.3139 140.543 18.3139 142.004C18.3139 142.552 17.8474 143 17.2772 143Z" fill="#E5E7EB"/>
</g>
</g>
</g>
<defs>
<filter id="filter0_i_2039_24157" x="0.5" y="0" width="48" height="50" filterUnits="userSpaceOnUse" color-interpolation-filters="sRGB">
<feFlood flood-opacity="0" result="BackgroundImageFix"/>
<feBlend mode="normal" in="SourceGraphic" in2="BackgroundImageFix" result="shape"/>
<feColorMatrix in="SourceAlpha" type="matrix" values="0 0 0 0 0 0 0 0 0 0 0 0 0 0 0 0 0 0 127 0" result="hardAlpha"/>
<feOffset dy="2"/>
<feGaussianBlur stdDeviation="2"/>
<feComposite in2="hardAlpha" operator="arithmetic" k2="-1" k3="1"/>
<feColorMatrix type="matrix" values="0 0 0 0 0 0 0 0 0 0 0 0 0 0 0 0 0 0 0.06 0"/>
<feBlend mode="normal" in2="shape" result="effect1_innerShadow_2039_24157"/>
</filter>
<clipPath id="clip0_2039_24157">
<rect x="0.5" width="48" height="48" rx="4" fill="white"/>
</clipPath>
<clipPath id="clip1_2039_24157">
<rect width="48" height="48" fill="white" transform="translate(0.5)"/>
</clipPath>
</defs>
</svg>
